<svg width="28" height="28" viewBox="0 0 28 28" fill="none" xmlns="http://www.w3.org/2000/svg">
<path fill-rule="evenodd" clip-rule="evenodd" d="M28 14C28 6.26801 21.732 0 14 0C6.26801 0 0 6.26801 0 14C0 21.732 6.26801 28 14 28C21.732 28 28 21.732 28 14Z" fill="white"/>
<path fill-rule="evenodd" clip-rule="evenodd" d="M27 14C27 6.8203 21.1797 1 14 1C6.8203 1 1 6.8203 1 14C1 21.1797 6.8203 27 14 27C21.1797 27 27 21.1797 27 14ZM14 0C21.732 0 28 6.26801 28 14C28 21.732 21.732 28 14 28C6.26801 28 0 21.732 0 14C0 6.26801 6.26801 0 14 0Z" fill="#31B15C"/>
<path d="M20.375 12.0715C20.0453 12.0715 19.7251 12.1029 19.4187 12.1791L18.1978 8.89707H18.5956C19.2216 8.89707 19.8138 8.66667 20.263 8.23074L20.6843 7.8267C20.8758 7.64087 20.8803 7.3375 20.6945 7.14601C20.5086 6.95452 20.2028 6.95123 20.0114 7.13705L19.5901 7.53679C19.3222 7.79681 18.969 7.93085 18.5956 7.93085H17.502C17.3437 7.93085 17.1954 8.01819 17.1052 8.14823C17.0149 8.27834 16.9941 8.44922 17.0495 8.5975L17.5141 9.84525C17.5112 9.84519 17.5081 9.85434 17.5052 9.85434C17.5041 9.85434 17.5031 9.86316 17.502 9.86316H11.3204L10.4855 8.45663L11.3923 8.14134C11.6156 8.06463 11.7507 7.84827 11.7118 7.61537C11.6729 7.38252 11.4715 7.2224 11.2354 7.2224H8.58105C8.20908 7.2224 7.90635 7.51263 7.90635 7.8846C7.90635 8.46049 8.37436 8.9229 8.94954 8.9229C9.06484 8.9229 9.17917 8.90055 9.28944 8.86274L9.55371 8.77044L10.4005 10.1872L9.7501 12.1379C9.53677 12.0948 9.31765 12.0677 9.09357 12.0605C7.96065 12.0243 6.90007 12.4559 6.11658 13.2648C5.36337 14.0425 4.9675 15.0678 5.00209 16.1518C5.06856 18.2346 6.75225 19.9183 8.83509 19.9847C8.87843 19.9861 8.9214 19.9868 8.96442 19.9868C10.0472 19.9868 11.0586 19.5542 11.8121 18.7763C12.4217 18.1468 12.797 17.3348 12.8997 16.4974H13.6759C13.8433 16.6262 14.0599 16.7315 14.2968 16.7315C14.8247 16.7315 15.2542 16.3041 15.2542 15.7761C15.2542 15.6047 15.2083 15.4451 15.1291 15.3057L17.837 10.7129L18.5167 12.535C17.2649 13.2023 16.4106 14.5209 16.4106 16.0356C16.4106 18.2216 18.189 20 20.375 20C22.5609 20 24.3392 18.2216 24.3392 16.0357C24.3392 13.8498 22.5609 12.0715 20.375 12.0715ZM16.657 10.8294L14.2991 14.8287C14.2983 14.8287 14.2975 14.8247 14.2968 14.8247C14.294 14.8247 14.2914 14.8309 14.2886 14.8309L11.897 10.8294L16.657 10.8294ZM11.0541 11.2808L13.4616 15.3073C13.4218 15.3782 13.3915 15.4669 13.3707 15.5313H12.8988C12.7319 14.1787 11.8641 13.0115 10.6665 12.4396L11.0541 11.2808ZM9.79519 15.5313C9.76279 15.4669 9.72556 15.433 9.68389 15.3875L10.2549 13.6725C10.9454 14.0541 11.4505 14.7584 11.5968 15.5313H9.79519ZM10.8868 17.8801C10.3577 18.4263 9.64299 18.72 8.87624 18.6952C7.47068 18.6503 6.33455 17.5152 6.28972 16.1097C6.26634 15.3774 6.53345 14.6854 7.04197 14.1605C7.55068 13.6353 8.23336 13.3462 8.96429 13.3462C8.9936 13.3462 9.02291 13.3469 9.05247 13.3478C9.14922 13.3509 9.24448 13.3597 9.33839 13.3728L8.76089 15.1055C8.33777 15.2045 8.02139 15.584 8.02139 16.0369C8.02139 16.5648 8.45088 16.9902 8.97872 16.9902C9.33633 16.9902 9.64827 16.8195 9.81264 16.4975H11.5967C11.5033 17.0128 11.2605 17.4942 10.8868 17.8801ZM20.375 18.712C18.8994 18.712 17.6989 17.5114 17.6989 16.0359C17.6989 15.0741 18.2091 14.2295 18.9728 13.7577L19.8809 16.1915C19.9533 16.3858 20.1376 16.5058 20.3335 16.5058C20.3896 16.5058 20.4467 16.496 20.5023 16.4751C20.7523 16.3819 20.8793 16.1036 20.786 15.8537L19.8734 13.4076C20.0359 13.3766 20.2035 13.3597 20.375 13.3597C21.8506 13.3597 23.051 14.5603 23.051 16.0359C23.051 17.5114 21.8506 18.712 20.375 18.712Z" fill="#31B15C"/>
</svg>
