<svg width="29" height="29" viewBox="0 0 29 29" fill="none" xmlns="http://www.w3.org/2000/svg">
<path d="M12.0862 11.6034C12.0862 11.3368 11.8701 11.1207 11.6034 11.1207C11.3368 11.1207 11.1207 11.3368 11.1207 11.6034V12.569C11.1207 12.8356 11.3368 13.0517 11.6034 13.0517C11.8701 13.0517 12.0862 12.8356 12.0862 12.569V11.6034Z" fill="#050733"/>
<path d="M11.6034 14.0172C11.8701 14.0172 12.0862 14.2334 12.0862 14.5V15.4655C12.0862 15.7321 11.8701 15.9483 11.6034 15.9483C11.3368 15.9483 11.1207 15.7321 11.1207 15.4655V14.5C11.1207 14.2334 11.3368 14.0172 11.6034 14.0172Z" fill="#050733"/>
<path d="M12.0862 17.3966C12.0862 17.1299 11.8701 16.9138 11.6034 16.9138C11.3368 16.9138 11.1207 17.1299 11.1207 17.3966V18.3621C11.1207 18.6287 11.3368 18.8448 11.6034 18.8448C11.8701 18.8448 12.0862 18.6287 12.0862 18.3621V17.3966Z" fill="#050733"/>
<path d="M6.77586 11.1207C7.04248 11.1207 7.25862 11.3368 7.25862 11.6034V12.569C7.25862 12.8356 7.04248 13.0517 6.77586 13.0517C6.50924 13.0517 6.2931 12.8356 6.2931 12.569V11.6034C6.2931 11.3368 6.50924 11.1207 6.77586 11.1207Z" fill="#050733"/>
<path d="M9.67241 11.6034C9.67241 11.3368 9.45627 11.1207 9.18966 11.1207C8.92304 11.1207 8.7069 11.3368 8.7069 11.6034V12.569C8.7069 12.8356 8.92304 13.0517 9.18966 13.0517C9.45627 13.0517 9.67241 12.8356 9.67241 12.569V11.6034Z" fill="#050733"/>
<path d="M17.3966 11.1207C17.6632 11.1207 17.8793 11.3368 17.8793 11.6034V12.569C17.8793 12.8356 17.6632 13.0517 17.3966 13.0517C17.1299 13.0517 16.9138 12.8356 16.9138 12.569V11.6034C16.9138 11.3368 17.1299 11.1207 17.3966 11.1207Z" fill="#050733"/>
<path d="M17.8793 8.7069C17.8793 8.44028 17.6632 8.22414 17.3966 8.22414C17.1299 8.22414 16.9138 8.44028 16.9138 8.7069V9.67241C16.9138 9.93903 17.1299 10.1552 17.3966 10.1552C17.6632 10.1552 17.8793 9.93903 17.8793 9.67241V8.7069Z" fill="#050733"/>
<path d="M19.8103 8.22414C20.077 8.22414 20.2931 8.44028 20.2931 8.7069V9.67241C20.2931 9.93903 20.077 10.1552 19.8103 10.1552C19.5437 10.1552 19.3276 9.93903 19.3276 9.67241V8.7069C19.3276 8.44028 19.5437 8.22414 19.8103 8.22414Z" fill="#050733"/>
<path d="M20.2931 11.6034C20.2931 11.3368 20.077 11.1207 19.8103 11.1207C19.5437 11.1207 19.3276 11.3368 19.3276 11.6034V12.569C19.3276 12.8356 19.5437 13.0517 19.8103 13.0517C20.077 13.0517 20.2931 12.8356 20.2931 12.569V11.6034Z" fill="#050733"/>
<path d="M17.3966 14.0172C17.6632 14.0172 17.8793 14.2334 17.8793 14.5V15.4655C17.8793 15.7321 17.6632 15.9483 17.3966 15.9483C17.1299 15.9483 16.9138 15.7321 16.9138 15.4655V14.5C16.9138 14.2334 17.1299 14.0172 17.3966 14.0172Z" fill="#050733"/>
<path d="M20.2931 14.5C20.2931 14.2334 20.077 14.0172 19.8103 14.0172C19.5437 14.0172 19.3276 14.2334 19.3276 14.5V15.4655C19.3276 15.7321 19.5437 15.9483 19.8103 15.9483C20.077 15.9483 20.2931 15.7321 20.2931 15.4655V14.5Z" fill="#050733"/>
<path d="M4.36207 10.1552C4.36207 9.62193 4.79435 9.18966 5.32759 9.18966H13.0517C13.585 9.18966 14.0172 9.62193 14.0172 10.1552V18.3621C14.0172 18.6287 13.8011 18.8448 13.5345 18.8448C13.2679 18.8448 13.0517 18.6287 13.0517 18.3621V10.1552H5.32759V13.0517C5.32759 13.3183 5.11145 13.5345 4.84483 13.5345C4.57821 13.5345 4.36207 13.3183 4.36207 13.0517V10.1552Z" fill="#050733"/>
<path d="M16.494 3.51608C15.8533 3.07706 14.9828 3.53585 14.9828 4.31257V18.3621C14.9828 18.6287 15.1989 18.8449 15.4655 18.8449C15.7321 18.8449 15.9483 18.6287 15.9483 18.3621V4.31257L23.6724 9.60499V13.2931C23.6724 13.5597 23.8886 13.7758 24.1552 13.7758C24.4218 13.7758 24.6379 13.5597 24.6379 13.2931V9.60499C24.6379 9.28651 24.4809 8.98851 24.2182 8.8085L16.494 3.51608Z" fill="#050733"/>
<path fill-rule="evenodd" clip-rule="evenodd" d="M0.5 14.5C0.5 22.232 6.76801 28.5 14.5 28.5C22.232 28.5 28.5 22.232 28.5 14.5C28.5 6.76801 22.232 0.5 14.5 0.5C6.76801 0.5 0.5 6.76801 0.5 14.5ZM14.0172 27.5257C11.0945 27.4193 8.41735 26.3506 6.2931 24.627V20.7416C7.93076 20.5074 9.18966 19.099 9.18966 17.3966C9.18966 15.5302 7.67669 14.0172 5.81034 14.0172C3.944 14.0172 2.43103 15.5302 2.43103 17.3966C2.43103 19.099 3.68993 20.5074 5.32759 20.7416V23.7609C2.94276 21.3987 1.46552 18.1219 1.46552 14.5C1.46552 7.30125 7.30125 1.46552 14.5 1.46552C21.6987 1.46552 27.5345 7.30125 27.5345 14.5C27.5345 18.1219 26.0572 21.3987 23.6724 23.7609V21.7072C25.3101 21.4729 26.569 20.0645 26.569 18.3621C26.569 16.4957 25.056 14.9828 23.1897 14.9828C21.3233 14.9828 19.8103 16.4957 19.8103 18.3621C19.8103 20.0645 21.0692 21.4729 22.7069 21.7072V24.627C20.5827 26.3506 17.9055 27.4193 14.9828 27.5257V25.5692C16.6204 25.335 17.8793 23.9266 17.8793 22.2241C17.8793 20.3578 16.3663 18.8448 14.5 18.8448C12.6337 18.8448 11.1207 20.3578 11.1207 22.2241C11.1207 23.9266 12.3796 25.335 14.0172 25.5692V27.5257ZM14.9828 24.5896V23.1897C14.9828 22.923 14.7666 22.7069 14.5 22.7069C14.2334 22.7069 14.0172 22.923 14.0172 23.1897V24.5896C12.9155 24.366 12.0862 23.3919 12.0862 22.2241C12.0862 20.891 13.1669 19.8103 14.5 19.8103C15.8331 19.8103 16.9138 20.891 16.9138 22.2241C16.9138 23.3919 16.0845 24.366 14.9828 24.5896ZM23.6724 20.7276V19.3276C23.6724 19.061 23.4563 18.8448 23.1897 18.8448C22.923 18.8448 22.7069 19.061 22.7069 19.3276V20.7276C21.6051 20.5039 20.7759 19.5298 20.7759 18.3621C20.7759 17.029 21.8566 15.9483 23.1897 15.9483C24.5228 15.9483 25.6034 17.029 25.6034 18.3621C25.6034 19.5298 24.7742 20.5039 23.6724 20.7276ZM8.22414 17.3966C8.22414 18.5643 7.39487 19.5384 6.2931 19.7621V18.8448C6.2931 18.5782 6.07697 18.3621 5.81034 18.3621C5.54372 18.3621 5.32759 18.5782 5.32759 18.8448V19.7621C4.22581 19.5384 3.39655 18.5643 3.39655 17.3966C3.39655 16.0634 4.47724 14.9828 5.81034 14.9828C7.14345 14.9828 8.22414 16.0634 8.22414 17.3966Z" fill="#050733"/>
</svg>
