<svg width="235" height="120" viewBox="0 0 235 120" fill="none" xmlns="http://www.w3.org/2000/svg">
<path fill-rule="evenodd" clip-rule="evenodd" d="M50.808 42.6343C50.808 37.9576 54.5992 34.1663 59.276 34.1663L108.32 34.1663C112.997 34.1663 116.788 37.9576 116.788 42.6343C116.788 47.3111 112.997 51.1023 108.32 51.1023L59.276 51.1023C54.5992 51.1023 50.808 47.3111 50.808 42.6343Z" fill="white"/>
<path fill-rule="evenodd" clip-rule="evenodd" d="M50.558 42.6343C50.558 37.8195 54.4612 33.9163 59.276 33.9163L108.32 33.9163C113.135 33.9163 117.038 37.8195 117.038 42.6343C117.038 47.4491 113.135 51.3523 108.32 51.3523L59.276 51.3523C54.4612 51.3523 50.558 47.4491 50.558 42.6343ZM59.276 34.4163C54.7373 34.4163 51.058 38.0956 51.058 42.6343C51.058 47.173 54.7373 50.8523 59.276 50.8523L108.32 50.8523C112.858 50.8523 116.538 47.173 116.538 42.6343C116.538 38.0956 112.858 34.4163 108.32 34.4163L59.276 34.4163Z" fill="white"/>
<path fill-rule="evenodd" clip-rule="evenodd" d="M73.3893 76.5063C73.3893 71.8296 77.1805 68.0383 81.8573 68.0383L130.901 68.0383C135.578 68.0383 139.369 71.8296 139.369 76.5063C139.369 81.1831 135.578 84.9743 130.901 84.9743L81.8573 84.9743C77.1805 84.9743 73.3893 81.1831 73.3893 76.5063Z" fill="white"/>
<path fill-rule="evenodd" clip-rule="evenodd" d="M73.1393 76.5063C73.1393 71.6915 77.0425 67.7883 81.8573 67.7883L130.901 67.7883C135.716 67.7883 139.619 71.6915 139.619 76.5063C139.619 81.3211 135.716 85.2243 130.901 85.2243L81.8573 85.2243C77.0425 85.2243 73.1393 81.3211 73.1393 76.5063ZM81.8573 68.2883C77.3186 68.2883 73.6393 71.9677 73.6393 76.5063C73.6393 81.045 77.3186 84.7243 81.8573 84.7243L130.901 84.7243C135.44 84.7243 139.119 81.045 139.119 76.5063C139.119 71.9676 135.44 68.2883 130.901 68.2883L81.8573 68.2883Z" fill="white"/>
<path fill-rule="evenodd" clip-rule="evenodd" d="M95.9706 110.378C95.9706 105.702 99.7618 101.91 104.439 101.91L153.482 101.91C158.159 101.91 161.95 105.702 161.95 110.378C161.95 115.055 158.159 118.846 153.482 118.846L104.439 118.846C99.7618 118.846 95.9706 115.055 95.9706 110.378Z" fill="white"/>
<path fill-rule="evenodd" clip-rule="evenodd" d="M95.7206 110.378C95.7206 105.564 99.6238 101.66 104.439 101.66L153.482 101.66C158.297 101.66 162.2 105.564 162.2 110.378C162.2 115.193 158.297 119.096 153.482 119.096L104.439 119.096C99.6238 119.096 95.7206 115.193 95.7206 110.378ZM104.439 102.16C99.8999 102.16 96.2206 105.84 96.2206 110.378C96.2206 114.917 99.8999 118.596 104.439 118.596L153.482 118.596C158.021 118.596 161.7 114.917 161.7 110.378C161.7 105.84 158.021 102.16 153.482 102.16L104.439 102.16Z" fill="white"/>
<path d="M62.0986 87.797C62.0986 104.945 48.1974 118.846 31.0493 118.846C13.9012 118.846 0 104.945 0 87.797C0 70.649 13.9012 56.7477 31.0493 56.7477C48.1974 56.7477 62.0986 70.649 62.0986 87.797Z" fill="white"/>
<path fill-rule="evenodd" clip-rule="evenodd" d="M117.61 5.16496C119.133 2.58393 121.906 1 124.903 1H203.131C220.335 1 234.281 14.9465 234.281 32.1503V45.1649C234.281 58.5484 223.054 69.1928 209.689 68.4797C195.979 67.7482 185.237 56.4181 185.237 42.6884V35.5494C185.237 30.8727 189.029 27.0814 193.705 27.0814C198.382 27.0814 202.173 30.8727 202.173 35.5494V42.6884C202.173 47.4153 205.872 51.316 210.592 51.5678C214.262 51.7636 217.345 48.8404 217.345 45.1649V32.1503C217.345 24.2999 210.981 17.936 203.131 17.936H139.255L188.063 106.283C190.324 110.377 188.839 115.529 184.745 117.79C180.652 120.052 175.5 118.567 173.238 114.473L117.491 13.5628C116.042 10.9397 116.087 7.746 117.61 5.16496Z" fill="white"/>
<path fill-rule="evenodd" clip-rule="evenodd" d="M117.394 5.03793C118.962 2.38069 121.818 0.75 124.903 0.75H203.131C220.473 0.75 234.531 14.8084 234.531 32.1503V45.1649C234.531 58.6917 223.184 69.45 209.676 68.7294C195.833 67.9908 184.987 56.551 184.987 42.6884V35.5494C184.987 30.7346 188.891 26.8314 193.705 26.8314C198.52 26.8314 202.423 30.7346 202.423 35.5494V42.6884C202.423 47.2824 206.018 51.0734 210.605 51.3181C214.132 51.5063 217.095 48.6971 217.095 45.1649V32.1503C217.095 24.438 210.843 18.186 203.131 18.186H139.679L188.281 106.163C190.61 110.377 189.081 115.681 184.866 118.009C180.652 120.337 175.348 118.808 173.02 114.594L117.272 13.6837C115.78 10.9831 115.827 7.69516 117.394 5.03793ZM124.903 1.25C121.995 1.25 119.303 2.78717 117.825 5.292C116.347 7.79683 116.303 10.8962 117.71 13.4419L173.457 114.352C175.652 118.325 180.652 119.766 184.624 117.572C188.597 115.377 190.039 110.377 187.844 106.404L139.037 18.0569C138.994 17.9794 138.995 17.8851 139.04 17.8089C139.085 17.7327 139.167 17.686 139.255 17.686H203.131C211.119 17.686 217.595 24.1619 217.595 32.1503V45.1649C217.595 48.9837 214.392 52.0209 210.578 51.8174C205.725 51.5585 201.923 47.5481 201.923 42.6884V35.5494C201.923 31.0107 198.244 27.3314 193.705 27.3314C189.167 27.3314 185.487 31.0107 185.487 35.5494V42.6884C185.487 56.2852 196.125 67.5057 209.703 68.2301C222.924 68.9355 234.031 58.4051 234.031 45.1649V32.1503C234.031 15.0845 220.197 1.25 203.131 1.25H124.903Z" fill="white"/>
</svg>
