<svg width="1148" height="844" viewBox="0 0 1148 844" fill="none" xmlns="http://www.w3.org/2000/svg">
<g clip-path="url(#clip0_357_192)">
<rect width="1148" height="844" fill="#DFF6E7"/>
<path d="M1148 374.762V462.274C873.912 460.179 599.693 463.758 326 473V375.835C326.395 375.784 326.789 375.734 327.184 375.694C343.048 374.06 360.113 379.955 365.982 389.087C376.454 381.919 400.227 387.894 399.372 397.477C411.62 390.44 431.446 388.886 446.209 393.798C454.084 382.34 476.722 375.504 496.45 378.641C516.161 381.769 530.448 394.48 528.146 406.82C533.785 399.512 551.688 397.176 561.75 402.429C567.125 387.613 599.907 379.564 620.638 387.964C627.46 377.458 646.35 370.391 664.796 371.444C683.241 372.496 699.648 381.588 703.15 392.675C715.233 385.708 737.608 387.463 746.387 396.074C760.279 386.099 789.296 386.31 802.793 396.485C807.758 384.185 825.94 374.301 846.54 372.687C867.139 371.073 888.823 377.849 898.72 388.976C915.851 384.215 938.801 391.823 941.563 403.171C954.172 397.427 972.043 396.314 986.296 400.404C983.469 387.002 1010.35 375.103 1030.36 380.887C1036.87 366.712 1059.21 355.806 1083.31 355.044C1107.41 354.272 1131.49 363.695 1140.39 377.388C1142.72 376.306 1145.29 375.424 1148 374.762Z" fill="#31B15C"/>
<path d="M428.683 188C240.563 188 69.8159 188 -126.932 185.584C-130.511 172.761 -124.893 158.34 -113.137 150.083C-101.381 141.826 -84.0554 140.133 -70.498 145.936C-74.3614 112.965 -48.8347 79.139 -12.6185 69.303C23.5976 59.4671 66.5924 74.6491 84.7953 103.719C99.1585 91.9618 125.041 93.8453 136.986 107.505C137.816 84.504 173.131 68.9225 194.795 82.0307C216.197 41.4695 276.968 20.8464 324.087 38.1591C371.206 55.4719 396.851 107.848 378.649 149.57C404.175 144.338 432.309 163.667 428.683 188Z" fill="white"/>
<path d="M1218 229C1149.33 228.59 1080.65 228.194 1012 228.024C1014.62 221.491 1022.17 217.206 1029.3 218.196C1028.89 208.99 1041.27 201.976 1049.31 206.84C1053.22 195.612 1065.25 187.566 1077.44 188.018C1089.63 188.471 1100.99 197.366 1104.02 208.848C1110.32 205.2 1118.9 205.752 1124.65 210.164C1130.3 201.467 1141.13 196.206 1151.68 197.055C1162.23 197.903 1172.03 204.804 1176.14 214.279C1189.07 208.042 1205.84 210.362 1218 229Z" fill="white"/>
<path d="M-486 375.762V463.274C-211.912 461.179 62.3069 464.758 336 474V376.835C335.605 376.784 335.211 376.734 334.816 376.694C318.952 375.06 301.887 380.955 296.018 390.087C285.546 382.919 261.773 388.894 262.628 398.477C250.38 391.44 230.554 389.886 215.791 394.798C207.916 383.34 185.278 376.504 165.55 379.641C145.839 382.769 131.552 395.48 133.854 407.82C128.215 400.512 110.312 398.176 100.25 403.429C94.8745 388.613 62.0932 380.564 41.3623 388.964C34.5397 378.458 15.6502 371.391 -2.79551 372.444C-21.2412 373.496 -37.6483 382.588 -41.15 393.675C-53.2334 386.708 -75.6083 388.463 -84.3873 397.074C-98.2791 387.099 -127.296 387.31 -140.793 397.485C-145.758 385.185 -163.94 375.301 -184.54 373.687C-205.139 372.073 -226.823 378.849 -236.72 389.976C-253.851 385.215 -276.801 392.823 -279.563 404.171C-292.172 398.427 -310.043 397.314 -324.296 401.404C-321.469 388.002 -348.348 376.103 -368.355 381.887C-374.866 367.712 -397.208 356.806 -421.309 356.044C-445.41 355.272 -469.494 364.695 -478.388 378.388C-480.723 377.306 -483.287 376.424 -486 375.762Z" fill="#31B15C"/>
<path d="M1245.14 442H-226.656V861H1245.14V442Z" fill="#2C7745"/>
<g clip-path="url(#clip1_357_192)">
<path d="M865 609.13C958.888 609.13 1035 607.115 1035 604.63C1035 602.145 958.888 600.13 865 600.13C771.112 600.13 695 602.145 695 604.63C695 607.115 771.112 609.13 865 609.13Z" fill="#225332"/>
<path d="M859.98 585.34C860.93 586.77 862.18 588.04 863.72 589L863.85 589.08C874.36 579.43 885.7 565.68 891.42 555.31C890.33 554.22 889.01 553.29 887.52 552.49C882.54 549.75 875.79 548.74 870.5 549.69C867.1 552.62 865.46 556.93 862.58 562.46C861.43 567.15 859.88 570.49 858.56 574.67C857.41 578.28 857.97 582.23 859.98 585.34Z" fill="#74686E"/>
<path d="M859.98 585.34C860.93 586.77 862.18 588.04 863.72 589L863.85 589.08C874.36 579.43 885.7 565.68 891.42 555.31C890.33 554.22 889.01 553.29 887.52 552.49C879.13 564.06 869.92 575.05 859.98 585.34Z" fill="#B7A6B3"/>
<path d="M886.47 494.72C883.75 514.34 882 534.1 881.25 553.92C876.77 555.35 872.29 556.78 865.56 556.72C864.5 528.44 861.09 500.25 855.36 472.59C852.83 461.25 851.01 449.82 849.81 438.35C848.51 425.97 847.93 413.54 847.97 401.11C859.08 389.22 871.24 377.87 883.39 366.52C886.81 375.44 886.45 387.13 884.13 397.36C883.54 408.79 882.95 420.22 882.36 431.76C881.8 442.63 881.23 453.59 880.66 464.76C882.14 470.03 883.61 475.3 885.29 480.71C886.7 485.24 887.12 490.03 886.47 494.72Z" fill="#FBB097"/>
<path d="M884.13 397.36C883.54 408.79 882.95 420.22 882.36 431.76C871.81 435.2 860.86 437.41 849.81 438.35C848.51 425.97 847.93 413.54 847.97 401.11C859.08 389.22 871.24 377.87 883.39 366.52C886.81 375.44 886.45 387.13 884.13 397.36Z" fill="#524A57"/>
<path d="M884.8 576.12L968.95 569.34" stroke="#B8C7CF" stroke-miterlimit="10"/>
<path d="M880.79 532.53L969.98 531.18" stroke="#B8C7CF" stroke-miterlimit="10"/>
<path d="M903.47 543.19C897.43 532.35 883.72 528.44 872.87 534.5C862.01 540.55 858.13 554.26 864.18 565.1C870.23 575.96 883.93 579.85 894.78 573.79C905.63 567.73 909.52 554.04 903.47 543.19ZM869.09 562.36C864.55 554.22 867.47 543.94 875.61 539.41C883.75 534.87 894.03 537.79 898.56 545.93C903.1 554.07 900.18 564.35 892.04 568.88C883.9 573.42 873.62 570.5 869.09 562.36Z" fill="#47535E"/>
<path d="M883.82 559.41C886.73 559.41 889.09 557.051 889.09 554.14C889.09 551.23 886.73 548.87 883.82 548.87C880.909 548.87 878.55 551.23 878.55 554.14C878.55 557.051 880.909 559.41 883.82 559.41Z" fill="#47535E"/>
<path d="M897.421 543.697L880.18 553.309L882.629 557.703L899.871 548.091L897.421 543.697Z" fill="#47535E"/>
<path d="M867.665 544.955L865.855 549.648L884.273 556.751L886.083 552.058L867.665 544.955Z" fill="#47535E"/>
<path d="M886.566 555.861L881.538 555.994L882.061 575.727L887.089 575.594L886.566 555.861Z" fill="#47535E"/>
<path d="M969.01 542.49L957.47 554.75C955.98 556.33 955.95 558.8 957.4 560.42L965.26 569.2C966.57 570.66 968.86 570.65 970.15 569.18C971.25 567.92 971.23 566.04 970.1 564.81L966.5 560.89C965.01 559.27 965.03 556.77 966.54 555.17L972.85 548.51" fill="#47535E"/>
<path d="M969.98 528.29C962.79 528.29 956.95 534.12 956.95 541.32C956.95 548.52 962.79 554.35 969.98 554.35C977.17 554.35 983.01 548.51 983.01 541.32C983.01 534.13 977.18 528.29 969.98 528.29ZM969.98 550.32C965.01 550.32 960.98 546.29 960.98 541.32C960.98 536.35 965.01 532.32 969.98 532.32C974.95 532.32 978.98 536.35 978.98 541.32C978.98 546.29 974.95 550.32 969.98 550.32Z" fill="#B8C7CF"/>
<path d="M969.66 551.55C975.288 551.55 979.85 546.988 979.85 541.36C979.85 535.732 975.288 531.17 969.66 531.17C964.032 531.17 959.47 535.732 959.47 541.36C959.47 546.988 964.032 551.55 969.66 551.55Z" fill="#3A4352"/>
<path d="M972.09 473.63C935.91 473.63 906.59 502.96 906.59 539.13C906.59 575.3 935.91 604.63 972.09 604.63C1008.27 604.63 1037.59 575.31 1037.59 539.13C1037.59 502.95 1008.26 473.63 972.09 473.63ZM972.09 593.63C941.99 593.63 917.59 569.23 917.59 539.13C917.59 509.03 941.99 484.63 972.09 484.63C1002.19 484.63 1026.59 509.03 1026.59 539.13C1026.59 569.23 1002.19 593.63 972.09 593.63Z" fill="#A88F6C"/>
<path d="M972.09 477.63C938.12 477.63 910.59 505.17 910.59 539.13C910.59 573.09 938.12 600.63 972.09 600.63C1006.06 600.63 1033.59 573.1 1033.59 539.13C1033.59 505.16 1006.06 477.63 972.09 477.63ZM972.09 593.63C941.99 593.63 917.59 569.23 917.59 539.13C917.59 509.03 941.99 484.63 972.09 484.63C1002.19 484.63 1026.59 509.03 1026.59 539.13C1026.59 569.23 1002.19 593.63 972.09 593.63Z" fill="#3A4352"/>
<path d="M753.5 473.63C717.32 473.63 688 502.96 688 539.13C688 575.3 717.32 604.63 753.5 604.63C789.68 604.63 819 575.31 819 539.13C819 502.95 789.67 473.63 753.5 473.63ZM753.5 593.63C723.4 593.63 699 569.23 699 539.13C699 509.03 723.4 484.63 753.5 484.63C783.6 484.63 808 509.03 808 539.13C808 569.23 783.6 593.63 753.5 593.63Z" fill="#A88F6C"/>
<path d="M753.5 477.63C719.53 477.63 692 505.17 692 539.13C692 573.09 719.53 600.63 753.5 600.63C787.47 600.63 815 573.1 815 539.13C815 505.16 787.47 477.63 753.5 477.63ZM753.5 593.63C723.4 593.63 699 569.23 699 539.13C699 509.03 723.4 484.63 753.5 484.63C783.6 484.63 808 509.03 808 539.13C808 569.23 783.6 593.63 753.5 593.63Z" fill="#3A4352"/>
<path d="M902.84 452.59L783.84 442.32L782.39 446.68L901.92 457.73L902.84 452.59Z" fill="#39314A"/>
<path d="M778.81 456.06L882.23 559.34L884.8 545.25L783.72 445.81L778.81 456.06Z" fill="#298E4B"/>
<path d="M774.06 438.51C775.36 430.93 776.19 425.67 777.18 417.56C781.5 417.43 785.74 417.98 789.9 418.89C788.6 426.45 787.96 431.7 786.57 439.78C783.1 439.08 777.43 439.6 774.06 438.51Z" fill="#39314A"/>
<path d="M779.71 418.81C769.99 417.62 760.26 416.43 750.27 415.41C745.8 414.95 741.47 417.27 739.46 421.29C739.22 421.76 738.99 422.25 738.77 422.73C736.79 427.09 737.89 432.19 741.44 435.41C745 438.63 749.07 441.36 753.61 443.47C755.78 444.48 758.36 443.61 759.45 441.48C759.51 441.36 759.57 441.25 759.63 441.13C760.73 438.97 759.88 436.35 757.75 435.18C753.91 433.08 750.72 430.59 747.29 427.5C746.86 427.11 746.73 426.47 746.97 425.94C746.97 425.93 746.98 425.92 746.98 425.92C747.22 425.4 747.76 425.09 748.32 425.14C758.46 426.04 768.11 427.84 778.16 429.63C778.44 427.13 779.22 422.14 779.71 418.81Z" fill="#39314A"/>
<path d="M924.21 397.4L911.12 410.41C909.82 411.71 908.92 413.36 908.55 415.17L907.23 421.63L880.85 556.85C880.81 557.06 880.78 557.27 880.79 557.48C880.83 558.65 881.67 559.69 882.87 559.94C884.28 560.23 885.67 559.32 885.96 557.91L913.93 417.22C914.29 415.39 915.19 413.72 916.51 412.41L928.46 400.54C927.04 399.49 925.62 398.44 924.21 397.4Z" fill="#39314A"/>
<path d="M754.11 555.74C761.306 555.74 767.14 549.906 767.14 542.71C767.14 535.514 761.306 529.68 754.11 529.68C746.914 529.68 741.08 535.514 741.08 542.71C741.08 549.906 746.914 555.74 754.11 555.74Z" fill="#B8C7CF"/>
<path d="M747.54 540.04L774.36 435.45L786.94 438.35L760.04 543.23C759.2 546.52 755.8 548.51 752.38 547.72C748.85 546.91 746.67 543.44 747.54 540.04Z" fill="#298E4B"/>
<path d="M899.43 389.21C919.07 389.21 931.96 389.16 949 391.52C951.12 391.81 952.28 394.09 950.98 395.79C949.65 397.53 948.15 399.17 946.48 400.66C941.51 405.1 934.52 406.51 928.13 404.6C921.62 402.65 915.26 400.34 909.16 397.65C905.72 396.14 901.92 395.67 898.24 396.4C897.98 396.45 897.71 396.5 897.45 396.56C893.78 397.29 891.74 392.4 894.88 390.37C894.93 390.34 894.97 390.31 895.02 390.28C896.32 389.47 897.88 389.21 899.43 389.21Z" fill="#564C39"/>
<path d="M902.641 461.98L975.861 541.37C976.921 542.52 976.951 544.29 975.921 545.47C974.721 546.85 972.591 546.88 971.351 545.54L900.541 469.04L902.641 461.98Z" fill="#39314A"/>
<path d="M883.82 559.23L974.36 546.43L968.25 536.73L886.99 548.97L883.82 559.23Z" fill="#39314A"/>
<path d="M875.96 391.49C866.63 400.97 856.51 409.83 846.14 418.56C845.46 419.14 844.78 419.72 844.09 420.29L839.23 424.34C835.97 427.06 832.69 429.78 829.41 432.5C821.03 439.47 808.79 439.52 800.52 432.43C800.41 432.34 800.31 432.24 800.2 432.15C794.89 427.54 794.03 419.62 798 413.82C801.26 409.04 804.76 404.53 808.42 400.25C809.65 398.81 810.89 397.4 812.15 396.01C813.14 394.92 814.14 393.84 815.16 392.77C820.35 387.27 825.75 382.12 831.14 377.24C832.31 372.81 832.15 367.45 833 362.92C842.22 354.42 858.98 346.12 874.8 341.17C877.17 343.8 879.22 346.52 880.94 349.3C889.27 362.79 887.09 380.19 875.96 391.49Z" fill="#443B4A"/>
<path d="M844.09 420.29L839.23 424.34C835.97 427.06 832.69 429.78 829.41 432.5C821.03 439.47 808.79 439.52 800.52 432.43C800.41 432.34 800.31 432.24 800.2 432.15C794.89 427.54 794.03 419.62 798 413.82C801.26 409.04 804.76 404.53 808.42 400.25C809.65 398.81 810.89 397.4 812.15 396.01C825.46 399.33 837.28 408.37 844.09 420.29Z" fill="#FFBA98"/>
<path d="M833.4 376.98C840.16 372.67 848.79 371.41 856.49 373.62" stroke="#2B2633" stroke-linecap="round" stroke-linejoin="round"/>
<path d="M839.74 370.82C844.93 368.41 850.43 366.7 856.07 365.74" stroke="#2B2633" stroke-linecap="round" stroke-linejoin="round"/>
<path d="M778.1 332.91C771.96 328.46 764.39 326 756.81 325.98C751.83 328.71 746.71 331.4 741.36 333.38C739.36 334.12 737.09 333.53 735.73 331.9C732.71 328.28 730.37 324.44 728.49 320.39C726.25 320.21 724.4 319.89 722.56 319.58C722.91 317.71 723.26 315.73 723.49 313.71C723.79 311.12 723.22 308.49 721.84 306.28C720.1 303.48 718.83 300.44 718.13 297.26C716.24 288.74 720.16 280.03 727.59 275.44C730.07 273.91 732.71 272.59 735.49 271.5C744.86 267.84 755.68 271.24 760.97 279.8C761.04 279.92 761.11 280.03 761.18 280.15C762.78 282.8 763.52 285.84 763.71 288.92C763.97 293.13 766.42 296.48 768.86 300.33C773.36 302.2 777.69 303.01 783.21 303.94C781.47 313.35 778.75 324.75 778.1 332.91Z" fill="#FFBA98"/>
<path d="M732.24 294.58C739.83 302.03 750.63 306.06 760.97 305.39C762.65 305.28 764.29 304.77 765.72 303.88C767.24 302.93 768.77 301.73 770.32 300.43C768.93 294.81 764.15 290.11 761.79 286.44C750.58 285.36 741.32 286.72 732.24 294.58Z" fill="#3F2136"/>
<path d="M735.42 294.77C739.46 301.85 745.32 307.87 752.29 312.11C756.72 304.78 760.34 295.4 763.2 287.2C764.39 288.65 765.97 291.07 766.89 293.17C763.9 302.17 758.58 311.36 752.85 319.5C743.38 314.66 735.33 307.07 729.93 297.9C731.54 296.9 733.16 295.9 735.42 294.77Z" fill="#6C6175"/>
<path d="M767.65 282.43C766.43 285.36 764.64 288.05 762.64 290.21C756.75 290.92 750.75 290.76 744.91 289.71C742.84 291.44 740.94 292.96 739.06 294.32C736.57 296.12 733.79 297.47 730.83 298.31C724.88 299.99 718.89 300.76 713.15 300.31C712.82 297.83 712.73 295.21 712.89 292.57C713.52 282.24 719.76 273.07 728.94 268.29C732.73 266.32 736.75 264.76 740.98 263.62C742.92 263.1 744.91 262.84 746.89 262.84C750.35 262.85 753.78 263.68 756.85 265.39C757.06 265.51 757.27 265.63 757.47 265.75C760.85 267.73 763.46 270.77 765.01 274.37C765.06 274.48 765.1 274.58 765.14 274.69C766.2 277.21 767.05 279.81 767.65 282.43Z" fill="#52485C"/>
<path d="M765.14 274.69C764.11 277.49 762.98 280.28 761.57 282.9C755.76 282.75 750.02 281.7 744.45 280.06C744.59 274.51 745.43 268.62 746.89 262.84C750.35 262.85 753.78 263.68 756.85 265.39C757.06 265.51 757.27 265.63 757.47 265.75C760.85 267.73 763.46 270.77 765.01 274.37C765.06 274.48 765.1 274.58 765.14 274.69Z" fill="#6C6175"/>
<path d="M724.73 288.8C726.75 285.21 728.98 281.74 731.18 278.65C734.34 276.09 737.51 273.52 741.08 270.59C740.23 273.65 739.12 276.63 738.07 279.24C733.85 282.65 729.41 285.8 724.73 288.8Z" fill="#39314A"/>
<path d="M714.98 293.08C716.63 292.23 718.28 291.39 719.65 290.53C721.41 286.3 723.17 282.06 724.93 277.83C720.81 282.18 717.45 287.24 714.98 293.08Z" fill="#39314A"/>
<path d="M718.24 297.9C719.65 297.07 720.92 295.99 722.19 294.58C724.06 295.27 726.06 295.59 728.06 295.53C725.33 297.59 721.76 298.48 718.24 297.9Z" fill="#39314A"/>
<path d="M751.75 268.93C751.4 271.3 751.06 273.67 750.71 276.05C752.57 276.93 754.42 277.81 756.2 278.93C756.87 276.73 757.54 274.53 758.21 272.33C756.02 271.45 753.83 270.57 751.75 268.93Z" fill="#39314A"/>
<path d="M753.44 306.3C754.36 304.25 754.92 301.98 754.68 299.74C754.44 297.5 753.31 295.3 751.42 294.08C749.53 292.86 746.85 292.81 745.1 294.22C743.91 295.18 743.25 296.68 743.09 298.2C742.93 299.72 743.21 301.25 743.67 302.7" fill="#FFBA98"/>
<path d="M750.04 330.09C750.38 322.91 750.69 317.02 749.71 309.97C751.26 309.45 752.81 308.94 754.52 308.88C755.73 315.04 756.17 320.12 756.05 326.39C754.29 327.73 752.08 328.86 750.04 330.09Z" fill="#7D7285"/>
<path d="M878.09 344.43C859.12 351.27 843.22 362.66 831.14 377.24C829.77 374.12 828.51 369.9 827.45 367.15C823.02 365.98 817.91 363.72 812.61 360.69C807.3 357.67 801.81 353.88 796.61 349.65C795.04 348.38 793.5 347.08 792 345.73H791.99C785.37 339.8 779.54 333.3 775.65 327C774.79 325.61 774.03 324.24 773.37 322.88C771.48 318.96 770.28 315.83 771.7 312.43V312.41C771.95 311.79 772.29 311.15 772.74 310.51C772.77 310.46 772.8 310.42 772.83 310.38C773.78 309.02 774.79 307.7 775.85 306.42C776.19 306 776.55 305.6 776.93 305.21C782.62 299.2 791.16 296.73 799.24 298.92C802.85 299.9 806.49 300.94 810.16 302.02C815.1 303.47 820.1 304.99 825.17 306.5C825.88 306.72 826.58 306.93 827.29 307.14C833.46 308.97 839.34 311.62 844.78 315.02C847.99 317.02 851.04 319.29 853.89 321.8C854.31 322.17 854.73 322.54 855.15 322.92C862.92 329.79 870.63 336.97 878.07 344.43H878.09Z" fill="#31B15C"/>
<path d="M837.28 330.46C836.39 340.54 833.63 350.46 829.19 359.56" stroke="#31B15C" stroke-linecap="round" stroke-linejoin="round"/>
<path d="M831.49 362.15C838.78 358.13 845.21 352.56 850.22 345.92" stroke="#31B15C" stroke-linecap="round" stroke-linejoin="round"/>
<path d="M870.31 524.82C871.76 526.3 873.53 527.5 875.59 528.23L875.76 528.29C886.41 513.39 897.21 493.22 901.92 478.82C900.37 477.8 898.58 477.03 896.63 476.49C890.04 474.57 881.69 475.27 875.51 477.98C872.02 482.57 872.31 483.38 870 491C869.6 497.09 867.08 506.6 866.36 512.12C865.73 516.88 867.23 521.58 870.31 524.82Z" fill="#443B4A"/>
<path d="M870.311 524.82C871.761 526.3 873.531 527.5 875.591 528.23L875.761 528.29C886.411 513.39 897.211 493.22 901.921 478.82C900.371 477.8 898.581 477.03 896.631 476.49C888.941 493.13 880.141 509.3 870.311 524.82Z" fill="#9E8FA6"/>
<path d="M881.39 477.24C879.61 482.91 876.1 491.98 871.45 495.03C863.51 487.09 855.34 479.43 847.12 472.05C831.04 457.58 814.76 444.15 799.59 431.58C801.59 425.92 802.99 420.7 804.28 415.32C814.9 417.82 826.81 421.32 838.75 424.76C847.5 427.28 851.84 435.25 856.15 443.27C857.96 446.65 859.84 449.88 861.83 452.99C867.32 461.66 873.61 469.46 881.39 477.24Z" fill="#FFBA98"/>
<path d="M881.39 477.24C879.61 482.91 876.1 491.98 871.45 495.03C863.51 487.09 855.34 479.43 847.12 472.05C852.08 465.86 857.03 459.6 861.83 452.99C867.32 461.66 873.61 469.46 881.39 477.24Z" fill="white"/>
<path d="M780.4 343.65C781.93 347.39 783.46 351.14 784.97 354.93C785.87 357.18 786.77 359.46 787.66 361.75C790.3 359.97 793.55 359.2 796.96 359.26C800.35 358.39 804.03 358.36 807.71 359.19C809.65 359.63 811.42 360.57 812.94 361.84C812.83 361.46 812.72 361.07 812.62 360.69C811.4 356.37 810.23 352.1 809.08 347.87C808.94 347.35 808.8 346.82 808.66 346.3C807.05 340.35 805.49 334.47 803.94 328.6C803.77 327.93 803.59 327.28 803.42 326.62C803.31 326.52 803.19 326.42 803.08 326.33C798.34 322.26 793.58 319.06 788.59 316.28C784.92 314.09 780.98 312.06 776.94 309.75C776.27 309.37 775.59 308.98 774.92 308.58C774.15 309.36 773.41 310.18 772.74 311.05C772.38 311.5 772.04 311.95 771.73 312.41C771.72 312.41 771.72 312.42 771.72 312.43C770.62 314.01 769.69 315.75 768.98 317.68C769.61 325.16 772.67 332.42 777.49 338.64C778.67 340.17 779.67 341.85 780.41 343.65H780.4Z" fill="#31B15C"/>
<path d="M789 352.65C787.62 353.35 786.28 354.11 784.97 354.93C787.11 360.27 789.23 365.69 791.28 371.26C783.87 382.97 772.68 394.24 761.55 402.48C763.69 407.67 765.04 411.62 768.3 415.32C783.36 405.55 800.79 392.84 813.23 379.9C815.56 377.47 816.42 373.97 815.48 370.74C814.49 367.35 813.54 364.01 812.61 360.69C811.39 356.37 810.22 352.1 809.07 347.87C804.8 347.85 800.62 348.47 796.61 349.65C795.86 349.87 795.11 350.11 794.37 350.38" fill="#FFBA98"/>
<path d="M794.37 350.38C792.53 351.02 790.74 351.78 789 352.65C786.96 347.67 784.79 342.54 782.91 337.49C779.84 334.51 777.38 330.91 775.65 327C773.44 322.01 772.39 316.5 772.72 311.06C772.73 310.87 772.74 310.69 772.75 310.51V310.49L772.86 310.35L776.94 305.21C776.8 306.71 776.79 308.23 776.92 309.74C777.13 312.89 777.82 315.99 778.86 318.96C780.94 324.89 784.29 330.28 787.82 335.47C789.08 339.01 790.44 342.43 791.99 345.72H792C792.74 347.31 793.52 348.86 794.37 350.38Z" fill="white"/>
<path d="M825.18 306.5C821.74 307.31 818.49 308.89 815.76 311.12C812.67 309.29 809.38 307.47 806.09 305.65C807.24 304.14 808.63 302.94 810.17 302.02C815.11 303.47 820.11 304.99 825.18 306.5Z" fill="white"/>
<path d="M855.17 322.92C853.44 325.16 851.71 327.41 849.97 329.65C847.11 326.68 843.94 324.02 840.53 321.73C841.95 319.49 843.37 317.26 844.8 315.02C848.01 317.02 851.06 319.29 853.91 321.8C854.33 322.17 854.75 322.54 855.17 322.92Z" fill="white"/>
<path d="M738.99 434.67C739.02 434.8 739.06 434.93 739.09 435.06C739.39 436.16 741.78 437.18 742.87 437.18C746.1 437.18 746.16 431.22 749.6 427.25C758.02 426.27 765.86 421.11 770.08 413.75C768 408.89 766.05 404.82 763.85 400.88C755.3 403.35 746.92 405.94 738.79 408.45C737.94 408.71 737.14 409.11 736.41 409.62C733.68 411.54 730.93 413.46 727.98 415.4C725.73 416.88 724.52 419.52 724.9 422.18C725.21 424.28 725.54 426.44 725.95 428.74C726.29 430.62 727.9 432.01 729.82 432.08C730.41 432.1 731.06 432.12 731.8 432.15C731.88 432.53 731.96 432.91 732.06 433.33C732.31 434.4 733.21 435.22 734.31 435.28C735.85 435.35 737.41 435.16 738.99 434.67Z" fill="#FFBA98"/>
<path d="M739.17 433.98C738.99 433.13 738.86 432.27 738.78 431.39C738.41 427.25 740.32 423.15 743.87 421C743.89 420.99 743.91 420.97 743.93 420.96" stroke="#CB5144" stroke-linecap="round" stroke-linejoin="round"/>
<path d="M731.93 430.89C731.88 429.77 731.83 428.64 731.77 427.46C731.61 424.14 732.69 420.84 734.92 418.37C735.41 417.83 735.92 417.32 736.46 416.84" stroke="#CB5144" stroke-linecap="round" stroke-linejoin="round"/>
<path d="M801.57 322.7C804.93 330.46 807.35 338.62 808.76 346.96" stroke="#31B15C" stroke-linecap="round" stroke-linejoin="round"/>
<path d="M810.83 331.52C810.7 335.81 809.81 340.08 808.22 344.06" stroke="#31B15C" stroke-linecap="round" stroke-linejoin="round"/>
<path d="M881.91 525.44C879.3 523.93 878.41 520.59 879.93 517.98L893.48 494.61C894.99 492 898.33 491.11 900.94 492.63C903.55 494.14 904.44 497.48 902.92 500.09L889.37 523.46C887.85 526.07 884.51 526.95 881.91 525.44Z" fill="#2C3440"/>
<path d="M881.38 553.34L888.99 508.6C889.32 506.67 891.15 505.37 893.08 505.7C895.01 506.03 896.31 507.86 895.98 509.79L888.37 554.53C888.04 556.46 886.21 557.76 884.28 557.43C882.35 557.11 881.05 555.28 881.38 553.34Z" fill="#B8C7CF"/>
<path d="M771.48 274C780.94 273.77 790.4 273.68 799.86 273.51L828.24 273.23C847.16 273.07 866.07 273.08 884.99 273C903.91 273.08 922.82 273.07 941.74 273.23L970.12 273.51C979.58 273.68 989.04 273.77 998.5 274C989.04 274.23 979.58 274.32 970.12 274.49L941.74 274.77C922.82 274.93 903.91 274.92 884.99 275C866.07 274.92 847.16 274.93 828.24 274.77L799.86 274.49C790.39 274.32 780.94 274.23 771.48 274Z" fill="white"/>
<path d="M875.48 287.5C886.9 287.11 898.31 286.85 909.73 286.72C921.15 286.56 932.56 286.52 943.98 286.5C955.4 286.52 966.81 286.56 978.23 286.72C989.65 286.85 1001.06 287.11 1012.48 287.5C1001.06 287.89 989.65 288.15 978.23 288.28C966.81 288.44 955.4 288.48 943.98 288.5C932.56 288.48 921.15 288.44 909.73 288.28C898.31 288.15 886.89 287.89 875.48 287.5Z" fill="white"/>
<path d="M776.94 257C788.36 256.61 799.77 256.35 811.19 256.22C822.61 256.06 834.02 256.02 845.44 256C856.86 256.02 868.27 256.06 879.69 256.22C891.11 256.35 902.52 256.61 913.94 257C902.52 257.39 891.11 257.65 879.69 257.78C868.27 257.94 856.86 257.98 845.44 258C834.02 257.98 822.61 257.94 811.19 257.78C799.77 257.65 788.35 257.39 776.94 257Z" fill="white"/>
<path d="M875.48 324.5C883.98 324.27 892.48 324.18 900.98 324.01L926.48 323.73C943.48 323.57 960.48 323.58 977.48 323.5C994.48 323.58 1011.48 323.57 1028.48 323.73L1053.98 324.01C1062.48 324.18 1070.98 324.27 1079.48 324.5C1070.98 324.73 1062.48 324.82 1053.98 324.99L1028.48 325.27C1011.48 325.43 994.48 325.42 977.48 325.5C960.48 325.42 943.48 325.43 926.48 325.27L900.98 324.99C892.48 324.82 883.98 324.73 875.48 324.5Z" fill="white"/>
<path d="M903.48 334.5C910.02 334.27 916.56 334.18 923.1 334.01L942.72 333.73C955.8 333.57 968.89 333.58 981.97 333.5C995.05 333.58 1008.14 333.57 1021.22 333.73L1040.84 334.01C1047.38 334.18 1053.92 334.27 1060.46 334.5C1053.92 334.73 1047.38 334.82 1040.84 334.99L1021.22 335.27C1008.14 335.43 995.05 335.42 981.97 335.5C968.89 335.42 955.8 335.43 942.72 335.27L923.1 334.99C916.56 334.82 910.02 334.73 903.48 334.5Z" fill="white"/>
<path d="M893.48 365.62C904.9 365.23 916.31 364.97 927.73 364.84C939.15 364.68 950.56 364.64 961.98 364.62C973.4 364.64 984.81 364.68 996.23 364.84C1007.65 364.97 1019.06 365.23 1030.48 365.62C1019.06 366.01 1007.65 366.27 996.23 366.4C984.81 366.56 973.4 366.6 961.98 366.62C950.56 366.6 939.15 366.56 927.73 366.4C916.31 366.26 904.89 366 893.48 365.62Z" fill="white"/>
<path d="M938.5 418.73C950.25 418.34 962 418.08 973.74 417.95C985.49 417.79 997.24 417.75 1008.98 417.73C1020.73 417.75 1032.48 417.79 1044.22 417.95C1055.97 418.08 1067.72 418.34 1079.46 418.73C1067.71 419.12 1055.96 419.38 1044.22 419.51C1032.47 419.67 1020.72 419.71 1008.98 419.73C997.23 419.71 985.48 419.67 973.74 419.51C962 419.38 950.25 419.12 938.5 418.73Z" fill="white"/>
<path d="M1008.99 438.73C1014.86 438.34 1020.74 438.08 1026.61 437.95C1032.48 437.79 1038.36 437.75 1044.23 437.73C1050.1 437.75 1055.98 437.79 1061.85 437.95C1067.72 438.08 1073.6 438.34 1079.47 438.73C1073.6 439.12 1067.72 439.38 1061.85 439.51C1055.98 439.67 1050.1 439.71 1044.23 439.73C1038.36 439.71 1032.48 439.67 1026.61 439.51C1020.74 439.38 1014.86 439.12 1008.99 438.73Z" fill="white"/>
<path d="M929.98 463.73C941.63 463.34 953.29 463.08 964.94 462.95C976.59 462.79 988.25 462.75 999.9 462.73C1011.55 462.75 1023.21 462.79 1034.86 462.95C1046.51 463.08 1058.17 463.34 1069.82 463.73C1058.17 464.12 1046.51 464.38 1034.86 464.51C1023.21 464.67 1011.55 464.71 999.9 464.73C988.25 464.71 976.59 464.67 964.94 464.51C953.28 464.38 941.63 464.12 929.98 463.73Z" fill="white"/>
</g>
</g>
<defs>
<clipPath id="clip0_357_192">
<rect width="1148" height="844" fill="white"/>
</clipPath>
<clipPath id="clip1_357_192">
<rect width="391.48" height="353.13" fill="white" transform="translate(688 256)"/>
</clipPath>
</defs>
</svg>
