<svg width="1148" height="715" viewBox="0 0 1148 715" fill="none" xmlns="http://www.w3.org/2000/svg">
<g clip-path="url(#clip0_357_192)">
<rect width="1148" height="715" fill="#DFF6E7"/>
<path d="M1148 459.762V547.274C873.912 545.179 599.693 548.758 326 558V460.835C326.395 460.784 326.789 460.734 327.184 460.694C343.048 459.06 360.113 464.955 365.982 474.087C376.454 466.919 400.227 472.894 399.372 482.477C411.62 475.44 431.446 473.886 446.209 478.798C454.084 467.34 476.722 460.504 496.45 463.641C516.161 466.769 530.448 479.48 528.146 491.82C533.785 484.512 551.688 482.176 561.75 487.429C567.125 472.613 599.907 464.564 620.638 472.964C627.46 462.458 646.35 455.391 664.796 456.444C683.241 457.496 699.648 466.588 703.15 477.675C715.233 470.708 737.608 472.463 746.387 481.074C760.279 471.099 789.296 471.31 802.793 481.485C807.758 469.185 825.94 459.301 846.54 457.687C867.139 456.073 888.823 462.849 898.72 473.976C915.851 469.215 938.801 476.823 941.563 488.171C954.172 482.427 972.043 481.314 986.296 485.404C983.469 472.002 1010.35 460.103 1030.36 465.887C1036.87 451.712 1059.21 440.806 1083.31 440.044C1107.41 439.272 1131.49 448.695 1140.39 462.388C1142.72 461.306 1145.29 460.424 1148 459.762Z" fill="#188E40"/>
<path d="M403.711 188C232.14 188 76.4137 188 -103.026 185.832C-106.29 174.324 -101.167 161.382 -90.4448 153.972C-79.723 146.562 -63.9212 145.043 -51.5565 150.25C-55.08 120.661 -31.799 90.3042 1.23121 81.4771C34.2614 72.65 73.4739 86.2748 90.0754 112.363C103.175 101.812 126.78 103.502 137.675 115.761C138.432 95.119 170.64 81.1356 190.398 92.8994C209.918 56.4982 265.343 37.9903 308.317 53.5274C351.29 69.0645 374.68 116.068 358.078 153.511C381.359 148.816 407.018 166.163 403.711 188Z" fill="white"/>
<path d="M1218 229C1149.33 228.59 1080.65 228.194 1012 228.024C1014.62 221.491 1022.17 217.206 1029.3 218.196C1028.89 208.99 1041.27 201.976 1049.31 206.84C1053.22 195.612 1065.25 187.566 1077.44 188.018C1089.63 188.471 1100.99 197.366 1104.02 208.848C1110.32 205.2 1118.9 205.752 1124.65 210.164C1130.3 201.467 1141.13 196.206 1151.68 197.055C1162.23 197.903 1172.03 204.804 1176.14 214.279C1189.07 208.042 1205.84 210.362 1218 229Z" fill="white"/>
<path d="M-450 459.762V547.274C-189.25 545.179 71.6253 548.758 332 558V460.835C331.625 460.784 331.249 460.734 330.874 460.694C315.781 459.06 299.547 464.955 293.964 474.087C284.001 466.919 261.385 472.894 262.199 482.477C250.547 475.44 231.685 473.886 217.64 478.798C210.149 467.34 188.612 460.504 169.844 463.641C151.092 466.769 137.501 479.48 139.691 491.82C134.326 484.512 117.294 482.176 107.722 487.429C102.608 472.613 71.422 464.564 51.6999 472.964C45.2093 462.458 27.239 455.391 9.6909 456.444C-7.85718 457.496 -23.4659 466.588 -26.7972 477.675C-38.2926 470.708 -59.5787 472.463 -67.9305 481.074C-81.1463 471.099 -108.751 471.31 -121.591 481.485C-126.315 469.185 -143.612 459.301 -163.209 457.687C-182.806 456.073 -203.435 462.849 -212.851 473.976C-229.148 469.215 -250.981 476.823 -253.609 488.171C-265.604 482.427 -282.605 481.314 -296.165 485.404C-293.475 472.002 -319.046 460.103 -338.08 465.887C-344.274 451.712 -365.528 440.806 -388.457 440.044C-411.385 439.272 -434.297 448.695 -442.759 462.388C-444.98 461.306 -447.419 460.424 -450 459.762Z" fill="#188E40"/>
<path d="M1245.14 532H-226.656V951H1245.14V532Z" fill="#2C7745"/>
<g clip-path="url(#clip1_357_192)">
<path d="M798 572.13C891.888 572.13 968 570.115 968 567.63C968 565.145 891.888 563.13 798 563.13C704.112 563.13 628 565.145 628 567.63C628 570.115 704.112 572.13 798 572.13Z" fill="#225332"/>
<path d="M792.98 548.34C793.93 549.77 795.18 551.04 796.72 552L796.85 552.08C807.36 542.43 818.7 528.68 824.42 518.31C823.33 517.22 822.01 516.29 820.52 515.49C815.54 512.75 808.79 511.74 803.5 512.69C800.1 515.62 798.46 519.93 795.58 525.46C794.43 530.15 792.88 533.49 791.56 537.67C790.41 541.28 790.97 545.23 792.98 548.34Z" fill="#74686E"/>
<path d="M792.98 548.34C793.93 549.77 795.18 551.04 796.72 552L796.85 552.08C807.36 542.43 818.7 528.68 824.42 518.31C823.33 517.22 822.01 516.29 820.52 515.49C812.13 527.06 802.92 538.05 792.98 548.34Z" fill="#B7A6B3"/>
<path d="M819.47 457.72C816.75 477.34 815 497.1 814.25 516.92C809.77 518.35 805.29 519.78 798.56 519.72C797.5 491.44 794.09 463.25 788.36 435.59C785.83 424.25 784.01 412.82 782.81 401.35C781.51 388.97 780.93 376.54 780.97 364.11C792.08 352.22 804.24 340.87 816.39 329.52C819.81 338.44 819.45 350.13 817.13 360.36C816.54 371.79 815.95 383.22 815.36 394.76C814.8 405.63 814.23 416.59 813.66 427.76C815.14 433.03 816.61 438.3 818.29 443.71C819.7 448.24 820.12 453.03 819.47 457.72Z" fill="#FBB097"/>
<path d="M817.13 360.36C816.54 371.79 815.95 383.22 815.36 394.76C804.81 398.2 793.86 400.41 782.81 401.35C781.51 388.97 780.93 376.54 780.97 364.11C792.08 352.22 804.24 340.87 816.39 329.52C819.81 338.44 819.45 350.13 817.13 360.36Z" fill="#524A57"/>
<path d="M817.8 539.12L901.95 532.34" stroke="#B8C7CF" stroke-miterlimit="10"/>
<path d="M813.79 495.53L902.98 494.18" stroke="#B8C7CF" stroke-miterlimit="10"/>
<path d="M836.47 506.19C830.43 495.35 816.72 491.44 805.87 497.5C795.01 503.55 791.13 517.26 797.18 528.1C803.23 538.96 816.93 542.85 827.78 536.79C838.63 530.73 842.52 517.04 836.47 506.19ZM802.09 525.36C797.55 517.22 800.47 506.94 808.61 502.41C816.75 497.87 827.03 500.79 831.56 508.93C836.1 517.07 833.18 527.35 825.04 531.88C816.9 536.42 806.62 533.5 802.09 525.36Z" fill="#47535E"/>
<path d="M816.82 522.41C819.73 522.41 822.09 520.051 822.09 517.14C822.09 514.23 819.73 511.87 816.82 511.87C813.909 511.87 811.55 514.23 811.55 517.14C811.55 520.051 813.909 522.41 816.82 522.41Z" fill="#47535E"/>
<path d="M830.421 506.697L813.18 516.309L815.629 520.703L832.871 511.091L830.421 506.697Z" fill="#47535E"/>
<path d="M800.665 507.955L798.855 512.648L817.273 519.751L819.083 515.058L800.665 507.955Z" fill="#47535E"/>
<path d="M819.566 518.861L814.538 518.994L815.061 538.727L820.089 538.594L819.566 518.861Z" fill="#47535E"/>
<path d="M902.01 505.49L890.47 517.75C888.98 519.33 888.95 521.8 890.4 523.42L898.26 532.2C899.57 533.66 901.86 533.65 903.15 532.18C904.25 530.92 904.23 529.04 903.1 527.81L899.5 523.89C898.01 522.27 898.03 519.77 899.54 518.17L905.85 511.51" fill="#47535E"/>
<path d="M902.98 491.29C895.79 491.29 889.95 497.12 889.95 504.32C889.95 511.52 895.79 517.35 902.98 517.35C910.17 517.35 916.01 511.51 916.01 504.32C916.01 497.13 910.18 491.29 902.98 491.29ZM902.98 513.32C898.01 513.32 893.98 509.29 893.98 504.32C893.98 499.35 898.01 495.32 902.98 495.32C907.95 495.32 911.98 499.35 911.98 504.32C911.98 509.29 907.95 513.32 902.98 513.32Z" fill="#B8C7CF"/>
<path d="M902.66 514.55C908.288 514.55 912.85 509.988 912.85 504.36C912.85 498.732 908.288 494.17 902.66 494.17C897.032 494.17 892.47 498.732 892.47 504.36C892.47 509.988 897.032 514.55 902.66 514.55Z" fill="#3A4352"/>
<path d="M905.09 436.63C868.91 436.63 839.59 465.96 839.59 502.13C839.59 538.3 868.91 567.63 905.09 567.63C941.27 567.63 970.59 538.31 970.59 502.13C970.59 465.95 941.26 436.63 905.09 436.63ZM905.09 556.63C874.99 556.63 850.59 532.23 850.59 502.13C850.59 472.03 874.99 447.63 905.09 447.63C935.19 447.63 959.59 472.03 959.59 502.13C959.59 532.23 935.19 556.63 905.09 556.63Z" fill="#A88F6C"/>
<path d="M905.09 440.63C871.12 440.63 843.59 468.17 843.59 502.13C843.59 536.09 871.12 563.63 905.09 563.63C939.06 563.63 966.59 536.1 966.59 502.13C966.59 468.16 939.06 440.63 905.09 440.63ZM905.09 556.63C874.99 556.63 850.59 532.23 850.59 502.13C850.59 472.03 874.99 447.63 905.09 447.63C935.19 447.63 959.59 472.03 959.59 502.13C959.59 532.23 935.19 556.63 905.09 556.63Z" fill="#3A4352"/>
<path d="M686.5 436.63C650.32 436.63 621 465.96 621 502.13C621 538.3 650.32 567.63 686.5 567.63C722.68 567.63 752 538.31 752 502.13C752 465.95 722.67 436.63 686.5 436.63ZM686.5 556.63C656.4 556.63 632 532.23 632 502.13C632 472.03 656.4 447.63 686.5 447.63C716.6 447.63 741 472.03 741 502.13C741 532.23 716.6 556.63 686.5 556.63Z" fill="#A88F6C"/>
<path d="M686.5 440.63C652.53 440.63 625 468.17 625 502.13C625 536.09 652.53 563.63 686.5 563.63C720.47 563.63 748 536.1 748 502.13C748 468.16 720.47 440.63 686.5 440.63ZM686.5 556.63C656.4 556.63 632 532.23 632 502.13C632 472.03 656.4 447.63 686.5 447.63C716.6 447.63 741 472.03 741 502.13C741 532.23 716.6 556.63 686.5 556.63Z" fill="#3A4352"/>
<path d="M835.84 415.59L716.84 405.32L715.39 409.68L834.92 420.73L835.84 415.59Z" fill="#39314A"/>
<path d="M711.81 419.06L815.23 522.34L817.8 508.25L716.72 408.81L711.81 419.06Z" fill="white"/>
<path d="M707.06 401.51C708.36 393.93 709.19 388.67 710.18 380.56C714.5 380.43 718.74 380.98 722.9 381.89C721.6 389.45 720.96 394.7 719.57 402.78C716.1 402.08 710.43 402.6 707.06 401.51Z" fill="#39314A"/>
<path d="M712.71 381.81C702.99 380.62 693.26 379.43 683.27 378.41C678.8 377.95 674.47 380.27 672.46 384.29C672.22 384.76 671.99 385.25 671.77 385.73C669.79 390.09 670.89 395.19 674.44 398.41C678 401.63 682.07 404.36 686.61 406.47C688.78 407.48 691.36 406.61 692.45 404.48C692.51 404.36 692.57 404.25 692.63 404.13C693.73 401.97 692.88 399.35 690.75 398.18C686.91 396.08 683.72 393.59 680.29 390.5C679.86 390.11 679.73 389.47 679.97 388.94C679.97 388.93 679.98 388.92 679.98 388.92C680.22 388.4 680.76 388.09 681.32 388.14C691.46 389.04 701.11 390.84 711.16 392.63C711.44 390.13 712.22 385.14 712.71 381.81Z" fill="#39314A"/>
<path d="M857.21 360.4L844.12 373.41C842.82 374.71 841.92 376.36 841.55 378.17L840.23 384.63L813.85 519.85C813.81 520.06 813.78 520.27 813.79 520.48C813.83 521.65 814.67 522.69 815.87 522.94C817.28 523.23 818.67 522.32 818.96 520.91L846.93 380.22C847.29 378.39 848.19 376.72 849.51 375.41L861.46 363.54C860.04 362.49 858.62 361.44 857.21 360.4Z" fill="#39314A"/>
<path d="M687.11 518.74C694.306 518.74 700.14 512.906 700.14 505.71C700.14 498.514 694.306 492.68 687.11 492.68C679.914 492.68 674.08 498.514 674.08 505.71C674.08 512.906 679.914 518.74 687.11 518.74Z" fill="#B8C7CF"/>
<path d="M680.54 503.04L707.36 398.45L719.94 401.35L693.04 506.23C692.2 509.52 688.8 511.51 685.38 510.72C681.85 509.91 679.67 506.44 680.54 503.04Z" fill="white"/>
<path d="M832.43 352.21C852.07 352.21 864.96 352.16 882 354.52C884.12 354.81 885.28 357.09 883.98 358.79C882.65 360.53 881.15 362.17 879.48 363.66C874.51 368.1 867.52 369.51 861.13 367.6C854.62 365.65 848.26 363.34 842.16 360.65C838.72 359.14 834.92 358.67 831.24 359.4C830.98 359.45 830.71 359.5 830.45 359.56C826.78 360.29 824.74 355.4 827.88 353.37C827.93 353.34 827.97 353.31 828.02 353.28C829.32 352.47 830.88 352.21 832.43 352.21Z" fill="#564C39"/>
<path d="M835.641 424.98L908.861 504.37C909.921 505.52 909.951 507.29 908.921 508.47C907.721 509.85 905.591 509.88 904.351 508.54L833.541 432.04L835.641 424.98Z" fill="#39314A"/>
<path d="M816.82 522.23L907.36 509.43L901.25 499.73L819.99 511.97L816.82 522.23Z" fill="#39314A"/>
<path d="M808.96 354.49C799.63 363.97 789.51 372.83 779.14 381.56C778.46 382.14 777.78 382.72 777.09 383.29L772.23 387.34C768.97 390.06 765.69 392.78 762.41 395.5C754.03 402.47 741.79 402.52 733.52 395.43C733.41 395.34 733.31 395.24 733.2 395.15C727.89 390.54 727.03 382.62 731 376.82C734.26 372.04 737.76 367.53 741.42 363.25C742.65 361.81 743.89 360.4 745.15 359.01C746.14 357.92 747.14 356.84 748.16 355.77C753.35 350.27 758.75 345.12 764.14 340.24C765.31 335.81 765.15 330.45 766 325.92C775.22 317.42 791.98 309.12 807.8 304.17C810.17 306.8 812.22 309.52 813.94 312.3C822.27 325.79 820.09 343.19 808.96 354.49Z" fill="#443B4A"/>
<path d="M777.09 383.29L772.23 387.34C768.97 390.06 765.69 392.78 762.41 395.5C754.03 402.47 741.79 402.52 733.52 395.43C733.41 395.34 733.31 395.24 733.2 395.15C727.89 390.54 727.03 382.62 731 376.82C734.26 372.04 737.76 367.53 741.42 363.25C742.65 361.81 743.89 360.4 745.15 359.01C758.46 362.33 770.28 371.37 777.09 383.29Z" fill="#FFBA98"/>
<path d="M766.4 339.98C773.16 335.67 781.79 334.41 789.49 336.62" stroke="#2B2633" stroke-linecap="round" stroke-linejoin="round"/>
<path d="M772.74 333.82C777.93 331.41 783.43 329.7 789.07 328.74" stroke="#2B2633" stroke-linecap="round" stroke-linejoin="round"/>
<path d="M711.1 295.91C704.96 291.46 697.39 289 689.81 288.98C684.83 291.71 679.71 294.4 674.36 296.38C672.36 297.12 670.09 296.53 668.73 294.9C665.71 291.28 663.37 287.44 661.49 283.39C659.25 283.21 657.4 282.89 655.56 282.58C655.91 280.71 656.26 278.73 656.49 276.71C656.79 274.12 656.22 271.49 654.84 269.28C653.1 266.48 651.83 263.44 651.13 260.26C649.24 251.74 653.16 243.03 660.59 238.44C663.07 236.91 665.71 235.59 668.49 234.5C677.86 230.84 688.68 234.24 693.97 242.8C694.04 242.92 694.11 243.03 694.18 243.15C695.78 245.8 696.52 248.84 696.71 251.92C696.97 256.13 699.42 259.48 701.86 263.33C706.36 265.2 710.69 266.01 716.21 266.94C714.47 276.35 711.75 287.75 711.1 295.91Z" fill="#FFBA98"/>
<path d="M665.24 257.58C672.83 265.03 683.63 269.06 693.97 268.39C695.65 268.28 697.29 267.77 698.72 266.88C700.24 265.93 701.77 264.73 703.32 263.43C701.93 257.81 697.15 253.11 694.79 249.44C683.58 248.36 674.32 249.72 665.24 257.58Z" fill="#3F2136"/>
<path d="M668.42 257.77C672.46 264.85 678.32 270.87 685.29 275.11C689.72 267.78 693.34 258.4 696.2 250.2C697.39 251.65 698.97 254.07 699.89 256.17C696.9 265.17 691.58 274.36 685.85 282.5C676.38 277.66 668.33 270.07 662.93 260.9C664.54 259.9 666.16 258.9 668.42 257.77Z" fill="#6C6175"/>
<path d="M700.65 245.43C699.43 248.36 697.64 251.05 695.64 253.21C689.75 253.92 683.75 253.76 677.91 252.71C675.84 254.44 673.94 255.96 672.06 257.32C669.57 259.12 666.79 260.47 663.83 261.31C657.88 262.99 651.89 263.76 646.15 263.31C645.82 260.83 645.73 258.21 645.89 255.57C646.52 245.24 652.76 236.07 661.94 231.29C665.73 229.32 669.75 227.76 673.98 226.62C675.92 226.1 677.91 225.84 679.89 225.84C683.35 225.85 686.78 226.68 689.85 228.39C690.06 228.51 690.27 228.63 690.47 228.75C693.85 230.73 696.46 233.77 698.01 237.37C698.06 237.48 698.1 237.58 698.14 237.69C699.2 240.21 700.05 242.81 700.65 245.43Z" fill="#52485C"/>
<path d="M698.14 237.69C697.11 240.49 695.98 243.28 694.57 245.9C688.76 245.75 683.02 244.7 677.45 243.06C677.59 237.51 678.43 231.62 679.89 225.84C683.35 225.85 686.78 226.68 689.85 228.39C690.06 228.51 690.27 228.63 690.47 228.75C693.85 230.73 696.46 233.77 698.01 237.37C698.06 237.48 698.1 237.58 698.14 237.69Z" fill="#6C6175"/>
<path d="M657.73 251.8C659.75 248.21 661.98 244.74 664.18 241.65C667.34 239.09 670.51 236.52 674.08 233.59C673.23 236.65 672.12 239.63 671.07 242.24C666.85 245.65 662.41 248.8 657.73 251.8Z" fill="#39314A"/>
<path d="M647.98 256.08C649.63 255.23 651.28 254.39 652.65 253.53C654.41 249.3 656.17 245.06 657.93 240.83C653.81 245.18 650.45 250.24 647.98 256.08Z" fill="#39314A"/>
<path d="M651.24 260.9C652.65 260.07 653.92 258.99 655.19 257.58C657.06 258.27 659.06 258.59 661.06 258.53C658.33 260.59 654.76 261.48 651.24 260.9Z" fill="#39314A"/>
<path d="M684.75 231.93C684.4 234.3 684.06 236.67 683.71 239.05C685.57 239.93 687.42 240.81 689.2 241.93C689.87 239.73 690.54 237.53 691.21 235.33C689.02 234.45 686.83 233.57 684.75 231.93Z" fill="#39314A"/>
<path d="M686.44 269.3C687.36 267.25 687.92 264.98 687.68 262.74C687.44 260.5 686.31 258.3 684.42 257.08C682.53 255.86 679.85 255.81 678.1 257.22C676.91 258.18 676.25 259.68 676.09 261.2C675.93 262.72 676.21 264.25 676.67 265.7" fill="#FFBA98"/>
<path d="M683.04 293.09C683.38 285.91 683.69 280.02 682.71 272.97C684.26 272.45 685.81 271.94 687.52 271.88C688.73 278.04 689.17 283.12 689.05 289.39C687.29 290.73 685.08 291.86 683.04 293.09Z" fill="#7D7285"/>
<path d="M811.09 307.43C792.12 314.27 776.22 325.66 764.14 340.24C762.77 337.12 761.51 332.9 760.45 330.15C756.02 328.98 750.91 326.72 745.61 323.69C740.3 320.67 734.81 316.88 729.61 312.65C728.04 311.38 726.5 310.08 725 308.73H724.99C718.37 302.8 712.54 296.3 708.65 290C707.79 288.61 707.03 287.24 706.37 285.88C704.48 281.96 703.28 278.83 704.7 275.43V275.41C704.95 274.79 705.29 274.15 705.74 273.51C705.77 273.46 705.8 273.42 705.83 273.38C706.78 272.02 707.79 270.7 708.85 269.42C709.19 269 709.55 268.6 709.93 268.21C715.62 262.2 724.16 259.73 732.24 261.92C735.85 262.9 739.49 263.94 743.16 265.02C748.1 266.47 753.1 267.99 758.17 269.5C758.88 269.72 759.58 269.93 760.29 270.14C766.46 271.97 772.34 274.62 777.78 278.02C780.99 280.02 784.04 282.29 786.89 284.8C787.31 285.17 787.73 285.54 788.15 285.92C795.92 292.79 803.63 299.97 811.07 307.43H811.09Z" fill="#31B15C"/>
<path d="M770.28 293.46C769.39 303.54 766.63 313.46 762.19 322.56" stroke="#31B15C" stroke-linecap="round" stroke-linejoin="round"/>
<path d="M764.49 325.15C771.78 321.13 778.21 315.56 783.22 308.92" stroke="#31B15C" stroke-linecap="round" stroke-linejoin="round"/>
<path d="M803.31 487.82C804.76 489.3 806.53 490.5 808.59 491.23L808.76 491.29C819.41 476.39 830.21 456.22 834.92 441.82C833.37 440.8 831.58 440.03 829.63 439.49C823.04 437.57 814.69 438.27 808.51 440.98C805.02 445.57 805.31 446.38 803 454C802.6 460.09 800.08 469.6 799.36 475.12C798.73 479.88 800.23 484.58 803.31 487.82Z" fill="#443B4A"/>
<path d="M803.311 487.82C804.761 489.3 806.531 490.5 808.591 491.23L808.761 491.29C819.411 476.39 830.211 456.22 834.921 441.82C833.371 440.8 831.581 440.03 829.631 439.49C821.941 456.13 813.141 472.3 803.311 487.82Z" fill="#9E8FA6"/>
<path d="M814.39 440.24C812.61 445.91 809.1 454.98 804.45 458.03C796.51 450.09 788.34 442.43 780.12 435.05C764.04 420.58 747.76 407.15 732.59 394.58C734.59 388.92 735.99 383.7 737.28 378.32C747.9 380.82 759.81 384.32 771.75 387.76C780.5 390.28 784.84 398.25 789.15 406.27C790.96 409.65 792.84 412.88 794.83 415.99C800.32 424.66 806.61 432.46 814.39 440.24Z" fill="#FFBA98"/>
<path d="M814.39 440.24C812.61 445.91 809.1 454.98 804.45 458.03C796.51 450.09 788.34 442.43 780.12 435.05C785.08 428.86 790.03 422.6 794.83 415.99C800.32 424.66 806.61 432.46 814.39 440.24Z" fill="white"/>
<path d="M713.4 306.65C714.93 310.39 716.46 314.14 717.97 317.93C718.87 320.18 719.77 322.46 720.66 324.75C723.3 322.97 726.55 322.2 729.96 322.26C733.35 321.39 737.03 321.36 740.71 322.19C742.65 322.63 744.42 323.57 745.94 324.84C745.83 324.46 745.72 324.07 745.62 323.69C744.4 319.37 743.23 315.1 742.08 310.87C741.94 310.35 741.8 309.82 741.66 309.3C740.05 303.35 738.49 297.47 736.94 291.6C736.77 290.93 736.59 290.28 736.42 289.62C736.31 289.52 736.19 289.42 736.08 289.33C731.34 285.26 726.58 282.06 721.59 279.28C717.92 277.09 713.98 275.06 709.94 272.75C709.27 272.37 708.59 271.98 707.92 271.58C707.15 272.36 706.41 273.18 705.74 274.05C705.38 274.5 705.04 274.95 704.73 275.41C704.72 275.41 704.72 275.42 704.72 275.43C703.62 277.01 702.69 278.75 701.98 280.68C702.61 288.16 705.67 295.42 710.49 301.64C711.67 303.17 712.67 304.85 713.41 306.65H713.4Z" fill="#31B15C"/>
<path d="M722 315.65C720.62 316.35 719.28 317.11 717.97 317.93C720.11 323.27 722.23 328.69 724.28 334.26C716.87 345.97 705.68 357.24 694.55 365.48C696.69 370.67 698.04 374.62 701.3 378.32C716.36 368.55 733.79 355.84 746.23 342.9C748.56 340.47 749.42 336.97 748.48 333.74C747.49 330.35 746.54 327.01 745.61 323.69C744.39 319.37 743.22 315.1 742.07 310.87C737.8 310.85 733.62 311.47 729.61 312.65C728.86 312.87 728.11 313.11 727.37 313.38" fill="#FFBA98"/>
<path d="M727.37 313.38C725.53 314.02 723.74 314.78 722 315.65C719.96 310.67 717.79 305.54 715.91 300.49C712.84 297.51 710.38 293.91 708.65 290C706.44 285.01 705.39 279.5 705.72 274.06C705.73 273.87 705.74 273.69 705.75 273.51V273.49L705.86 273.35L709.94 268.21C709.8 269.71 709.79 271.23 709.92 272.74C710.13 275.89 710.82 278.99 711.86 281.96C713.94 287.89 717.29 293.28 720.82 298.47C722.08 302.01 723.44 305.43 724.99 308.72H725C725.74 310.31 726.52 311.86 727.37 313.38Z" fill="white"/>
<path d="M758.18 269.5C754.74 270.31 751.49 271.89 748.76 274.12C745.67 272.29 742.38 270.47 739.09 268.65C740.24 267.14 741.63 265.94 743.17 265.02C748.11 266.47 753.11 267.99 758.18 269.5Z" fill="white"/>
<path d="M788.17 285.92C786.44 288.16 784.71 290.41 782.97 292.65C780.11 289.68 776.94 287.02 773.53 284.73C774.95 282.49 776.37 280.26 777.8 278.02C781.01 280.02 784.06 282.29 786.91 284.8C787.33 285.17 787.75 285.54 788.17 285.92Z" fill="white"/>
<path d="M671.99 397.67C672.02 397.8 672.06 397.93 672.09 398.06C672.39 399.16 674.78 400.18 675.87 400.18C679.1 400.18 679.16 394.22 682.6 390.25C691.02 389.27 698.86 384.11 703.08 376.75C701 371.89 699.05 367.82 696.85 363.88C688.3 366.35 679.92 368.94 671.79 371.45C670.94 371.71 670.14 372.11 669.41 372.62C666.68 374.54 663.93 376.46 660.98 378.4C658.73 379.88 657.52 382.52 657.9 385.18C658.21 387.28 658.54 389.44 658.95 391.74C659.29 393.62 660.9 395.01 662.82 395.08C663.41 395.1 664.06 395.12 664.8 395.15C664.88 395.53 664.96 395.91 665.06 396.33C665.31 397.4 666.21 398.22 667.31 398.28C668.85 398.35 670.41 398.16 671.99 397.67Z" fill="#FFBA98"/>
<path d="M672.17 396.98C671.99 396.13 671.86 395.27 671.78 394.39C671.41 390.25 673.32 386.15 676.87 384C676.89 383.99 676.91 383.97 676.93 383.96" stroke="#CB5144" stroke-linecap="round" stroke-linejoin="round"/>
<path d="M664.93 393.89C664.88 392.77 664.83 391.64 664.77 390.46C664.61 387.14 665.69 383.84 667.92 381.37C668.41 380.83 668.92 380.32 669.46 379.84" stroke="#CB5144" stroke-linecap="round" stroke-linejoin="round"/>
<path d="M734.57 285.7C737.93 293.46 740.35 301.62 741.76 309.96" stroke="#31B15C" stroke-linecap="round" stroke-linejoin="round"/>
<path d="M743.83 294.52C743.7 298.81 742.81 303.08 741.22 307.06" stroke="#31B15C" stroke-linecap="round" stroke-linejoin="round"/>
<path d="M814.91 488.44C812.3 486.93 811.41 483.59 812.93 480.98L826.48 457.61C827.99 455 831.33 454.11 833.94 455.63C836.55 457.14 837.44 460.48 835.92 463.09L822.37 486.46C820.85 489.07 817.51 489.95 814.91 488.44Z" fill="#2C3440"/>
<path d="M814.38 516.34L821.99 471.6C822.32 469.67 824.15 468.37 826.08 468.7C828.01 469.03 829.31 470.86 828.98 472.79L821.37 517.53C821.04 519.46 819.21 520.76 817.28 520.43C815.35 520.11 814.05 518.28 814.38 516.34Z" fill="#B8C7CF"/>
<path d="M704.48 237C713.94 236.77 723.4 236.68 732.86 236.51L761.24 236.23C780.16 236.07 799.07 236.08 817.99 236C836.91 236.08 855.82 236.07 874.74 236.23L903.12 236.51C912.58 236.68 922.04 236.77 931.5 237C922.04 237.23 912.58 237.32 903.12 237.49L874.74 237.77C855.82 237.93 836.91 237.92 817.99 238C799.07 237.92 780.16 237.93 761.24 237.77L732.86 237.49C723.39 237.32 713.94 237.23 704.48 237Z" fill="white"/>
<path d="M808.48 250.5C819.9 250.11 831.31 249.85 842.73 249.72C854.15 249.56 865.56 249.52 876.98 249.5C888.4 249.52 899.81 249.56 911.23 249.72C922.65 249.85 934.06 250.11 945.48 250.5C934.06 250.89 922.65 251.15 911.23 251.28C899.81 251.44 888.4 251.48 876.98 251.5C865.56 251.48 854.15 251.44 842.73 251.28C831.31 251.15 819.89 250.89 808.48 250.5Z" fill="white"/>
<path d="M709.94 220C721.36 219.61 732.77 219.35 744.19 219.22C755.61 219.06 767.02 219.02 778.44 219C789.86 219.02 801.27 219.06 812.69 219.22C824.11 219.35 835.52 219.61 846.94 220C835.52 220.39 824.11 220.65 812.69 220.78C801.27 220.94 789.86 220.98 778.44 221C767.02 220.98 755.61 220.94 744.19 220.78C732.77 220.65 721.35 220.39 709.94 220Z" fill="white"/>
<path d="M808.48 287.5C816.98 287.27 825.48 287.18 833.98 287.01L859.48 286.73C876.48 286.57 893.48 286.58 910.48 286.5C927.48 286.58 944.48 286.57 961.48 286.73L986.98 287.01C995.48 287.18 1003.98 287.27 1012.48 287.5C1003.98 287.73 995.48 287.82 986.98 287.99L961.48 288.27C944.48 288.43 927.48 288.42 910.48 288.5C893.48 288.42 876.48 288.43 859.48 288.27L833.98 287.99C825.48 287.82 816.98 287.73 808.48 287.5Z" fill="white"/>
<path d="M836.48 297.5C843.02 297.27 849.56 297.18 856.1 297.01L875.72 296.73C888.8 296.57 901.89 296.58 914.97 296.5C928.05 296.58 941.14 296.57 954.22 296.73L973.84 297.01C980.38 297.18 986.92 297.27 993.46 297.5C986.92 297.73 980.38 297.82 973.84 297.99L954.22 298.27C941.14 298.43 928.05 298.42 914.97 298.5C901.89 298.42 888.8 298.43 875.72 298.27L856.1 297.99C849.56 297.82 843.02 297.73 836.48 297.5Z" fill="white"/>
<path d="M826.48 328.62C837.9 328.23 849.31 327.97 860.73 327.84C872.15 327.68 883.56 327.64 894.98 327.62C906.4 327.64 917.81 327.68 929.23 327.84C940.65 327.97 952.06 328.23 963.48 328.62C952.06 329.01 940.65 329.27 929.23 329.4C917.81 329.56 906.4 329.6 894.98 329.62C883.56 329.6 872.15 329.56 860.73 329.4C849.31 329.26 837.89 329 826.48 328.62Z" fill="white"/>
<path d="M871.5 381.73C883.25 381.34 895 381.08 906.74 380.95C918.49 380.79 930.24 380.75 941.98 380.73C953.73 380.75 965.48 380.79 977.22 380.95C988.97 381.08 1000.72 381.34 1012.46 381.73C1000.71 382.12 988.96 382.38 977.22 382.51C965.47 382.67 953.72 382.71 941.98 382.73C930.23 382.71 918.48 382.67 906.74 382.51C895 382.38 883.25 382.12 871.5 381.73Z" fill="white"/>
<path d="M941.99 401.73C947.86 401.34 953.74 401.08 959.61 400.95C965.48 400.79 971.36 400.75 977.23 400.73C983.1 400.75 988.98 400.79 994.85 400.95C1000.72 401.08 1006.6 401.34 1012.47 401.73C1006.6 402.12 1000.72 402.38 994.85 402.51C988.98 402.67 983.1 402.71 977.23 402.73C971.36 402.71 965.48 402.67 959.61 402.51C953.74 402.38 947.86 402.12 941.99 401.73Z" fill="white"/>
<path d="M862.98 426.73C874.63 426.34 886.29 426.08 897.94 425.95C909.59 425.79 921.25 425.75 932.9 425.73C944.55 425.75 956.21 425.79 967.86 425.95C979.51 426.08 991.17 426.34 1002.82 426.73C991.17 427.12 979.51 427.38 967.86 427.51C956.21 427.67 944.55 427.71 932.9 427.73C921.25 427.71 909.59 427.67 897.94 427.51C886.28 427.38 874.63 427.12 862.98 426.73Z" fill="white"/>
</g>
</g>
<defs>
<clipPath id="clip0_357_192">
<rect width="1148" height="715" fill="white"/>
</clipPath>
<clipPath id="clip1_357_192">
<rect width="391.48" height="353.13" fill="white" transform="translate(621 219)"/>
</clipPath>
</defs>
</svg>
