<svg width="1148" height="715" viewBox="0 0 1148 715" fill="none" xmlns="http://www.w3.org/2000/svg">
<g clip-path="url(#clip0_357_192)">
<rect width="1148" height="715" fill="#DFF6E7"/>
<path d="M1148 463.762V551.274C873.912 549.179 599.693 552.758 326 562V464.835C326.395 464.784 326.789 464.734 327.184 464.694C343.048 463.06 360.113 468.955 365.982 478.087C376.454 470.919 400.227 476.894 399.372 486.477C411.62 479.44 431.446 477.886 446.209 482.798C454.084 471.34 476.722 464.504 496.45 467.641C516.161 470.769 530.448 483.48 528.146 495.82C533.785 488.512 551.688 486.176 561.75 491.429C567.125 476.613 599.907 468.564 620.638 476.964C627.46 466.458 646.35 459.391 664.796 460.444C683.241 461.496 699.648 470.588 703.15 481.675C715.233 474.708 737.608 476.463 746.387 485.074C760.279 475.099 789.296 475.31 802.793 485.485C807.758 473.185 825.94 463.301 846.54 461.687C867.139 460.073 888.823 466.849 898.72 477.976C915.851 473.215 938.801 480.823 941.563 492.171C954.172 486.427 972.043 485.314 986.296 489.404C983.469 476.002 1010.35 464.103 1030.36 469.887C1036.87 455.712 1059.21 444.806 1083.31 444.044C1107.41 443.272 1131.49 452.695 1140.39 466.388C1142.72 465.306 1145.29 464.424 1148 463.762Z" fill="#188E40"/>
<path d="M403.711 188C232.14 188 76.4137 188 -103.026 185.832C-106.29 174.324 -101.167 161.382 -90.4448 153.972C-79.723 146.562 -63.9212 145.043 -51.5565 150.25C-55.08 120.661 -31.799 90.3042 1.23121 81.4771C34.2614 72.65 73.4739 86.2748 90.0754 112.363C103.175 101.812 126.78 103.502 137.675 115.761C138.432 95.119 170.64 81.1356 190.398 92.8994C209.918 56.4982 265.343 37.9903 308.317 53.5274C351.29 69.0645 374.68 116.068 358.078 153.511C381.359 148.816 407.018 166.163 403.711 188Z" fill="white"/>
<path d="M1218 229C1149.33 228.59 1080.65 228.194 1012 228.024C1014.62 221.491 1022.17 217.206 1029.3 218.196C1028.89 208.99 1041.27 201.976 1049.31 206.84C1053.22 195.612 1065.25 187.566 1077.44 188.018C1089.63 188.471 1100.99 197.366 1104.02 208.848C1110.32 205.2 1118.9 205.752 1124.65 210.164C1130.3 201.467 1141.13 196.206 1151.68 197.055C1162.23 197.903 1172.03 204.804 1176.14 214.279C1189.07 208.042 1205.84 210.362 1218 229Z" fill="white"/>
<path d="M-486 464.762V552.274C-211.912 550.179 62.3069 553.758 336 563V465.835C335.605 465.784 335.211 465.734 334.816 465.694C318.952 464.06 301.887 469.955 296.018 479.087C285.546 471.919 261.773 477.894 262.628 487.477C250.38 480.44 230.554 478.886 215.791 483.798C207.916 472.34 185.278 465.504 165.55 468.641C145.839 471.769 131.552 484.48 133.854 496.82C128.215 489.512 110.312 487.176 100.25 492.429C94.8745 477.613 62.0932 469.564 41.3623 477.964C34.5397 467.458 15.6502 460.391 -2.79551 461.444C-21.2412 462.496 -37.6483 471.588 -41.15 482.675C-53.2334 475.708 -75.6083 477.463 -84.3873 486.074C-98.2791 476.099 -127.296 476.31 -140.793 486.485C-145.758 474.185 -163.94 464.301 -184.54 462.687C-205.139 461.073 -226.823 467.849 -236.72 478.976C-253.851 474.215 -276.801 481.823 -279.563 493.171C-292.172 487.427 -310.043 486.314 -324.296 490.404C-321.469 477.002 -348.348 465.103 -368.355 470.887C-374.866 456.712 -397.208 445.806 -421.309 445.044C-445.41 444.272 -469.494 453.695 -478.388 467.388C-480.723 466.306 -483.287 465.424 -486 464.762Z" fill="#188E40"/>
<path d="M1245.14 531H-226.656V950H1245.14V531Z" fill="#2C7745"/>
<g clip-path="url(#clip1_357_192)">
<path d="M838 582.13C931.888 582.13 1008 580.115 1008 577.63C1008 575.145 931.888 573.13 838 573.13C744.112 573.13 668 575.145 668 577.63C668 580.115 744.112 582.13 838 582.13Z" fill="#225332"/>
<path d="M832.98 558.34C833.93 559.77 835.18 561.04 836.72 562L836.85 562.08C847.36 552.43 858.7 538.68 864.42 528.31C863.33 527.22 862.01 526.29 860.52 525.49C855.54 522.75 848.79 521.74 843.5 522.69C840.1 525.62 838.46 529.93 835.58 535.46C834.43 540.15 832.88 543.49 831.56 547.67C830.41 551.28 830.97 555.23 832.98 558.34Z" fill="#74686E"/>
<path d="M832.98 558.34C833.93 559.77 835.18 561.04 836.72 562L836.85 562.08C847.36 552.43 858.7 538.68 864.42 528.31C863.33 527.22 862.01 526.29 860.52 525.49C852.13 537.06 842.92 548.05 832.98 558.34Z" fill="#B7A6B3"/>
<path d="M859.47 467.72C856.75 487.34 855 507.1 854.25 526.92C849.77 528.35 845.29 529.78 838.56 529.72C837.5 501.44 834.09 473.25 828.36 445.59C825.83 434.25 824.01 422.82 822.81 411.35C821.51 398.97 820.93 386.54 820.97 374.11C832.08 362.22 844.24 350.87 856.39 339.52C859.81 348.44 859.45 360.13 857.13 370.36C856.54 381.79 855.95 393.22 855.36 404.76C854.8 415.63 854.23 426.59 853.66 437.76C855.14 443.03 856.61 448.3 858.29 453.71C859.7 458.24 860.12 463.03 859.47 467.72Z" fill="#FBB097"/>
<path d="M857.13 370.36C856.54 381.79 855.95 393.22 855.36 404.76C844.81 408.2 833.86 410.41 822.81 411.35C821.51 398.97 820.93 386.54 820.97 374.11C832.08 362.22 844.24 350.87 856.39 339.52C859.81 348.44 859.45 360.13 857.13 370.36Z" fill="#524A57"/>
<path d="M857.8 549.12L941.95 542.34" stroke="#B8C7CF" stroke-miterlimit="10"/>
<path d="M853.79 505.53L942.98 504.18" stroke="#B8C7CF" stroke-miterlimit="10"/>
<path d="M876.47 516.19C870.43 505.35 856.72 501.44 845.87 507.5C835.01 513.55 831.13 527.26 837.18 538.1C843.23 548.96 856.93 552.85 867.78 546.79C878.63 540.73 882.52 527.04 876.47 516.19ZM842.09 535.36C837.55 527.22 840.47 516.94 848.61 512.41C856.75 507.87 867.03 510.79 871.56 518.93C876.1 527.07 873.18 537.35 865.04 541.88C856.9 546.42 846.62 543.5 842.09 535.36Z" fill="#47535E"/>
<path d="M856.82 532.41C859.73 532.41 862.09 530.051 862.09 527.14C862.09 524.23 859.73 521.87 856.82 521.87C853.909 521.87 851.55 524.23 851.55 527.14C851.55 530.051 853.909 532.41 856.82 532.41Z" fill="#47535E"/>
<path d="M870.421 516.697L853.18 526.309L855.629 530.703L872.871 521.091L870.421 516.697Z" fill="#47535E"/>
<path d="M840.665 517.955L838.855 522.648L857.273 529.751L859.083 525.058L840.665 517.955Z" fill="#47535E"/>
<path d="M859.566 528.861L854.538 528.994L855.061 548.727L860.089 548.594L859.566 528.861Z" fill="#47535E"/>
<path d="M942.01 515.49L930.47 527.75C928.98 529.33 928.95 531.8 930.4 533.42L938.26 542.2C939.57 543.66 941.86 543.65 943.15 542.18C944.25 540.92 944.23 539.04 943.1 537.81L939.5 533.89C938.01 532.27 938.03 529.77 939.54 528.17L945.85 521.51" fill="#47535E"/>
<path d="M942.98 501.29C935.79 501.29 929.95 507.12 929.95 514.32C929.95 521.52 935.79 527.35 942.98 527.35C950.17 527.35 956.01 521.51 956.01 514.32C956.01 507.13 950.18 501.29 942.98 501.29ZM942.98 523.32C938.01 523.32 933.98 519.29 933.98 514.32C933.98 509.35 938.01 505.32 942.98 505.32C947.95 505.32 951.98 509.35 951.98 514.32C951.98 519.29 947.95 523.32 942.98 523.32Z" fill="#B8C7CF"/>
<path d="M942.66 524.55C948.288 524.55 952.85 519.988 952.85 514.36C952.85 508.732 948.288 504.17 942.66 504.17C937.032 504.17 932.47 508.732 932.47 514.36C932.47 519.988 937.032 524.55 942.66 524.55Z" fill="#3A4352"/>
<path d="M945.09 446.63C908.91 446.63 879.59 475.96 879.59 512.13C879.59 548.3 908.91 577.63 945.09 577.63C981.27 577.63 1010.59 548.31 1010.59 512.13C1010.59 475.95 981.26 446.63 945.09 446.63ZM945.09 566.63C914.99 566.63 890.59 542.23 890.59 512.13C890.59 482.03 914.99 457.63 945.09 457.63C975.19 457.63 999.59 482.03 999.59 512.13C999.59 542.23 975.19 566.63 945.09 566.63Z" fill="#A88F6C"/>
<path d="M945.09 450.63C911.12 450.63 883.59 478.17 883.59 512.13C883.59 546.09 911.12 573.63 945.09 573.63C979.06 573.63 1006.59 546.1 1006.59 512.13C1006.59 478.16 979.06 450.63 945.09 450.63ZM945.09 566.63C914.99 566.63 890.59 542.23 890.59 512.13C890.59 482.03 914.99 457.63 945.09 457.63C975.19 457.63 999.59 482.03 999.59 512.13C999.59 542.23 975.19 566.63 945.09 566.63Z" fill="#3A4352"/>
<path d="M726.5 446.63C690.32 446.63 661 475.96 661 512.13C661 548.3 690.32 577.63 726.5 577.63C762.68 577.63 792 548.31 792 512.13C792 475.95 762.67 446.63 726.5 446.63ZM726.5 566.63C696.4 566.63 672 542.23 672 512.13C672 482.03 696.4 457.63 726.5 457.63C756.6 457.63 781 482.03 781 512.13C781 542.23 756.6 566.63 726.5 566.63Z" fill="#A88F6C"/>
<path d="M726.5 450.63C692.53 450.63 665 478.17 665 512.13C665 546.09 692.53 573.63 726.5 573.63C760.47 573.63 788 546.1 788 512.13C788 478.16 760.47 450.63 726.5 450.63ZM726.5 566.63C696.4 566.63 672 542.23 672 512.13C672 482.03 696.4 457.63 726.5 457.63C756.6 457.63 781 482.03 781 512.13C781 542.23 756.6 566.63 726.5 566.63Z" fill="#3A4352"/>
<path d="M875.84 425.59L756.84 415.32L755.39 419.68L874.92 430.73L875.84 425.59Z" fill="#39314A"/>
<path d="M751.81 429.06L855.23 532.34L857.8 518.25L756.72 418.81L751.81 429.06Z" fill="#298E4B"/>
<path d="M747.06 411.51C748.36 403.93 749.19 398.67 750.18 390.56C754.5 390.43 758.74 390.98 762.9 391.89C761.6 399.45 760.96 404.7 759.57 412.78C756.1 412.08 750.43 412.6 747.06 411.51Z" fill="#39314A"/>
<path d="M752.71 391.81C742.99 390.62 733.26 389.43 723.27 388.41C718.8 387.95 714.47 390.27 712.46 394.29C712.22 394.76 711.99 395.25 711.77 395.73C709.79 400.09 710.89 405.19 714.44 408.41C718 411.63 722.07 414.36 726.61 416.47C728.78 417.48 731.36 416.61 732.45 414.48C732.51 414.36 732.57 414.25 732.63 414.13C733.73 411.97 732.88 409.35 730.75 408.18C726.91 406.08 723.72 403.59 720.29 400.5C719.86 400.11 719.73 399.47 719.97 398.94C719.97 398.93 719.98 398.92 719.98 398.92C720.22 398.4 720.76 398.09 721.32 398.14C731.46 399.04 741.11 400.84 751.16 402.63C751.44 400.13 752.22 395.14 752.71 391.81Z" fill="#39314A"/>
<path d="M897.21 370.4L884.12 383.41C882.82 384.71 881.92 386.36 881.55 388.17L880.23 394.63L853.85 529.85C853.81 530.06 853.78 530.27 853.79 530.48C853.83 531.65 854.67 532.69 855.87 532.94C857.28 533.23 858.67 532.32 858.96 530.91L886.93 390.22C887.29 388.39 888.19 386.72 889.51 385.41L901.46 373.54C900.04 372.49 898.62 371.44 897.21 370.4Z" fill="#39314A"/>
<path d="M727.11 528.74C734.306 528.74 740.14 522.906 740.14 515.71C740.14 508.514 734.306 502.68 727.11 502.68C719.914 502.68 714.08 508.514 714.08 515.71C714.08 522.906 719.914 528.74 727.11 528.74Z" fill="#B8C7CF"/>
<path d="M720.54 513.04L747.36 408.45L759.94 411.35L733.04 516.23C732.2 519.52 728.8 521.51 725.38 520.72C721.85 519.91 719.67 516.44 720.54 513.04Z" fill="#298E4B"/>
<path d="M872.43 362.21C892.07 362.21 904.96 362.16 922 364.52C924.12 364.81 925.28 367.09 923.98 368.79C922.65 370.53 921.15 372.17 919.48 373.66C914.51 378.1 907.52 379.51 901.13 377.6C894.62 375.65 888.26 373.34 882.16 370.65C878.72 369.14 874.92 368.67 871.24 369.4C870.98 369.45 870.71 369.5 870.45 369.56C866.78 370.29 864.74 365.4 867.88 363.37C867.93 363.34 867.97 363.31 868.02 363.28C869.32 362.47 870.88 362.21 872.43 362.21Z" fill="#564C39"/>
<path d="M875.641 434.98L948.861 514.37C949.921 515.52 949.951 517.29 948.921 518.47C947.721 519.85 945.591 519.88 944.351 518.54L873.541 442.04L875.641 434.98Z" fill="#39314A"/>
<path d="M856.82 532.23L947.36 519.43L941.25 509.73L859.99 521.97L856.82 532.23Z" fill="#39314A"/>
<path d="M848.96 364.49C839.63 373.97 829.51 382.83 819.14 391.56C818.46 392.14 817.78 392.72 817.09 393.29L812.23 397.34C808.97 400.06 805.69 402.78 802.41 405.5C794.03 412.47 781.79 412.52 773.52 405.43C773.41 405.34 773.31 405.24 773.2 405.15C767.89 400.54 767.03 392.62 771 386.82C774.26 382.04 777.76 377.53 781.42 373.25C782.65 371.81 783.89 370.4 785.15 369.01C786.14 367.92 787.14 366.84 788.16 365.77C793.35 360.27 798.75 355.12 804.14 350.24C805.31 345.81 805.15 340.45 806 335.92C815.22 327.42 831.98 319.12 847.8 314.17C850.17 316.8 852.22 319.52 853.94 322.3C862.27 335.79 860.09 353.19 848.96 364.49Z" fill="#443B4A"/>
<path d="M817.09 393.29L812.23 397.34C808.97 400.06 805.69 402.78 802.41 405.5C794.03 412.47 781.79 412.52 773.52 405.43C773.41 405.34 773.31 405.24 773.2 405.15C767.89 400.54 767.03 392.62 771 386.82C774.26 382.04 777.76 377.53 781.42 373.25C782.65 371.81 783.89 370.4 785.15 369.01C798.46 372.33 810.28 381.37 817.09 393.29Z" fill="#FFBA98"/>
<path d="M806.4 349.98C813.16 345.67 821.79 344.41 829.49 346.62" stroke="#2B2633" stroke-linecap="round" stroke-linejoin="round"/>
<path d="M812.74 343.82C817.93 341.41 823.43 339.7 829.07 338.74" stroke="#2B2633" stroke-linecap="round" stroke-linejoin="round"/>
<path d="M751.1 305.91C744.96 301.46 737.39 299 729.81 298.98C724.83 301.71 719.71 304.4 714.36 306.38C712.36 307.12 710.09 306.53 708.73 304.9C705.71 301.28 703.37 297.44 701.49 293.39C699.25 293.21 697.4 292.89 695.56 292.58C695.91 290.71 696.26 288.73 696.49 286.71C696.79 284.12 696.22 281.49 694.84 279.28C693.1 276.48 691.83 273.44 691.13 270.26C689.24 261.74 693.16 253.03 700.59 248.44C703.07 246.91 705.71 245.59 708.49 244.5C717.86 240.84 728.68 244.24 733.97 252.8C734.04 252.92 734.11 253.03 734.18 253.15C735.78 255.8 736.52 258.84 736.71 261.92C736.97 266.13 739.42 269.48 741.86 273.33C746.36 275.2 750.69 276.01 756.21 276.94C754.47 286.35 751.75 297.75 751.1 305.91Z" fill="#FFBA98"/>
<path d="M705.24 267.58C712.83 275.03 723.63 279.06 733.97 278.39C735.65 278.28 737.29 277.77 738.72 276.88C740.24 275.93 741.77 274.73 743.32 273.43C741.93 267.81 737.15 263.11 734.79 259.44C723.58 258.36 714.32 259.72 705.24 267.58Z" fill="#3F2136"/>
<path d="M708.42 267.77C712.46 274.85 718.32 280.87 725.29 285.11C729.72 277.78 733.34 268.4 736.2 260.2C737.39 261.65 738.97 264.07 739.89 266.17C736.9 275.17 731.58 284.36 725.85 292.5C716.38 287.66 708.33 280.07 702.93 270.9C704.54 269.9 706.16 268.9 708.42 267.77Z" fill="#6C6175"/>
<path d="M740.65 255.43C739.43 258.36 737.64 261.05 735.64 263.21C729.75 263.92 723.75 263.76 717.91 262.71C715.84 264.44 713.94 265.96 712.06 267.32C709.57 269.12 706.79 270.47 703.83 271.31C697.88 272.99 691.89 273.76 686.15 273.31C685.82 270.83 685.73 268.21 685.89 265.57C686.52 255.24 692.76 246.07 701.94 241.29C705.73 239.32 709.75 237.76 713.98 236.62C715.92 236.1 717.91 235.84 719.89 235.84C723.35 235.85 726.78 236.68 729.85 238.39C730.06 238.51 730.27 238.63 730.47 238.75C733.85 240.73 736.46 243.77 738.01 247.37C738.06 247.48 738.1 247.58 738.14 247.69C739.2 250.21 740.05 252.81 740.65 255.43Z" fill="#52485C"/>
<path d="M738.14 247.69C737.11 250.49 735.98 253.28 734.57 255.9C728.76 255.75 723.02 254.7 717.45 253.06C717.59 247.51 718.43 241.62 719.89 235.84C723.35 235.85 726.78 236.68 729.85 238.39C730.06 238.51 730.27 238.63 730.47 238.75C733.85 240.73 736.46 243.77 738.01 247.37C738.06 247.48 738.1 247.58 738.14 247.69Z" fill="#6C6175"/>
<path d="M697.73 261.8C699.75 258.21 701.98 254.74 704.18 251.65C707.34 249.09 710.51 246.52 714.08 243.59C713.23 246.65 712.12 249.63 711.07 252.24C706.85 255.65 702.41 258.8 697.73 261.8Z" fill="#39314A"/>
<path d="M687.98 266.08C689.63 265.23 691.28 264.39 692.65 263.53C694.41 259.3 696.17 255.06 697.93 250.83C693.81 255.18 690.45 260.24 687.98 266.08Z" fill="#39314A"/>
<path d="M691.24 270.9C692.65 270.07 693.92 268.99 695.19 267.58C697.06 268.27 699.06 268.59 701.06 268.53C698.33 270.59 694.76 271.48 691.24 270.9Z" fill="#39314A"/>
<path d="M724.75 241.93C724.4 244.3 724.06 246.67 723.71 249.05C725.57 249.93 727.42 250.81 729.2 251.93C729.87 249.73 730.54 247.53 731.21 245.33C729.02 244.45 726.83 243.57 724.75 241.93Z" fill="#39314A"/>
<path d="M726.44 279.3C727.36 277.25 727.92 274.98 727.68 272.74C727.44 270.5 726.31 268.3 724.42 267.08C722.53 265.86 719.85 265.81 718.1 267.22C716.91 268.18 716.25 269.68 716.09 271.2C715.93 272.72 716.21 274.25 716.67 275.7" fill="#FFBA98"/>
<path d="M723.04 303.09C723.38 295.91 723.69 290.02 722.71 282.97C724.26 282.45 725.81 281.94 727.52 281.88C728.73 288.04 729.17 293.12 729.05 299.39C727.29 300.73 725.08 301.86 723.04 303.09Z" fill="#7D7285"/>
<path d="M851.09 317.43C832.12 324.27 816.22 335.66 804.14 350.24C802.77 347.12 801.51 342.9 800.45 340.15C796.02 338.98 790.91 336.72 785.61 333.69C780.3 330.67 774.81 326.88 769.61 322.65C768.04 321.38 766.5 320.08 765 318.73H764.99C758.37 312.8 752.54 306.3 748.65 300C747.79 298.61 747.03 297.24 746.37 295.88C744.48 291.96 743.28 288.83 744.7 285.43V285.41C744.95 284.79 745.29 284.15 745.74 283.51C745.77 283.46 745.8 283.42 745.83 283.38C746.78 282.02 747.79 280.7 748.85 279.42C749.19 279 749.55 278.6 749.93 278.21C755.62 272.2 764.16 269.73 772.24 271.92C775.85 272.9 779.49 273.94 783.16 275.02C788.1 276.47 793.1 277.99 798.17 279.5C798.88 279.72 799.58 279.93 800.29 280.14C806.46 281.97 812.34 284.62 817.78 288.02C820.99 290.02 824.04 292.29 826.89 294.8C827.31 295.17 827.73 295.54 828.15 295.92C835.92 302.79 843.63 309.97 851.07 317.43H851.09Z" fill="#31B15C"/>
<path d="M810.28 303.46C809.39 313.54 806.63 323.46 802.19 332.56" stroke="#31B15C" stroke-linecap="round" stroke-linejoin="round"/>
<path d="M804.49 335.15C811.78 331.13 818.21 325.56 823.22 318.92" stroke="#31B15C" stroke-linecap="round" stroke-linejoin="round"/>
<path d="M843.31 497.82C844.76 499.3 846.53 500.5 848.59 501.23L848.76 501.29C859.41 486.39 870.21 466.22 874.92 451.82C873.37 450.8 871.58 450.03 869.63 449.49C863.04 447.57 854.69 448.27 848.51 450.98C845.02 455.57 845.31 456.38 843 464C842.6 470.09 840.08 479.6 839.36 485.12C838.73 489.88 840.23 494.58 843.31 497.82Z" fill="#443B4A"/>
<path d="M843.311 497.82C844.761 499.3 846.531 500.5 848.591 501.23L848.761 501.29C859.411 486.39 870.211 466.22 874.921 451.82C873.371 450.8 871.581 450.03 869.631 449.49C861.941 466.13 853.141 482.3 843.311 497.82Z" fill="#9E8FA6"/>
<path d="M854.39 450.24C852.61 455.91 849.1 464.98 844.45 468.03C836.51 460.09 828.34 452.43 820.12 445.05C804.04 430.58 787.76 417.15 772.59 404.58C774.59 398.92 775.99 393.7 777.28 388.32C787.9 390.82 799.81 394.32 811.75 397.76C820.5 400.28 824.84 408.25 829.15 416.27C830.96 419.65 832.84 422.88 834.83 425.99C840.32 434.66 846.61 442.46 854.39 450.24Z" fill="#FFBA98"/>
<path d="M854.39 450.24C852.61 455.91 849.1 464.98 844.45 468.03C836.51 460.09 828.34 452.43 820.12 445.05C825.08 438.86 830.03 432.6 834.83 425.99C840.32 434.66 846.61 442.46 854.39 450.24Z" fill="white"/>
<path d="M753.4 316.65C754.93 320.39 756.46 324.14 757.97 327.93C758.87 330.18 759.77 332.46 760.66 334.75C763.3 332.97 766.55 332.2 769.96 332.26C773.35 331.39 777.03 331.36 780.71 332.19C782.65 332.63 784.42 333.57 785.94 334.84C785.83 334.46 785.72 334.07 785.62 333.69C784.4 329.37 783.23 325.1 782.08 320.87C781.94 320.35 781.8 319.82 781.66 319.3C780.05 313.35 778.49 307.47 776.94 301.6C776.77 300.93 776.59 300.28 776.42 299.62C776.31 299.52 776.19 299.42 776.08 299.33C771.34 295.26 766.58 292.06 761.59 289.28C757.92 287.09 753.98 285.06 749.94 282.75C749.27 282.37 748.59 281.98 747.92 281.58C747.15 282.36 746.41 283.18 745.74 284.05C745.38 284.5 745.04 284.95 744.73 285.41C744.72 285.41 744.72 285.42 744.72 285.43C743.62 287.01 742.69 288.75 741.98 290.68C742.61 298.16 745.67 305.42 750.49 311.64C751.67 313.17 752.67 314.85 753.41 316.65H753.4Z" fill="#31B15C"/>
<path d="M762 325.65C760.62 326.35 759.28 327.11 757.97 327.93C760.11 333.27 762.23 338.69 764.28 344.26C756.87 355.97 745.68 367.24 734.55 375.48C736.69 380.67 738.04 384.62 741.3 388.32C756.36 378.55 773.79 365.84 786.23 352.9C788.56 350.47 789.42 346.97 788.48 343.74C787.49 340.35 786.54 337.01 785.61 333.69C784.39 329.37 783.22 325.1 782.07 320.87C777.8 320.85 773.62 321.47 769.61 322.65C768.86 322.87 768.11 323.11 767.37 323.38" fill="#FFBA98"/>
<path d="M767.37 323.38C765.53 324.02 763.74 324.78 762 325.65C759.96 320.67 757.79 315.54 755.91 310.49C752.84 307.51 750.38 303.91 748.65 300C746.44 295.01 745.39 289.5 745.72 284.06C745.73 283.87 745.74 283.69 745.75 283.51V283.49L745.86 283.35L749.94 278.21C749.8 279.71 749.79 281.23 749.92 282.74C750.13 285.89 750.82 288.99 751.86 291.96C753.94 297.89 757.29 303.28 760.82 308.47C762.08 312.01 763.44 315.43 764.99 318.72H765C765.74 320.31 766.52 321.86 767.37 323.38Z" fill="white"/>
<path d="M798.18 279.5C794.74 280.31 791.49 281.89 788.76 284.12C785.67 282.29 782.38 280.47 779.09 278.65C780.24 277.14 781.63 275.94 783.17 275.02C788.11 276.47 793.11 277.99 798.18 279.5Z" fill="white"/>
<path d="M828.17 295.92C826.44 298.16 824.71 300.41 822.97 302.65C820.11 299.68 816.94 297.02 813.53 294.73C814.95 292.49 816.37 290.26 817.8 288.02C821.01 290.02 824.06 292.29 826.91 294.8C827.33 295.17 827.75 295.54 828.17 295.92Z" fill="white"/>
<path d="M711.99 407.67C712.02 407.8 712.06 407.93 712.09 408.06C712.39 409.16 714.78 410.18 715.87 410.18C719.1 410.18 719.16 404.22 722.6 400.25C731.02 399.27 738.86 394.11 743.08 386.75C741 381.89 739.05 377.82 736.85 373.88C728.3 376.35 719.92 378.94 711.79 381.45C710.94 381.71 710.14 382.11 709.41 382.62C706.68 384.54 703.93 386.46 700.98 388.4C698.73 389.88 697.52 392.52 697.9 395.18C698.21 397.28 698.54 399.44 698.95 401.74C699.29 403.62 700.9 405.01 702.82 405.08C703.41 405.1 704.06 405.12 704.8 405.15C704.88 405.53 704.96 405.91 705.06 406.33C705.31 407.4 706.21 408.22 707.31 408.28C708.85 408.35 710.41 408.16 711.99 407.67Z" fill="#FFBA98"/>
<path d="M712.17 406.98C711.99 406.13 711.86 405.27 711.78 404.39C711.41 400.25 713.32 396.15 716.87 394C716.89 393.99 716.91 393.97 716.93 393.96" stroke="#CB5144" stroke-linecap="round" stroke-linejoin="round"/>
<path d="M704.93 403.89C704.88 402.77 704.83 401.64 704.77 400.46C704.61 397.14 705.69 393.84 707.92 391.37C708.41 390.83 708.92 390.32 709.46 389.84" stroke="#CB5144" stroke-linecap="round" stroke-linejoin="round"/>
<path d="M774.57 295.7C777.93 303.46 780.35 311.62 781.76 319.96" stroke="#31B15C" stroke-linecap="round" stroke-linejoin="round"/>
<path d="M783.83 304.52C783.7 308.81 782.81 313.08 781.22 317.06" stroke="#31B15C" stroke-linecap="round" stroke-linejoin="round"/>
<path d="M854.91 498.44C852.3 496.93 851.41 493.59 852.93 490.98L866.48 467.61C867.99 465 871.33 464.11 873.94 465.63C876.55 467.14 877.44 470.48 875.92 473.09L862.37 496.46C860.85 499.07 857.51 499.95 854.91 498.44Z" fill="#2C3440"/>
<path d="M854.38 526.34L861.99 481.6C862.32 479.67 864.15 478.37 866.08 478.7C868.01 479.03 869.31 480.86 868.98 482.79L861.37 527.53C861.04 529.46 859.21 530.76 857.28 530.43C855.35 530.11 854.05 528.28 854.38 526.34Z" fill="#B8C7CF"/>
<path d="M744.48 247C753.94 246.77 763.4 246.68 772.86 246.51L801.24 246.23C820.16 246.07 839.07 246.08 857.99 246C876.91 246.08 895.82 246.07 914.74 246.23L943.12 246.51C952.58 246.68 962.04 246.77 971.5 247C962.04 247.23 952.58 247.32 943.12 247.49L914.74 247.77C895.82 247.93 876.91 247.92 857.99 248C839.07 247.92 820.16 247.93 801.24 247.77L772.86 247.49C763.39 247.32 753.94 247.23 744.48 247Z" fill="white"/>
<path d="M848.48 260.5C859.9 260.11 871.31 259.85 882.73 259.72C894.15 259.56 905.56 259.52 916.98 259.5C928.4 259.52 939.81 259.56 951.23 259.72C962.65 259.85 974.06 260.11 985.48 260.5C974.06 260.89 962.65 261.15 951.23 261.28C939.81 261.44 928.4 261.48 916.98 261.5C905.56 261.48 894.15 261.44 882.73 261.28C871.31 261.15 859.89 260.89 848.48 260.5Z" fill="white"/>
<path d="M749.94 230C761.36 229.61 772.77 229.35 784.19 229.22C795.61 229.06 807.02 229.02 818.44 229C829.86 229.02 841.27 229.06 852.69 229.22C864.11 229.35 875.52 229.61 886.94 230C875.52 230.39 864.11 230.65 852.69 230.78C841.27 230.94 829.86 230.98 818.44 231C807.02 230.98 795.61 230.94 784.19 230.78C772.77 230.65 761.35 230.39 749.94 230Z" fill="white"/>
<path d="M848.48 297.5C856.98 297.27 865.48 297.18 873.98 297.01L899.48 296.73C916.48 296.57 933.48 296.58 950.48 296.5C967.48 296.58 984.48 296.57 1001.48 296.73L1026.98 297.01C1035.48 297.18 1043.98 297.27 1052.48 297.5C1043.98 297.73 1035.48 297.82 1026.98 297.99L1001.48 298.27C984.48 298.43 967.48 298.42 950.48 298.5C933.48 298.42 916.48 298.43 899.48 298.27L873.98 297.99C865.48 297.82 856.98 297.73 848.48 297.5Z" fill="white"/>
<path d="M876.48 307.5C883.02 307.27 889.56 307.18 896.1 307.01L915.72 306.73C928.8 306.57 941.89 306.58 954.97 306.5C968.05 306.58 981.14 306.57 994.22 306.73L1013.84 307.01C1020.38 307.18 1026.92 307.27 1033.46 307.5C1026.92 307.73 1020.38 307.82 1013.84 307.99L994.22 308.27C981.14 308.43 968.05 308.42 954.97 308.5C941.89 308.42 928.8 308.43 915.72 308.27L896.1 307.99C889.56 307.82 883.02 307.73 876.48 307.5Z" fill="white"/>
<path d="M866.48 338.62C877.9 338.23 889.31 337.97 900.73 337.84C912.15 337.68 923.56 337.64 934.98 337.62C946.4 337.64 957.81 337.68 969.23 337.84C980.65 337.97 992.06 338.23 1003.48 338.62C992.06 339.01 980.65 339.27 969.23 339.4C957.81 339.56 946.4 339.6 934.98 339.62C923.56 339.6 912.15 339.56 900.73 339.4C889.31 339.26 877.89 339 866.48 338.62Z" fill="white"/>
<path d="M911.5 391.73C923.25 391.34 935 391.08 946.74 390.95C958.49 390.79 970.24 390.75 981.98 390.73C993.73 390.75 1005.48 390.79 1017.22 390.95C1028.97 391.08 1040.72 391.34 1052.46 391.73C1040.71 392.12 1028.96 392.38 1017.22 392.51C1005.47 392.67 993.72 392.71 981.98 392.73C970.23 392.71 958.48 392.67 946.74 392.51C935 392.38 923.25 392.12 911.5 391.73Z" fill="white"/>
<path d="M981.99 411.73C987.86 411.34 993.74 411.08 999.61 410.95C1005.48 410.79 1011.36 410.75 1017.23 410.73C1023.1 410.75 1028.98 410.79 1034.85 410.95C1040.72 411.08 1046.6 411.34 1052.47 411.73C1046.6 412.12 1040.72 412.38 1034.85 412.51C1028.98 412.67 1023.1 412.71 1017.23 412.73C1011.36 412.71 1005.48 412.67 999.61 412.51C993.74 412.38 987.86 412.12 981.99 411.73Z" fill="white"/>
<path d="M902.98 436.73C914.63 436.34 926.29 436.08 937.94 435.95C949.59 435.79 961.25 435.75 972.9 435.73C984.55 435.75 996.21 435.79 1007.86 435.95C1019.51 436.08 1031.17 436.34 1042.82 436.73C1031.17 437.12 1019.51 437.38 1007.86 437.51C996.21 437.67 984.55 437.71 972.9 437.73C961.25 437.71 949.59 437.67 937.94 437.51C926.28 437.38 914.63 437.12 902.98 436.73Z" fill="white"/>
</g>
</g>
<defs>
<clipPath id="clip0_357_192">
<rect width="1148" height="715" fill="white"/>
</clipPath>
<clipPath id="clip1_357_192">
<rect width="391.48" height="353.13" fill="white" transform="translate(661 229)"/>
</clipPath>
</defs>
</svg>
