<svg width="28" height="28" viewBox="0 0 28 28" fill="none" xmlns="http://www.w3.org/2000/svg">
<path fill-rule="evenodd" clip-rule="evenodd" d="M28 14C28 6.26801 21.732 0 14 0C6.26801 0 0 6.26801 0 14C0 21.732 6.26801 28 14 28C21.732 28 28 21.732 28 14ZM18.4205 1.77088C23.4241 3.57987 27 8.37234 27 14C27 21.1797 21.1797 27 14 27C6.8203 27 1 21.1797 1 14C1 6.8203 6.8203 1 14 1C15.1499 1 16.2649 1.14929 17.3267 1.42956L9.39445 8.48047C8.78638 9.02097 9.04385 10.0227 9.83719 10.203L19.031 12.2925L10.4705 21.2811L10.3902 17.9892C10.3835 17.7131 10.1542 17.4948 9.87815 17.5015C9.60209 17.5082 9.38376 17.7375 9.39049 18.0135L9.50021 22.5122C9.50695 22.7883 9.7362 23.0066 10.0123 22.9999L14.5109 22.8901C14.787 22.8834 15.0053 22.6542 14.9986 22.3781C14.9918 22.102 14.7626 21.8837 14.4865 21.8904L11.1946 21.9707L19.7551 12.9822C20.2903 12.4202 20.0093 11.4894 19.2526 11.3174L10.0588 9.22788L18.3322 1.87371C18.367 1.84281 18.3964 1.80814 18.4205 1.77088Z" fill="#050733"/>
</svg>
