<svg width="28" height="28" viewBox="0 0 28 28" fill="none" xmlns="http://www.w3.org/2000/svg">
<path fill-rule="evenodd" clip-rule="evenodd" d="M9.47039 5.76029C10.0476 5.23556 10.9079 5.171 11.5569 5.60371L13.0384 6.59136C13.6604 7.00602 13.9385 7.77833 13.7237 8.49434L12.7618 11.7006C12.6659 12.0204 12.8092 12.3635 13.1041 12.52L17.3025 14.7486C17.5589 14.8847 17.7762 15.0842 17.9337 15.3281L20.2253 18.878C20.9555 20.0092 20.1435 21.5 18.797 21.5H6.2C5.26112 21.5 4.5 20.7389 4.5 19.8V11.0309C4.5 10.5519 4.70205 10.0951 5.05646 9.77296L9.47039 5.76029ZM11.0022 6.43576C10.735 6.25758 10.3807 6.28417 10.1431 6.50023L5.72913 10.5129C5.5832 10.6456 5.5 10.8336 5.5 11.0309V19.8C5.5 20.1866 5.8134 20.5 6.2 20.5H18.797C19.3514 20.5 19.6858 19.8862 19.3851 19.4204L17.0935 15.8705C17.0287 15.7701 16.9392 15.6879 16.8336 15.6319L12.6353 13.4033C11.919 13.0231 11.571 12.1899 11.804 11.4132L12.7659 8.20699C12.8543 7.91216 12.7398 7.59415 12.4837 7.42341L11.0022 6.43576Z" fill="#050733"/>
<path fill-rule="evenodd" clip-rule="evenodd" d="M19.8465 8.36423C19.3008 8.09141 18.6508 8.13187 18.1432 8.47027L16.8494 9.33279C16.0007 9.89859 15.8379 11.0792 16.5017 11.8536L17.8661 13.4455C18.4622 14.1408 19.5019 14.2391 20.2176 13.6676L21.4165 12.7103C21.6923 12.4901 21.8928 12.1894 21.99 11.8501L22.2061 11.0959C22.4316 10.309 22.0643 9.47314 21.3321 9.10707L19.8465 8.36423ZM18.6979 9.30232C18.9069 9.16298 19.1746 9.14632 19.3992 9.25866L20.8849 10.0015C21.1864 10.1522 21.3376 10.4964 21.2448 10.8204L21.0287 11.5747C20.9886 11.7144 20.9061 11.8382 20.7925 11.9289L19.5936 12.8861C19.2989 13.1215 18.8708 13.081 18.6254 12.7947L17.2609 11.2028C16.9876 10.8839 17.0547 10.3978 17.4041 10.1648L18.6979 9.30232Z" fill="#050733"/>
<path fill-rule="evenodd" clip-rule="evenodd" d="M21.1709 14.9832C21.9458 13.7434 23.8207 13.9953 24.2408 15.3957L24.3728 15.8357C24.7516 17.0984 23.6112 18.2931 22.3321 17.9734L21.9802 17.8854C20.8601 17.6054 20.339 16.3142 20.9509 15.3352L21.1709 14.9832ZM23.283 15.6831C23.11 15.1064 22.338 15.0027 22.0189 15.5132L21.7989 15.8652C21.547 16.2683 21.7615 16.8 22.2227 16.9153L22.5747 17.0032C23.1013 17.1349 23.5709 16.643 23.4149 16.123L23.283 15.6831Z" fill="#050733"/>
<path fill-rule="evenodd" clip-rule="evenodd" d="M16.3319 4C14.9492 4 14.1449 5.56293 14.9486 6.68811L15.2699 7.13792C15.8804 7.99275 17.1125 8.09471 17.8553 7.3519L18.3051 6.90208C19.376 5.83114 18.6176 4 17.103 4H16.3319ZM15.7623 6.10687C15.4314 5.64356 15.7625 5 16.3319 5H17.103C17.7267 5 18.039 5.754 17.598 6.19497L17.1482 6.64479C16.8423 6.95066 16.335 6.90867 16.0836 6.55668L15.7623 6.10687Z" fill="#050733"/>
<path fill-rule="evenodd" clip-rule="evenodd" d="M14 0C21.732 0 28 6.26801 28 14C28 21.732 21.732 28 14 28C6.26801 28 0 21.732 0 14C0 6.26801 6.26801 0 14 0ZM27 14C27 6.8203 21.1797 1 14 1C6.8203 1 1 6.8203 1 14C1 21.1797 6.8203 27 14 27C21.1797 27 27 21.1797 27 14Z" fill="#050733"/>
</svg>
