<svg width="750" height="120" viewBox="0 0 750 120" fill="none" xmlns="http://www.w3.org/2000/svg">
<path d="M703.77 120C695.265 120 688.22 118.251 682.634 114.754C677.049 111.22 673.121 106.23 670.85 99.7815C668.616 93.297 668.238 85.6285 669.715 76.776C671.157 68.1422 674.058 60.5648 678.418 54.0438C682.815 47.5229 688.328 42.4409 694.959 38.7979C701.59 35.1549 708.977 33.3334 717.121 33.3334C722.599 33.3334 727.554 34.226 731.987 36.011C736.455 37.7597 740.167 40.419 743.122 43.9892C746.077 47.5229 748.095 51.9491 749.176 57.2679C750.293 62.5866 750.275 68.8161 749.122 75.9564L748.095 82.3498L678.04 82.3498L680.256 67.9236H728.689C729.23 64.572 729.014 61.603 728.041 59.0165C727.068 56.43 725.446 54.4081 723.176 52.9509C720.905 51.4573 718.113 50.7105 714.797 50.7105C711.41 50.7105 708.238 51.5484 705.283 53.2241C702.328 54.8999 699.842 57.1039 697.824 59.8362C695.842 62.532 694.563 65.4646 693.986 68.634L691.445 82.9509C690.725 87.3589 690.869 91.0201 691.878 93.9345C692.923 96.8489 694.725 99.0347 697.283 100.492C699.842 101.913 703.085 102.623 707.013 102.623C709.572 102.623 711.968 102.259 714.203 101.53C716.473 100.802 718.491 99.7269 720.257 98.3061C722.022 96.8489 723.464 95.0456 724.581 92.8963L745.609 94.317C743.663 99.4901 740.708 104.007 736.743 107.869C732.779 111.694 728.005 114.681 722.419 116.831C716.869 118.944 710.653 120 703.77 120Z" fill="#31B15C"/>
<path d="M683.054 34.4263L640.189 118.361H614.242L599.053 34.4263L622.513 34.4263L629.864 94.4809H630.729L657.811 34.4263L683.054 34.4263Z" fill="#31B15C"/>
<path d="M542.121 119.945C536.859 119.945 532.301 119.016 528.445 117.159C524.625 115.264 521.814 112.459 520.012 108.743C518.21 105.027 517.76 100.419 518.661 94.9181C519.454 90.2551 520.949 86.3571 523.147 83.2241C525.382 80.0547 528.103 77.5046 531.31 75.5739C534.517 73.6431 538.067 72.1677 541.959 71.1476C545.887 70.1276 549.941 69.4354 554.121 69.0711C558.95 68.5611 562.878 68.0693 565.905 67.5957C568.968 67.1221 571.256 66.4482 572.77 65.5739C574.284 64.6631 575.202 63.3152 575.527 61.5301V61.2023C576.067 57.7779 575.437 55.1185 573.635 53.2241C571.869 51.2934 569.04 50.328 565.148 50.328C561.04 50.328 557.545 51.2387 554.662 53.0602C551.815 54.8817 549.779 57.195 548.553 60.0001L527.58 58.2515C529.454 53.1513 532.283 48.7433 536.067 45.0274C539.887 41.2751 544.481 38.3972 549.851 36.3935C555.22 34.3535 561.238 33.3334 567.905 33.3334C572.518 33.3334 576.824 33.8799 580.824 34.9728C584.86 36.0657 588.338 37.7597 591.257 40.0547C594.212 42.3498 596.338 45.3006 597.635 48.9072C598.969 52.4773 599.239 56.7578 598.446 61.7487L589.095 118.361H567.256L569.202 106.721H568.554C566.788 109.344 564.626 111.658 562.067 113.661C559.508 115.629 556.572 117.177 553.256 118.306C549.941 119.399 546.229 119.945 542.121 119.945ZM551.364 103.88C554.716 103.88 557.797 103.206 560.608 101.858C563.455 100.474 565.797 98.6158 567.635 96.2842C569.509 93.9527 570.698 91.3116 571.202 88.3607L572.608 79.4536C571.887 79.9272 570.842 80.3462 569.473 80.7105C568.139 81.0748 566.68 81.4209 565.094 81.7487C563.545 82.0402 561.977 82.3134 560.391 82.5684C558.806 82.787 557.382 83.0056 556.121 83.2241C553.346 83.6249 550.86 84.2624 548.661 85.1367C546.463 86.011 544.679 87.195 543.31 88.6886C541.941 90.1458 541.094 91.9673 540.769 94.1531C540.265 97.3225 541.004 99.7451 542.986 101.421C545.004 103.06 547.797 103.88 551.364 103.88Z" fill="#31B15C"/>
<path d="M417.741 118.361L408.984 34.4263L432.282 34.4263L435.85 90.8197H436.607L459.31 34.4263L482.175 34.4263L486.499 90.4918H487.202L509.148 34.4263L532.392 34.4263L496.013 118.361H471.634L466.012 65.5738L464.985 65.5738L442.066 118.361H417.741Z" fill="#31B15C"/>
<path d="M360.634 120C352.129 120 345.084 118.251 339.498 114.754C333.913 111.22 329.985 106.23 327.714 99.7815C325.48 93.297 325.102 85.6285 326.579 76.776C328.021 68.1422 330.922 60.5648 335.282 54.0438C339.679 47.5229 345.192 42.4409 351.823 38.7979C358.454 35.1549 365.841 33.3334 373.985 33.3334C379.463 33.3334 384.418 34.226 388.851 36.011C393.319 37.7597 397.031 40.419 399.986 43.9892C402.941 47.5229 404.959 51.9491 406.04 57.2679C407.157 62.5866 407.139 68.8161 405.986 75.9564L404.959 82.3498L334.904 82.3498L337.12 67.9236H385.553C386.094 64.572 385.878 61.603 384.905 59.0165C383.932 56.43 382.31 54.4081 380.04 52.9509C377.769 51.4573 374.976 50.7105 371.661 50.7105C368.274 50.7105 365.102 51.5484 362.147 53.2241C359.192 54.8999 356.706 57.1039 354.688 59.8362C352.706 62.532 351.427 65.4646 350.85 68.634L348.309 82.9509C347.589 87.3589 347.733 91.0201 348.742 93.9345C349.787 96.8489 351.589 99.0347 354.147 100.492C356.706 101.913 359.949 102.623 363.877 102.623C366.436 102.623 368.832 102.259 371.067 101.53C373.337 100.802 375.355 99.7269 377.121 98.3061C378.886 96.8489 380.328 95.0456 381.445 92.8963L402.473 94.317C400.527 99.4901 397.572 104.007 393.607 107.869C389.643 111.694 384.869 114.681 379.283 116.831C373.733 118.944 367.517 120 360.634 120Z" fill="#31B15C"/>
<path d="M274.822 94.2079L279.417 66.2844H282.768L314.715 34.4265H341.148L298.552 76.6123L293.039 76.6123L274.822 94.2079ZM250.011 118.361L268.39 6.44836L291.417 6.44836L273.038 118.361H250.011ZM301.904 118.361L283.525 81.8036L301.525 65.3555L328.877 118.361H301.904Z" fill="#31B15C"/>
<path d="M220.715 118.361L234.553 34.4262L257.581 34.4262L243.743 118.361H220.715ZM248.446 23.4973C245.022 23.4973 242.193 22.3497 239.959 20.0546C237.761 17.7231 236.86 14.9545 237.256 11.7486C237.653 8.46995 239.202 5.70128 241.905 3.44263C244.608 1.14754 247.671 0 251.094 0C254.518 0 257.311 1.14754 259.473 3.44263C261.635 5.70128 262.536 8.46995 262.176 11.7486C261.815 14.9545 260.284 17.7231 257.581 20.0546C254.914 22.3497 251.869 23.4973 248.446 23.4973Z" fill="#31B15C"/>
<path d="M136.554 118.361L154.933 6.44836L177.96 6.44836L171.149 48.5249H171.798C173.167 46.2662 175.005 43.9711 177.311 41.6396C179.654 39.2717 182.519 37.3045 185.906 35.738C189.294 34.1351 193.312 33.3336 197.96 33.3336C204.015 33.3336 209.33 34.9365 213.907 38.1424C218.483 41.3118 221.781 46.1023 223.799 52.5139C225.817 58.8892 226.033 66.8855 224.447 76.503C222.934 85.8655 220.141 93.7708 216.069 100.219C212.033 106.631 207.186 111.494 201.528 114.809C195.906 118.088 189.942 119.727 183.636 119.727C179.167 119.727 175.492 118.98 172.609 117.487C169.762 115.993 167.546 114.117 165.96 111.858C164.374 109.563 163.239 107.25 162.554 104.918H161.419L159.257 118.361H136.554ZM166.014 76.3937C165.221 81.3846 165.203 85.738 165.96 89.4538C166.753 93.1697 168.266 96.0659 170.501 98.1424C172.771 100.182 175.744 101.202 179.42 101.202C183.203 101.202 186.555 100.164 189.474 98.0877C192.429 95.9748 194.879 93.0604 196.825 89.3445C198.771 85.5923 200.141 81.2753 200.934 76.3937C201.69 71.5485 201.708 67.2863 200.988 63.6068C200.267 59.9274 198.789 57.0495 196.555 54.973C194.321 52.8965 191.294 51.8582 187.474 51.8582C183.762 51.8582 180.429 52.86 177.474 54.8637C174.555 56.8673 172.104 59.7088 170.122 63.3883C168.176 67.0677 166.807 71.4028 166.014 76.3937Z" fill="#31B15C"/>
<path d="M113.163 77.6272C113.163 95.6788 98.6877 110.312 80.831 110.312C62.9743 110.312 48.4985 95.6788 48.4985 77.6272C48.4985 59.5757 62.9743 44.942 80.831 44.942C98.6877 44.942 113.163 59.5757 113.163 77.6272Z" fill="#31B15C"/>
<path fill-rule="evenodd" clip-rule="evenodd" d="M7.06649e-07 44.9419C3.16378e-07 40.4291 3.48347 36.7706 7.78054 36.7706L52.8428 36.7706C57.1399 36.7706 60.6234 40.429 60.6234 44.9419C60.6234 49.4548 57.1399 53.1132 52.8428 53.1132L7.78054 53.1132C3.48347 53.1132 1.09692e-06 49.4548 7.06649e-07 44.9419Z" fill="#2C2C2C"/>
<path fill-rule="evenodd" clip-rule="evenodd" d="M8.0835 69.4561C8.0835 64.9432 11.567 61.2848 15.864 61.2848L60.9263 61.2848C65.2234 61.2848 68.7069 64.9432 68.7069 69.4561C68.7069 73.969 65.2234 77.6274 60.9263 77.6274L15.864 77.6274C11.567 77.6274 8.0835 73.969 8.0835 69.4561Z" fill="#2C2C2C"/>
<path fill-rule="evenodd" clip-rule="evenodd" d="M16.167 93.97C16.167 89.4571 19.6505 85.7986 23.9475 85.7986L69.0098 85.7986C73.3069 85.7986 76.7904 89.4571 76.7904 93.9699C76.7904 98.4828 73.3069 102.141 69.0098 102.141L23.9475 102.141C19.6505 102.141 16.167 98.4828 16.167 93.97Z" fill="#2C2C2C"/>
<path fill-rule="evenodd" clip-rule="evenodd" d="M53.6281 12.07C55.0382 9.65404 57.6065 8.17139 60.3814 8.17139H132.818C148.748 8.17139 161.662 21.2261 161.662 37.3299V49.5124C161.662 62.0402 151.266 72.0039 138.891 71.3365C126.196 70.6518 116.249 60.0461 116.249 47.1943V40.5117C116.249 36.134 119.76 32.5852 124.09 32.5852C128.421 32.5852 131.931 36.134 131.931 40.5117V47.1943C131.931 51.6189 135.356 55.2702 139.727 55.5059C143.125 55.6892 145.98 52.9529 145.98 49.5124V37.3299C145.98 29.9815 140.087 24.0245 132.818 24.0245H73.6713L118.865 106.723C120.959 110.555 119.584 115.377 115.794 117.494C112.003 119.611 107.233 118.221 105.139 114.389L53.518 19.9309C52.1761 17.4755 52.218 14.486 53.6281 12.07Z" fill="#2C2C2C"/>
<path fill-rule="evenodd" clip-rule="evenodd" d="M52.3324 11.314C54.0086 8.44196 57.0675 6.67145 60.3811 6.67145H132.818C149.592 6.67145 163.162 20.4131 163.162 37.33V49.5125C163.162 62.8838 152.06 73.549 138.81 72.8344C125.305 72.106 114.749 60.8291 114.749 47.1944V40.5118C114.749 35.321 118.916 31.0852 124.09 31.0852C129.264 31.0852 133.431 35.321 133.431 40.5118V47.1944C133.431 50.836 136.246 53.8161 139.807 54.0081C142.33 54.1442 144.48 52.1094 144.48 49.5125V37.33C144.48 30.7947 139.243 25.5246 132.818 25.5246H76.2002L120.181 106.004C122.666 110.551 121.041 116.282 116.525 118.804C111.999 121.331 106.312 119.665 103.822 115.108L52.2015 20.6503C50.6075 17.7336 50.6571 14.1843 52.3324 11.314ZM118.865 106.723C120.959 110.555 119.584 115.377 115.793 117.494C112.003 119.611 107.232 118.221 105.138 114.389L53.5178 19.931C52.1759 17.4756 52.2178 14.4861 53.6279 12.0701C55.0379 9.6541 57.6062 8.17145 60.3811 8.17145H132.818C148.748 8.17145 161.662 21.2262 161.662 37.33V49.5125C161.662 62.0402 151.266 72.004 138.891 71.3365C126.196 70.6518 116.249 60.0462 116.249 47.1944V40.5118C116.249 36.1341 119.76 32.5852 124.09 32.5852C128.421 32.5852 131.931 36.1341 131.931 40.5118V47.1944C131.931 51.6189 135.356 55.2702 139.726 55.506C143.125 55.6893 145.98 52.9529 145.98 49.5125V37.33C145.98 29.9816 140.087 24.0246 132.818 24.0246H73.671L118.865 106.723Z" fill="#2C2C2C"/>
</svg>
