<svg width="1829" height="1851" viewBox="0 0 1829 1851" fill="none" xmlns="http://www.w3.org/2000/svg">
<ellipse cx="914.5" cy="925.5" rx="914.5" ry="925.5" fill="#31B15C"/>
<path d="M1119 1197.5C1119 1347.45 999.012 1469 851 1469C702.988 1469 583 1347.45 583 1197.5C583 1047.55 702.988 926 851 926C999.012 926 1119 1047.55 1119 1197.5Z" fill="#102224"/>
<path fill-rule="evenodd" clip-rule="evenodd" d="M517.644 437.169C531.442 413.516 556.572 399 583.724 399H1292.51C1448.39 399 1574.75 526.81 1574.75 684.473V803.743C1574.75 926.394 1473.02 1023.94 1351.93 1017.41C1227.71 1010.71 1130.39 906.872 1130.39 781.048V715.623C1130.39 672.764 1164.74 638.02 1207.11 638.02C1249.48 638.02 1283.84 672.764 1283.84 715.623V781.048C1283.84 824.366 1317.34 860.114 1360.11 862.422C1393.36 864.216 1421.3 837.427 1421.3 803.743V684.473C1421.3 612.529 1363.64 554.208 1292.51 554.208H713.765L1155.98 1363.86C1176.48 1401.37 1163.02 1448.58 1125.93 1469.31C1088.84 1490.03 1042.16 1476.42 1021.67 1438.91L516.567 514.13C503.437 490.091 503.847 460.823 517.644 437.169Z" fill="#F9F9F9"/>
<path fill-rule="evenodd" clip-rule="evenodd" d="M241 926.5C241 893.639 266.57 867 298.112 867L628.888 867C660.43 867 686 893.639 686 926.5C686 959.361 660.43 986 628.888 986L298.112 986C266.57 986 241 959.361 241 926.5Z" fill="#F9F9F9"/>
<path fill-rule="evenodd" clip-rule="evenodd" d="M300 1105.5C300 1072.64 325.628 1046 357.241 1046L688.759 1046C720.373 1046 746 1072.64 746 1105.5C746 1138.36 720.373 1165 688.759 1165L357.241 1165C325.628 1165 300 1138.36 300 1105.5Z" fill="#F9F9F9"/>
<path fill-rule="evenodd" clip-rule="evenodd" d="M360 1284.5C360 1251.64 385.57 1225 417.112 1225L747.888 1225C779.43 1225 805 1251.64 805 1284.5C805 1317.36 779.43 1344 747.888 1344L417.112 1344C385.57 1344 360 1317.36 360 1284.5Z" fill="#F9F9F9"/>
</svg>
