<svg width="390" height="844" viewBox="0 0 390 844" fill="none" xmlns="http://www.w3.org/2000/svg">
<g clip-path="url(#clip0_357_39)">
<rect width="390" height="844" fill="#DFF6E7"/>
<path d="M165.871 103.997C86.5007 103.997 14.4607 103.997 -68.5493 102.727C-70.0593 95.9874 -67.6893 88.4074 -62.7293 84.0674C-57.7693 79.7274 -50.4593 78.8374 -44.7393 81.8874C-46.3693 64.5574 -35.5993 46.7774 -20.3193 41.6074C-5.03926 36.4374 13.1007 44.4174 20.7807 59.6974C26.8407 53.5174 37.7607 54.5074 42.8007 61.6874C43.1507 49.5974 58.0507 41.4074 67.1907 48.2974C76.2207 26.9774 101.861 16.1374 121.741 25.2374C141.621 34.3374 152.441 61.8674 144.761 83.7974C155.531 81.0474 167.401 91.2074 165.871 103.997Z" fill="white"/>
<path d="M62.5956 432.753C38.6456 432.753 16.8956 432.753 -8.04442 431.973C-9.56442 429.763 -9.24443 426.833 -7.27443 424.863C-5.30443 422.893 -1.78442 421.973 1.28557 422.633C1.36557 419.523 2.52557 416.383 4.99557 413.963C7.46557 411.553 11.3056 409.943 15.2156 410.083C19.1256 410.223 22.9556 412.243 24.2056 415.193C26.5356 410.823 33.6856 408.543 39.1856 410.413C44.6856 412.283 47.5256 417.963 45.0656 422.593C46.7056 422.303 48.5156 422.803 49.5756 423.833C51.2056 422.213 54.1156 421.543 56.6556 422.053C59.1856 422.563 61.2856 424.153 62.2556 426.073C63.2256 427.993 63.1356 430.203 62.5956 432.753Z" fill="white"/>
<path d="M459.47 132.993C410.98 132.703 362.48 132.423 314 132.303C315.85 127.683 321.18 124.653 326.22 125.353C325.93 118.843 334.67 113.883 340.35 117.323C343.11 109.383 351.6 103.693 360.21 104.013C368.82 104.333 376.84 110.623 378.98 118.743C383.43 116.163 389.49 116.553 393.55 119.673C397.54 113.523 405.19 109.803 412.64 110.403C420.09 111.003 427.01 115.883 429.91 122.583C439.04 118.173 450.88 119.813 459.47 132.993Z" fill="white"/>
<path d="M431 394.714V482.014C264.28 479.924 97.48 483.494 -69 492.714V395.784C-68.76 395.734 -68.52 395.684 -68.28 395.644C-58.63 394.014 -48.25 399.894 -44.68 409.004C-38.31 401.854 -23.85 407.814 -24.37 417.374C-16.92 410.354 -4.86 408.804 4.12 413.704C8.91 402.274 22.68 395.454 34.68 398.584C46.67 401.704 55.36 414.384 53.96 426.694C57.39 419.404 68.28 417.074 74.4 422.314C77.67 407.534 97.61 399.504 110.22 407.884C114.37 397.404 125.86 390.354 137.08 391.404C148.3 392.454 158.28 401.524 160.41 412.584C167.76 405.634 181.37 407.384 186.71 415.974C195.16 406.024 212.81 406.234 221.02 416.384C224.04 404.114 235.1 394.254 247.63 392.644C260.16 391.034 273.35 397.794 279.37 408.894C289.79 404.144 303.75 411.734 305.43 423.054C313.1 417.324 323.97 416.214 332.64 420.294C330.92 406.924 347.27 395.054 359.44 400.824C363.4 386.684 376.99 375.804 391.65 375.044C406.31 374.274 420.96 383.674 426.37 397.334C427.79 396.254 429.35 395.374 431 394.714Z" fill="#31B15C"/>
<path d="M423 456H-77V861H423V456Z" fill="#2C7745"/>
<g clip-path="url(#clip1_357_39)">
<path d="M322.501 581C390.133 581 444.959 579.545 444.959 577.75C444.959 575.956 390.133 574.501 322.501 574.501C254.869 574.501 200.042 575.956 200.042 577.75C200.042 579.545 254.869 581 322.501 581Z" fill="#225332"/>
<path d="M318.885 563.821C319.569 564.854 320.469 565.771 321.579 566.464L321.672 566.522C329.243 559.553 337.412 549.624 341.532 542.136C340.747 541.349 339.796 540.677 338.723 540.099C335.136 538.121 330.273 537.392 326.463 538.078C324.013 540.193 322.832 543.306 320.758 547.299C319.929 550.686 318.813 553.098 317.862 556.116C317.033 558.723 317.437 561.575 318.885 563.821Z" fill="#74686E"/>
<path d="M318.885 563.821C319.569 564.853 320.47 565.771 321.579 566.464L321.673 566.522C329.243 559.553 337.412 549.624 341.532 542.136C340.747 541.349 339.796 540.677 338.723 540.099C332.679 548.454 326.045 556.39 318.885 563.821Z" fill="#B7A6B3"/>
<path d="M337.967 498.383C336.007 512.551 334.747 526.82 334.206 541.132C330.979 542.165 327.752 543.197 322.904 543.154C322.141 522.733 319.684 502.376 315.557 482.403C313.734 474.214 312.423 465.96 311.559 457.677C310.622 448.738 310.205 439.762 310.233 430.786C318.236 422.2 326.996 414.004 335.748 405.808C338.211 412.249 337.952 420.691 336.281 428.078C335.856 436.332 335.431 444.585 335.006 452.919C334.603 460.768 334.192 468.682 333.781 476.748C334.847 480.554 335.906 484.36 337.117 488.266C338.132 491.537 338.435 494.996 337.967 498.383Z" fill="#FBB097"/>
<path d="M336.281 428.078C335.856 436.332 335.431 444.585 335.006 452.919C327.406 455.403 319.519 456.999 311.559 457.677C310.622 448.738 310.205 439.762 310.233 430.786C318.236 422.2 326.996 414.004 335.748 405.808C338.211 412.249 337.952 420.691 336.281 428.078Z" fill="#524A57"/>
<path d="M336.764 557.163L397.381 552.267" stroke="#B8C7CF" stroke-miterlimit="10"/>
<path d="M333.875 525.686L398.122 524.711" stroke="#B8C7CF" stroke-miterlimit="10"/>
<path d="M350.212 533.384C345.861 525.556 335.985 522.733 328.17 527.109C320.347 531.478 317.552 541.378 321.91 549.205C326.268 557.048 336.137 559.857 343.952 555.481C351.768 551.105 354.57 541.219 350.212 533.384ZM325.447 547.227C322.177 541.349 324.28 533.925 330.144 530.654C336.007 527.376 343.412 529.484 346.675 535.362C349.946 541.24 347.842 548.664 341.979 551.935C336.115 555.213 328.71 553.105 325.447 547.227Z" fill="#47535E"/>
<path d="M336.057 545.097C338.154 545.097 339.854 543.393 339.854 541.291C339.854 539.189 338.154 537.485 336.057 537.485C333.961 537.485 332.261 539.189 332.261 541.291C332.261 543.393 333.961 545.097 336.057 545.097Z" fill="#47535E"/>
<path d="M345.855 533.75L333.435 540.691L335.199 543.864L347.619 536.923L345.855 533.75Z" fill="#47535E"/>
<path d="M324.421 534.659L323.117 538.047L336.384 543.177L337.688 539.788L324.421 534.659Z" fill="#47535E"/>
<path d="M338.036 542.533L334.414 542.63L334.791 556.879L338.413 556.783L338.036 542.533Z" fill="#47535E"/>
<path d="M397.423 532.878L389.111 541.732C388.037 542.872 388.016 544.656 389.06 545.826L394.722 552.166C395.666 553.22 397.315 553.213 398.245 552.152C399.037 551.242 399.023 549.884 398.209 548.996L395.615 546.165C394.542 544.996 394.556 543.19 395.644 542.035L400.19 537.226" fill="#47535E"/>
<path d="M398.122 522.624C392.943 522.624 388.736 526.834 388.736 532.034C388.736 537.233 392.943 541.443 398.122 541.443C403.302 541.443 407.508 537.226 407.508 532.034C407.508 526.842 403.309 522.624 398.122 522.624ZM398.122 538.533C394.542 538.533 391.639 535.622 391.639 532.034C391.639 528.445 394.542 525.535 398.122 525.535C401.703 525.535 404.605 528.445 404.605 532.034C404.605 535.622 401.703 538.533 398.122 538.533Z" fill="#B8C7CF"/>
<path d="M399.642 483.154C373.58 483.154 352.46 504.333 352.46 530.452C352.46 556.571 373.58 577.751 399.642 577.751C425.704 577.751 446.825 556.578 446.825 530.452C446.825 504.326 425.697 483.154 399.642 483.154ZM399.642 569.807C377.96 569.807 360.384 552.188 360.384 530.452C360.384 508.716 377.96 491.097 399.642 491.097C421.325 491.097 438.901 508.716 438.901 530.452C438.901 552.188 421.325 569.807 399.642 569.807Z" fill="#A88F6C"/>
<path d="M399.642 486.042C375.172 486.042 355.341 505.929 355.341 530.452C355.341 554.975 375.172 574.862 399.642 574.862C424.112 574.862 443.944 554.982 443.944 530.452C443.944 505.922 424.112 486.042 399.642 486.042ZM399.642 569.807C377.96 569.807 360.384 552.188 360.384 530.452C360.384 508.716 377.96 491.097 399.642 491.097C421.325 491.097 438.901 508.716 438.901 530.452C438.901 552.188 421.325 569.807 399.642 569.807Z" fill="#3A4352"/>
<path d="M242.182 483.154C216.12 483.154 195 504.333 195 530.452C195 556.571 216.12 577.751 242.182 577.751C268.245 577.751 289.365 556.578 289.365 530.452C289.365 504.326 268.237 483.154 242.182 483.154ZM242.182 569.807C220.5 569.807 202.924 552.188 202.924 530.452C202.924 508.716 220.5 491.097 242.182 491.097C263.865 491.097 281.441 508.716 281.441 530.452C281.441 552.188 263.865 569.807 242.182 569.807Z" fill="#A88F6C"/>
<path d="M242.182 486.042C217.712 486.042 197.881 505.929 197.881 530.452C197.881 554.975 217.712 574.862 242.182 574.862C266.653 574.862 286.484 554.982 286.484 530.452C286.484 505.922 266.653 486.042 242.182 486.042ZM242.182 569.807C220.5 569.807 202.924 552.188 202.924 530.452C202.924 508.716 220.5 491.097 242.182 491.097C263.865 491.097 281.441 508.716 281.441 530.452C281.441 552.188 263.865 569.807 242.182 569.807Z" fill="#3A4352"/>
<path d="M349.759 467.96L264.038 460.544L262.993 463.693L349.096 471.672L349.759 467.96Z" fill="#39314A"/>
<path d="M260.414 470.466L334.912 545.046L336.763 534.871L263.951 463.064L260.414 470.466Z" fill="white"/>
<path d="M256.993 457.793C257.929 452.319 258.527 448.521 259.24 442.665C262.352 442.571 265.406 442.968 268.403 443.625C267.466 449.084 267.005 452.875 266.004 458.71C263.505 458.205 259.42 458.58 256.993 457.793Z" fill="#39314A"/>
<path d="M261.063 443.567C254.061 442.708 247.052 441.849 239.856 441.112C236.636 440.78 233.517 442.455 232.069 445.358C231.896 445.698 231.73 446.051 231.572 446.398C230.145 449.546 230.938 453.229 233.495 455.554C236.059 457.88 238.991 459.851 242.262 461.375C243.825 462.104 245.683 461.476 246.468 459.938C246.512 459.851 246.555 459.772 246.598 459.685C247.39 458.125 246.778 456.233 245.244 455.388C242.478 453.872 240.18 452.074 237.709 449.843C237.399 449.561 237.306 449.099 237.479 448.716C237.479 448.709 237.486 448.702 237.486 448.702C237.659 448.326 238.048 448.102 238.451 448.138C245.755 448.788 252.707 450.088 259.946 451.381C260.148 449.575 260.71 445.972 261.063 443.567Z" fill="#39314A"/>
<path d="M365.152 428.107L355.723 437.502C354.786 438.44 354.138 439.632 353.872 440.939L352.921 445.604L333.918 543.248C333.889 543.4 333.868 543.551 333.875 543.703C333.904 544.548 334.509 545.299 335.373 545.479C336.389 545.689 337.39 545.032 337.599 544.013L357.747 442.419C358.006 441.098 358.655 439.892 359.606 438.946L368.214 430.374C367.191 429.616 366.168 428.858 365.152 428.107Z" fill="#39314A"/>
<path d="M242.622 542.446C247.806 542.446 252.008 538.234 252.008 533.037C252.008 527.841 247.806 523.628 242.622 523.628C237.438 523.628 233.236 527.841 233.236 533.037C233.236 538.234 237.438 542.446 242.622 542.446Z" fill="#B8C7CF"/>
<path d="M237.889 531.109L257.209 455.583L266.271 457.677L246.894 533.413C246.289 535.788 243.839 537.225 241.376 536.655C238.833 536.07 237.263 533.564 237.889 531.109Z" fill="white"/>
<path d="M347.302 422.193C361.449 422.193 370.735 422.157 383.009 423.861C384.536 424.07 385.372 425.717 384.436 426.944C383.478 428.201 382.397 429.385 381.194 430.461C377.614 433.667 372.579 434.685 367.976 433.306C363.286 431.898 358.705 430.23 354.311 428.287C351.833 427.197 349.096 426.858 346.445 427.385C346.257 427.421 346.063 427.457 345.876 427.5C343.232 428.027 341.762 424.496 344.024 423.03C344.06 423.009 344.089 422.987 344.125 422.965C345.062 422.381 346.185 422.193 347.302 422.193Z" fill="#564C39"/>
<path d="M349.614 474.741L402.358 532.07C403.121 532.9 403.143 534.178 402.401 535.03C401.537 536.027 400.002 536.048 399.109 535.081L348.102 479.839L349.614 474.741Z" fill="#39314A"/>
<path d="M336.058 544.967L401.277 535.724L396.876 528.719L338.341 537.558L336.058 544.967Z" fill="#39314A"/>
<path d="M330.396 423.839C323.675 430.685 316.385 437.083 308.915 443.387C308.425 443.806 307.936 444.224 307.439 444.636L303.938 447.561C301.589 449.525 299.227 451.489 296.864 453.453C290.827 458.486 282.01 458.522 276.053 453.403C275.974 453.338 275.902 453.265 275.823 453.2C271.998 449.871 271.378 444.152 274.238 439.964C276.586 436.512 279.107 433.256 281.744 430.165C282.63 429.125 283.523 428.107 284.431 427.103C285.144 426.316 285.864 425.536 286.599 424.764C290.338 420.792 294.227 417.073 298.11 413.549C298.953 410.35 298.838 406.48 299.45 403.208C306.092 397.07 318.165 391.077 329.56 387.502C331.268 389.402 332.744 391.366 333.983 393.373C339.984 403.115 338.413 415.679 330.396 423.839Z" fill="#443B4A"/>
<path d="M307.439 444.636L303.938 447.561C301.589 449.525 299.227 451.489 296.864 453.453C290.827 458.486 282.01 458.522 276.053 453.403C275.974 453.338 275.902 453.265 275.823 453.2C271.998 449.871 271.378 444.152 274.238 439.964C276.586 436.512 279.107 433.256 281.744 430.165C282.63 429.125 283.523 428.107 284.431 427.103C294.019 429.501 302.533 436.028 307.439 444.636Z" fill="#FFBA98"/>
<path d="M299.738 413.361C304.608 410.249 310.824 409.339 316.371 410.935" stroke="#2B2633" stroke-linecap="round" stroke-linejoin="round"/>
<path d="M304.305 408.913C308.044 407.173 312.006 405.938 316.068 405.245" stroke="#2B2633" stroke-linecap="round" stroke-linejoin="round"/>
<path d="M259.903 381.538C255.48 378.324 250.027 376.548 244.567 376.534C240.98 378.505 237.292 380.447 233.438 381.877C231.997 382.412 230.362 381.986 229.382 380.808C227.207 378.194 225.521 375.421 224.167 372.497C222.554 372.367 221.221 372.136 219.896 371.912C220.148 370.562 220.4 369.132 220.565 367.673C220.782 365.803 220.371 363.904 219.377 362.308C218.123 360.286 217.209 358.091 216.704 355.794C215.343 349.642 218.167 343.352 223.519 340.038C225.305 338.933 227.207 337.98 229.21 337.193C235.959 334.55 243.753 337.005 247.564 343.186C247.614 343.273 247.665 343.352 247.715 343.439C248.868 345.353 249.401 347.548 249.538 349.772C249.725 352.812 251.49 355.231 253.247 358.011C256.489 359.362 259.608 359.947 263.584 360.618C262.331 367.413 260.372 375.645 259.903 381.538Z" fill="#FFBA98"/>
<path d="M226.868 353.859C232.336 359.239 240.115 362.149 247.564 361.665C248.774 361.586 249.955 361.218 250.985 360.575C252.08 359.889 253.182 359.022 254.299 358.084C253.298 354.025 249.854 350.631 248.154 347.981C240.079 347.201 233.409 348.183 226.868 353.859Z" fill="#3F2136"/>
<path d="M229.159 353.996C232.069 359.109 236.29 363.456 241.311 366.518C244.502 361.225 247.11 354.451 249.17 348.53C250.027 349.577 251.165 351.325 251.828 352.841C249.674 359.34 245.842 365.976 241.714 371.854C234.893 368.359 229.094 362.878 225.204 356.257C226.364 355.534 227.531 354.812 229.159 353.996Z" fill="#6C6175"/>
<path d="M252.376 345.085C251.497 347.201 250.207 349.144 248.767 350.704C244.524 351.216 240.202 351.101 235.995 350.342C234.504 351.592 233.135 352.689 231.781 353.671C229.987 354.971 227.985 355.946 225.853 356.553C221.567 357.766 217.252 358.322 213.117 357.997C212.879 356.206 212.814 354.314 212.93 352.408C213.383 344.948 217.878 338.326 224.491 334.875C227.221 333.452 230.117 332.326 233.164 331.503C234.561 331.127 235.995 330.939 237.421 330.939C239.914 330.946 242.384 331.546 244.596 332.781C244.747 332.867 244.898 332.954 245.042 333.041C247.477 334.47 249.357 336.666 250.474 339.265C250.51 339.345 250.539 339.417 250.568 339.496C251.331 341.316 251.943 343.194 252.376 345.085Z" fill="#52485C"/>
<path d="M250.567 339.496C249.826 341.518 249.012 343.533 247.996 345.425C243.811 345.317 239.676 344.558 235.664 343.374C235.764 339.366 236.37 335.113 237.421 330.939C239.914 330.946 242.384 331.546 244.596 332.781C244.747 332.867 244.898 332.954 245.042 333.041C247.477 334.47 249.357 336.666 250.474 339.265C250.51 339.345 250.539 339.417 250.567 339.496Z" fill="#6C6175"/>
<path d="M221.458 349.685C222.914 347.093 224.52 344.587 226.105 342.356C228.381 340.507 230.664 338.651 233.236 336.536C232.624 338.745 231.824 340.897 231.068 342.782C228.028 345.244 224.83 347.519 221.458 349.685Z" fill="#39314A"/>
<path d="M214.435 352.776C215.624 352.162 216.812 351.556 217.799 350.935C219.067 347.88 220.335 344.818 221.602 341.764C218.635 344.905 216.214 348.559 214.435 352.776Z" fill="#39314A"/>
<path d="M216.783 356.257C217.799 355.657 218.714 354.877 219.629 353.859C220.976 354.357 222.416 354.588 223.857 354.545C221.89 356.033 219.319 356.675 216.783 356.257Z" fill="#39314A"/>
<path d="M240.922 335.337C240.67 337.048 240.425 338.76 240.173 340.478C241.513 341.114 242.845 341.749 244.128 342.558C244.61 340.969 245.093 339.381 245.575 337.792C243.998 337.157 242.42 336.521 240.922 335.337Z" fill="#39314A"/>
<path d="M242.14 362.322C242.802 360.842 243.206 359.203 243.033 357.585C242.86 355.968 242.046 354.379 240.684 353.498C239.323 352.617 237.393 352.581 236.132 353.599C235.275 354.292 234.799 355.376 234.684 356.473C234.569 357.571 234.77 358.676 235.102 359.723" fill="#FFBA98"/>
<path d="M239.69 379.501C239.935 374.317 240.159 370.063 239.453 364.972C240.569 364.597 241.686 364.229 242.917 364.185C243.789 368.634 244.106 372.302 244.02 376.83C242.752 377.797 241.16 378.613 239.69 379.501Z" fill="#7D7285"/>
<path d="M331.93 389.857C318.265 394.796 306.812 403.021 298.11 413.549C297.123 411.296 296.216 408.249 295.452 406.263C292.261 405.418 288.58 403.786 284.762 401.598C280.937 399.417 276.982 396.68 273.237 393.626C272.106 392.709 270.996 391.77 269.916 390.795H269.909C265.14 386.513 260.94 381.819 258.138 377.27C257.519 376.266 256.971 375.277 256.496 374.295C255.134 371.464 254.27 369.204 255.293 366.749V366.734C255.473 366.287 255.718 365.825 256.042 365.362C256.064 365.326 256.085 365.297 256.107 365.269C256.791 364.286 257.519 363.333 258.282 362.409C258.527 362.106 258.787 361.817 259.06 361.535C263.159 357.195 269.311 355.412 275.131 356.993C277.732 357.701 280.354 358.452 282.997 359.232C286.556 360.279 290.158 361.376 293.81 362.467C294.321 362.626 294.825 362.777 295.337 362.929C299.781 364.25 304.017 366.164 307.936 368.619C310.248 370.063 312.445 371.703 314.498 373.515C314.8 373.782 315.103 374.049 315.406 374.324C321.003 379.285 326.556 384.47 331.916 389.857H331.93Z" fill="#2A894B"/>
<path d="M302.533 379.769C301.892 387.047 299.904 394.211 296.706 400.782" stroke="#2A894B" stroke-linecap="round" stroke-linejoin="round"/>
<path d="M298.362 402.652C303.614 399.749 308.245 395.727 311.854 390.932" stroke="#2A894B" stroke-linecap="round" stroke-linejoin="round"/>
<path d="M326.326 520.119C327.37 521.187 328.645 522.054 330.129 522.581L330.252 522.624C337.923 511.865 345.703 497.3 349.096 486.901C347.979 486.165 346.69 485.609 345.285 485.219C340.538 483.832 334.523 484.338 330.072 486.295C327.558 489.609 327.766 490.194 326.102 495.697C325.814 500.094 323.999 506.962 323.48 510.948C323.027 514.385 324.107 517.779 326.326 520.119Z" fill="#443B4A"/>
<path d="M326.326 520.119C327.37 521.187 328.645 522.054 330.129 522.581L330.252 522.624C337.923 511.865 345.703 497.3 349.096 486.901C347.979 486.165 346.69 485.609 345.285 485.219C339.746 497.235 333.407 508.911 326.326 520.119Z" fill="#9E8FA6"/>
<path d="M334.307 485.76C333.025 489.855 330.497 496.404 327.147 498.607C321.428 492.873 315.542 487.342 309.621 482.013C298.038 471.564 286.311 461.866 275.383 452.789C276.824 448.702 277.832 444.932 278.762 441.047C286.412 442.852 294.991 445.38 303.592 447.864C309.895 449.684 313.021 455.439 316.126 461.23C317.43 463.671 318.784 466.003 320.217 468.249C324.172 474.51 328.703 480.142 334.307 485.76Z" fill="#FFBA98"/>
<path d="M334.307 485.76C333.025 489.855 330.497 496.404 327.147 498.607C321.428 492.873 315.542 487.342 309.621 482.013C313.194 477.543 316.76 473.022 320.217 468.249C324.172 474.51 328.703 480.142 334.307 485.76Z" fill="white"/>
<path d="M261.56 389.293C262.662 391.994 263.765 394.702 264.852 397.439C265.501 399.063 266.149 400.71 266.79 402.364C268.692 401.078 271.033 400.522 273.489 400.565C275.931 399.937 278.582 399.916 281.233 400.515C282.63 400.833 283.905 401.511 285 402.429C284.921 402.154 284.842 401.872 284.77 401.598C283.891 398.479 283.048 395.395 282.22 392.341C282.119 391.965 282.018 391.582 281.917 391.207C280.757 386.91 279.634 382.664 278.517 378.425C278.395 377.942 278.265 377.472 278.143 376.996C278.063 376.923 277.977 376.851 277.898 376.786C274.483 373.847 271.054 371.536 267.46 369.529C264.816 367.948 261.978 366.482 259.068 364.814C258.585 364.539 258.095 364.258 257.613 363.969C257.058 364.532 256.525 365.124 256.042 365.752C255.783 366.077 255.538 366.402 255.315 366.734C255.308 366.734 255.308 366.742 255.308 366.749C254.515 367.89 253.845 369.146 253.334 370.54C253.788 375.941 255.992 381.184 259.464 385.675C260.314 386.78 261.034 387.993 261.568 389.293H261.56Z" fill="#2A894B"/>
<path d="M267.755 395.792C266.761 396.298 265.796 396.847 264.852 397.439C266.393 401.295 267.921 405.209 269.397 409.231C264.06 417.687 255.999 425.825 247.981 431.775C249.523 435.523 250.495 438.375 252.844 441.047C263.692 433.992 276.248 424.814 285.209 415.47C286.887 413.715 287.507 411.188 286.83 408.855C286.116 406.407 285.432 403.996 284.762 401.598C283.883 398.479 283.041 395.395 282.212 392.341C279.136 392.326 276.125 392.774 273.237 393.626C272.696 393.785 272.156 393.958 271.623 394.153" fill="#FFBA98"/>
<path d="M271.623 394.153C270.298 394.615 269.008 395.164 267.755 395.792C266.285 392.196 264.722 388.492 263.368 384.845C261.157 382.693 259.385 380.094 258.138 377.27C256.546 373.667 255.79 369.688 256.028 365.76C256.035 365.622 256.042 365.492 256.049 365.362V365.348L256.129 365.247L259.068 361.535C258.967 362.618 258.96 363.716 259.053 364.806C259.204 367.081 259.702 369.32 260.451 371.464C261.949 375.746 264.362 379.639 266.905 383.386C267.813 385.943 268.792 388.412 269.909 390.788H269.916C270.449 391.936 271.011 393.055 271.623 394.153Z" fill="white"/>
<path d="M293.817 362.467C291.339 363.052 288.998 364.193 287.031 365.803C284.805 364.481 282.435 363.167 280.065 361.853C280.894 360.763 281.895 359.896 283.004 359.232C286.563 360.279 290.165 361.376 293.817 362.467Z" fill="white"/>
<path d="M315.42 374.324C314.174 375.941 312.927 377.566 311.674 379.184C309.614 377.039 307.33 375.118 304.874 373.465C305.897 371.847 306.92 370.237 307.95 368.619C310.262 370.063 312.459 371.703 314.512 373.515C314.815 373.782 315.117 374.049 315.42 374.324Z" fill="white"/>
<path d="M231.731 455.02C231.752 455.114 231.781 455.208 231.803 455.302C232.019 456.096 233.74 456.833 234.526 456.833C236.852 456.833 236.896 452.529 239.373 449.662C245.439 448.954 251.086 445.228 254.126 439.913C252.628 436.404 251.223 433.465 249.638 430.62C243.479 432.403 237.443 434.274 231.587 436.086C230.974 436.274 230.398 436.563 229.872 436.931C227.906 438.318 225.925 439.704 223.8 441.105C222.179 442.174 221.307 444.08 221.581 446.001C221.804 447.517 222.042 449.077 222.337 450.738C222.582 452.096 223.742 453.099 225.125 453.15C225.55 453.164 226.018 453.179 226.551 453.2C226.609 453.475 226.667 453.749 226.739 454.052C226.919 454.825 227.567 455.417 228.359 455.461C229.469 455.511 230.593 455.374 231.731 455.02Z" fill="#FFBA98"/>
<path d="M231.86 454.522C231.731 453.908 231.637 453.287 231.58 452.652C231.313 449.662 232.689 446.701 235.246 445.149C235.261 445.142 235.275 445.127 235.289 445.12" stroke="#CB5144" stroke-linecap="round" stroke-linejoin="round"/>
<path d="M226.645 452.29C226.609 451.482 226.573 450.666 226.53 449.814C226.414 447.416 227.192 445.033 228.799 443.25C229.152 442.86 229.519 442.491 229.908 442.145" stroke="#CB5144" stroke-linecap="round" stroke-linejoin="round"/>
<path d="M276.81 374.165C279.23 379.769 280.973 385.661 281.989 391.683" stroke="#2A894B" stroke-linecap="round" stroke-linejoin="round"/>
<path d="M283.48 380.534C283.387 383.632 282.745 386.715 281.6 389.589" stroke="#2A894B" stroke-linecap="round" stroke-linejoin="round"/>
<path d="M334.682 520.566C332.802 519.476 332.16 517.064 333.255 515.179L343.016 498.304C344.104 496.419 346.51 495.776 348.39 496.874C350.27 497.964 350.911 500.376 349.816 502.261L340.055 519.137C338.961 521.021 336.555 521.657 334.682 520.566Z" fill="#2C3440"/>
<path d="M334.3 540.713L339.782 508.406C340.02 507.012 341.338 506.073 342.728 506.312C344.118 506.55 345.055 507.872 344.817 509.265L339.335 541.573C339.098 542.966 337.779 543.905 336.389 543.667C334.999 543.436 334.062 542.114 334.3 540.713Z" fill="#B8C7CF"/>
<path d="M255.134 338.998C261.949 338.832 268.763 338.767 275.578 338.644L296.021 338.442C309.65 338.326 323.272 338.334 336.9 338.276C350.529 338.334 364.151 338.326 377.78 338.442L398.223 338.644C405.038 338.767 411.852 338.832 418.667 338.998C411.852 339.164 405.038 339.229 398.223 339.352L377.78 339.554C364.151 339.67 350.529 339.662 336.9 339.72C323.272 339.662 309.65 339.67 296.021 339.554L275.578 339.352C268.756 339.229 261.949 339.164 255.134 338.998Z" fill="white"/>
<path d="M330.05 348.747C338.276 348.465 346.495 348.277 354.722 348.183C362.948 348.068 371.167 348.039 379.393 348.024C387.62 348.039 395.839 348.068 404.065 348.183C412.291 348.277 420.511 348.465 428.737 348.747C420.511 349.028 412.291 349.216 404.065 349.31C395.839 349.425 387.62 349.454 379.393 349.469C371.167 349.454 362.948 349.425 354.722 349.31C346.495 349.216 338.269 349.028 330.05 348.747Z" fill="white"/>
<path d="M259.067 326.722C267.294 326.44 275.513 326.253 283.739 326.159C291.965 326.043 300.185 326.014 308.411 326C316.637 326.014 324.856 326.043 333.083 326.159C341.309 326.253 349.528 326.44 357.754 326.722C349.528 327.004 341.309 327.191 333.083 327.285C324.856 327.401 316.637 327.43 308.411 327.444C300.185 327.43 291.965 327.401 283.739 327.285C275.513 327.191 267.286 327.004 259.067 326.722Z" fill="white"/>
<path d="M330.05 375.465C336.173 375.299 342.296 375.234 348.419 375.111L366.787 374.909C379.033 374.793 391.279 374.8 403.525 374.743C415.771 374.8 428.017 374.793 440.262 374.909L458.631 375.111C464.754 375.234 470.877 375.299 477 375.465C470.877 375.631 464.754 375.696 458.631 375.819L440.262 376.021C428.017 376.136 415.771 376.129 403.525 376.187C391.279 376.129 379.033 376.136 366.787 376.021L348.419 375.819C342.296 375.696 336.173 375.631 330.05 375.465Z" fill="white"/>
<path d="M350.219 382.686C354.93 382.52 359.641 382.455 364.352 382.332L378.486 382.13C387.908 382.014 397.337 382.022 406.759 381.964C416.181 382.022 425.61 382.014 435.032 382.13L449.166 382.332C453.877 382.455 458.588 382.52 463.299 382.686C458.588 382.852 453.877 382.917 449.166 383.04L435.032 383.242C425.61 383.357 416.181 383.35 406.759 383.408C397.337 383.35 387.908 383.357 378.486 383.242L364.352 383.04C359.641 382.917 354.93 382.852 350.219 382.686Z" fill="white"/>
<path d="M343.016 405.158C351.242 404.876 359.462 404.689 367.688 404.595C375.914 404.479 384.133 404.45 392.36 404.436C400.586 404.45 408.805 404.479 417.031 404.595C425.258 404.689 433.477 404.876 441.703 405.158C433.477 405.44 425.258 405.627 417.031 405.721C408.805 405.837 400.586 405.866 392.36 405.88C384.133 405.866 375.914 405.837 367.688 405.721C359.462 405.62 351.235 405.432 343.016 405.158Z" fill="white"/>
<path d="M375.446 443.51C383.91 443.228 392.374 443.04 400.831 442.946C409.295 442.831 417.759 442.802 426.216 442.787C434.68 442.802 443.144 442.831 451.6 442.946C460.065 443.04 468.529 443.228 476.985 443.51C468.521 443.791 460.057 443.979 451.6 444.073C443.136 444.188 434.672 444.217 426.216 444.232C417.752 444.217 409.288 444.188 400.831 444.073C392.374 443.979 383.91 443.791 375.446 443.51Z" fill="white"/>
<path d="M369.309 476.005C377.701 475.723 386.1 475.535 394.492 475.441C402.884 475.326 411.283 475.297 419.675 475.283C428.067 475.297 436.466 475.326 444.858 475.441C453.25 475.535 461.649 475.723 470.041 476.005C461.649 476.286 453.25 476.474 444.858 476.568C436.466 476.683 428.067 476.712 419.675 476.727C411.283 476.712 402.884 476.683 394.492 476.568C386.093 476.474 377.701 476.286 369.309 476.005Z" fill="white"/>
</g>
</g>
<defs>
<clipPath id="clip0_357_39">
<rect width="390" height="844" fill="white"/>
</clipPath>
<clipPath id="clip1_357_39">
<rect width="282" height="255" fill="white" transform="translate(195 326)"/>
</clipPath>
</defs>
</svg>
