<svg width="28" height="28" viewBox="0 0 28 28" fill="none" xmlns="http://www.w3.org/2000/svg">
<path fill-rule="evenodd" clip-rule="evenodd" d="M8.5 12.5C8.5 10.8431 9.84315 9.5 11.5 9.5C13.1569 9.5 14.5 10.8431 14.5 12.5C14.5 14.1569 13.1569 15.5 11.5 15.5C9.84315 15.5 8.5 14.1569 8.5 12.5ZM11.5 10.5C10.3954 10.5 9.5 11.3954 9.5 12.5C9.5 13.6046 10.3954 14.5 11.5 14.5C12.6046 14.5 13.5 13.6046 13.5 12.5C13.5 11.3954 12.6046 10.5 11.5 10.5Z" fill="#050733"/>
<path fill-rule="evenodd" clip-rule="evenodd" d="M28 13.9983C27.9991 6.2671 21.7314 0 14 0C6.26801 0 0 6.26801 0 14C0 21.732 6.26801 28 14 28C21.7309 28 27.9983 21.7337 28 14.0032V13.9983ZM26.9473 12.8218C26.352 6.19423 20.7826 1 14 1C6.8203 1 1 6.8203 1 14C1 14.8707 1.08559 15.7213 1.24882 16.5441L3.30487 14.488C3.68591 14.107 4.30035 14.0964 4.6943 14.4641L11.456 20.775L21.2827 9.07655C21.6478 8.64191 22.3011 8.59797 22.7211 8.9798L26.9473 12.8218ZM26.9982 14.2195L22.0484 9.71974L12.2013 21.4425L15.3254 24.1204C15.5351 24.3001 15.5593 24.6157 15.3796 24.8254C15.1999 25.0351 14.8843 25.0593 14.6746 24.8796L11.1746 21.8796L11.1653 21.8715L11.1588 21.8655L4.01198 15.1951L1.52795 17.6792C3.11483 23.0671 8.09813 27 14 27C21.1064 27 26.881 21.298 26.9982 14.2195Z" fill="#050733"/>
</svg>
