<svg width="28" height="28" viewBox="0 0 28 28" fill="none" xmlns="http://www.w3.org/2000/svg">
<path fill-rule="evenodd" clip-rule="evenodd" d="M17.8236 13.1266C17.6801 13.5738 17.6084 14.0464 17.6084 14.5443C17.6084 15.0422 17.6801 15.5148 17.8236 15.962C17.967 16.4093 18.178 16.7932 18.4565 17.1139C19.0388 17.7721 19.8489 18.1013 20.8869 18.1013C21.9248 18.1013 22.735 17.7721 23.3172 17.1139C23.5873 16.7932 23.794 16.4093 23.9375 15.962C24.081 15.5148 24.1527 15.0422 24.1527 14.5443C24.1527 14.0464 24.081 13.5738 23.9375 13.1266C23.794 12.6793 23.5873 12.2953 23.3172 11.9747C22.735 11.308 21.9248 10.9747 20.8869 10.9747C19.8573 10.9747 19.0472 11.308 18.4565 11.9747C18.178 12.2953 17.967 12.6793 17.8236 13.1266ZM18.5451 14.5443C18.5451 14.2067 18.5873 13.8607 18.6717 13.5063C18.7645 13.1519 18.9037 12.8396 19.0894 12.5696C19.2835 12.2996 19.5282 12.0844 19.8236 11.924C20.1189 11.7637 20.4734 11.6835 20.8869 11.6835C21.3004 11.6835 21.6548 11.7637 21.9502 11.924C22.2455 12.0844 22.4902 12.2996 22.6843 12.5696C22.8784 12.8396 23.0177 13.1519 23.1021 13.5063C23.1864 13.8607 23.2286 14.2067 23.2286 14.5443C23.2286 14.8818 23.1864 15.2278 23.1021 15.5823C23.0177 15.9367 22.8784 16.2489 22.6843 16.519C22.4902 16.7806 22.2455 16.9958 21.9502 17.1645C21.6548 17.3249 21.3004 17.4051 20.8869 17.4051C20.4734 17.4051 20.1189 17.3249 19.8236 17.1645C19.5282 16.9958 19.2835 16.7806 19.0894 16.519C18.9037 16.2489 18.7645 15.9367 18.6717 15.5823C18.5873 15.2278 18.5451 14.8818 18.5451 14.5443Z" fill="black"/>
<path fill-rule="evenodd" clip-rule="evenodd" d="M11.205 11.4557C11.205 11.346 11.2345 11.2574 11.2936 11.1899C11.4033 11.0886 11.5172 11.038 11.6354 11.038H13.7366C14.8506 11.038 15.5974 11.3418 15.9772 11.9494C16.1291 12.1772 16.205 12.481 16.205 12.8607C16.205 13.2405 16.0784 13.5612 15.8253 13.8228C15.5805 14.0844 15.2303 14.2658 14.7746 14.3671V14.3924C15.2219 14.4599 15.5383 14.6245 15.724 14.8861C15.8675 15.1139 15.9603 15.4051 16.0025 15.7595C16.0953 16.5443 16.1544 17.1477 16.1797 17.5696C16.1797 17.7131 16.1333 17.8228 16.0404 17.8987C15.9561 17.9662 15.859 18 15.7493 18C15.6396 18 15.5383 17.9705 15.4455 17.9114C15.3527 17.8439 15.3021 17.7426 15.2936 17.6076C15.2514 17.211 15.2177 16.865 15.1923 16.5696C15.167 16.2658 15.1375 16.0084 15.1037 15.7975C15.07 15.5865 15.0236 15.4177 14.9645 15.2911C14.9139 15.1561 14.8379 15.0506 14.7366 14.9747C14.5426 14.8396 14.2008 14.7721 13.7113 14.7721H12.0658V17.5949C12.0658 17.789 11.9772 17.9156 11.7999 17.9747C11.7409 17.9915 11.6691 18 11.5848 18C11.5088 18 11.4244 17.9662 11.3316 17.8987C11.2472 17.8312 11.205 17.7299 11.205 17.5949V11.4557ZM13.3442 14.0886C14.1712 14.0886 14.7198 13.9578 14.9898 13.6962C15.1923 13.5105 15.2936 13.2447 15.2936 12.8987C15.2936 12.4008 15.1122 12.0675 14.7493 11.8987C14.4961 11.7806 14.1333 11.7215 13.6607 11.7215H12.0658V14.0886H13.3442Z" fill="black"/>
<path fill-rule="evenodd" clip-rule="evenodd" d="M5.82264 17.5949V14.9494H7.10112C8.2488 14.9494 9.04626 14.6878 9.49352 14.1645C9.772 13.8439 9.91124 13.4515 9.91124 12.9873C9.91124 12.5232 9.772 12.135 9.49352 11.8228C9.02939 11.2996 8.24458 11.038 7.13909 11.038H5.39226C5.26567 11.038 5.14753 11.0886 5.03783 11.1899C4.97875 11.2574 4.94922 11.346 4.94922 11.4557V17.5949C4.94922 17.7299 4.99563 17.8312 5.08846 17.8987C5.18129 17.9662 5.26567 18 5.34162 18C5.42601 18 5.49352 17.9915 5.54416 17.9747C5.72981 17.9156 5.82264 17.789 5.82264 17.5949ZM8.48086 14C8.21082 14.1772 7.80576 14.2658 7.26567 14.2658H5.82264V11.7215H7.27833C7.7931 11.7215 8.19394 11.8143 8.48086 12C8.82686 12.211 8.99985 12.5401 8.99985 12.9873C8.99985 13.443 8.82686 13.7806 8.48086 14Z" fill="black"/>
<path fill-rule="evenodd" clip-rule="evenodd" d="M28 14C28 6.26801 21.732 0 14 0C6.26801 0 0 6.26801 0 14C0 21.732 6.26801 28 14 28C21.732 28 28 21.732 28 14ZM14 1C21.1797 1 27 6.8203 27 14C27 21.1797 21.1797 27 14 27C6.8203 27 1 21.1797 1 14C1 6.8203 6.8203 1 14 1Z" fill="black"/>
</svg>
