<svg width="28" height="28" viewBox="0 0 28 28" fill="none" xmlns="http://www.w3.org/2000/svg">
<path d="M14.5 17.5C14.5 17.2239 14.2761 17 14 17C13.7239 17 13.5 17.2239 13.5 17.5V25.5C13.5 25.7761 13.7239 26 14 26C14.2761 26 14.5 25.7761 14.5 25.5V17.5Z" fill="#050733"/>
<path d="M14 7.5C14.2761 7.5 14.5 7.72386 14.5 8V13C14.5 13.2761 14.2761 13.5 14 13.5C13.7239 13.5 13.5 13.2761 13.5 13V8C13.5 7.72386 13.7239 7.5 14 7.5Z" fill="#050733"/>
<path d="M14.5 2C14.5 1.72386 14.2761 1.5 14 1.5C13.7239 1.5 13.5 1.72386 13.5 2V3.5C13.5 3.77614 13.7239 4 14 4C14.2761 4 14.5 3.77614 14.5 3.5V2Z" fill="#050733"/>
<path fill-rule="evenodd" clip-rule="evenodd" d="M28 14C28 6.26801 21.732 0 14 0C6.26801 0 0 6.26801 0 14C0 21.732 6.26801 28 14 28C21.732 28 28 21.732 28 14ZM14 1C14.3868 1 14.7697 1.01689 15.1479 1.04999L24.1842 22.0805C21.8027 25.078 18.1258 27 14 27C9.67722 27 5.84723 24.8901 3.48366 21.644L12.8483 1.05032C13.2277 1.01701 13.6119 1 14 1ZM24.8673 21.1372L16.3022 1.20321C22.3837 2.29 27 7.60591 27 14C27 16.6359 26.2155 19.0885 24.8673 21.1372ZM11.6787 1.20666C5.60655 2.30118 1 7.61263 1 14C1 16.4339 1.66889 18.7117 2.83286 20.6593L11.6787 1.20666Z" fill="#050733"/>
</svg>
