<svg width="855" height="575" viewBox="0 0 855 575" fill="none" xmlns="http://www.w3.org/2000/svg">
<g clip-path="url(#clip0_366_6)">
<rect width="855" height="575" fill="#DFF6E7"/>
<path d="M855 406.684V483.425C650.867 481.588 446.636 484.726 242.796 492.831V407.624C243.09 407.58 243.384 407.536 243.678 407.501C255.493 406.068 268.203 411.237 272.574 419.245C280.373 412.96 298.078 418.199 297.442 426.603C306.564 420.432 321.33 419.069 332.325 423.377C338.19 413.329 355.05 407.334 369.743 410.086C384.424 412.828 395.064 423.975 393.35 434.796C397.549 428.387 410.883 426.339 418.376 430.945C422.38 417.953 446.795 410.894 462.235 418.261C467.316 409.048 481.384 402.851 495.122 403.774C508.86 404.697 521.08 412.67 523.688 422.392C532.687 416.283 549.351 417.821 555.89 425.372C566.236 416.626 587.847 416.81 597.899 425.733C601.597 414.947 615.139 406.279 630.481 404.864C645.822 403.449 661.972 409.391 669.343 419.149C682.102 414.973 699.194 421.645 701.251 431.596C710.643 426.559 723.952 425.583 734.568 429.17C732.462 417.417 752.481 406.982 767.382 412.055C772.23 399.625 788.87 390.061 806.82 389.393C824.77 388.716 842.707 396.979 849.331 408.987C851.07 408.037 852.98 407.264 855 406.684Z" fill="#188E40"/>
<path d="M270.805 145C155.299 145 50.4596 145 -70.344 143.327C-72.5415 134.45 -69.0925 124.466 -61.8743 118.75C-54.656 113.034 -44.0178 111.861 -35.6936 115.879C-38.0657 93.053 -22.3922 69.6347 -0.155372 62.8252C22.0815 56.0157 48.4804 66.5263 59.6571 86.6518C68.4761 78.512 84.3679 79.816 91.7026 89.2728C92.2119 73.3489 113.896 62.5617 127.197 71.6367C140.338 43.5558 177.652 29.2782 206.583 41.264C235.514 53.2497 251.261 89.5099 240.084 118.394C255.757 114.772 273.032 128.154 270.805 145Z" fill="white"/>
<path d="M907.134 200.815C855.993 200.456 804.842 200.109 753.711 199.96C755.662 194.23 761.283 190.473 766.599 191.341C766.293 183.268 775.511 177.117 781.502 181.383C784.412 171.537 793.367 164.481 802.447 164.877C811.528 165.274 819.987 173.074 822.244 183.144C826.937 179.945 833.328 180.428 837.61 184.297C841.818 176.671 849.887 172.058 857.744 172.802C865.601 173.546 872.9 179.597 875.958 187.906C885.587 182.437 898.075 184.471 907.134 200.815Z" fill="white"/>
<path d="M-361.96 407.56V484.302C-157.826 482.465 46.4048 485.603 250.244 493.708V408.501C249.95 408.457 249.656 408.413 249.363 408.378C237.547 406.945 224.838 412.114 220.467 420.122C212.667 413.837 194.962 419.076 195.599 427.48C186.477 421.309 171.711 419.946 160.715 424.254C154.851 414.206 137.99 408.211 123.298 410.962C108.617 413.705 97.9768 424.851 99.691 435.673C95.4913 429.264 82.1575 427.216 74.6641 431.822C70.6603 418.83 46.2456 411.771 30.8058 419.138C25.7245 409.925 11.6561 403.728 -2.08178 404.651C-15.8196 405.574 -28.0392 413.547 -30.6472 423.269C-39.6466 417.16 -56.3108 418.698 -62.8492 426.249C-73.1954 417.503 -94.8062 417.687 -104.859 426.61C-108.556 415.824 -122.098 407.156 -137.44 405.741C-152.782 404.326 -168.932 410.268 -176.303 420.025C-189.061 415.85 -206.154 422.522 -208.211 432.473C-217.602 427.436 -230.911 426.46 -241.527 430.047C-239.421 418.294 -259.44 407.859 -274.341 412.931C-279.19 400.502 -295.829 390.938 -313.779 390.269C-331.729 389.593 -349.667 397.856 -356.291 409.864C-358.029 408.914 -359.939 408.141 -361.96 407.56Z" fill="#188E40"/>
<path d="M927.346 465.646H-168.808V833.077H927.346V465.646Z" fill="#2C7745"/>
<g clip-path="url(#clip1_366_6)">
<path d="M533.421 494C608.967 494 670.21 492.38 670.21 490.381C670.21 488.382 608.967 486.762 533.421 486.762C457.875 486.762 396.632 488.382 396.632 490.381C396.632 492.38 457.875 494 533.421 494Z" fill="#225332"/>
<path d="M529.382 474.867C530.146 476.017 531.152 477.039 532.391 477.811L532.496 477.875C540.952 470.114 550.077 459.056 554.68 450.716C553.803 449.839 552.74 449.091 551.542 448.448C547.534 446.244 542.103 445.432 537.847 446.196C535.111 448.553 533.791 452.019 531.474 456.466C530.548 460.238 529.301 462.924 528.239 466.286C527.314 469.189 527.764 472.366 529.382 474.867Z" fill="#74686E"/>
<path d="M529.382 474.867C530.146 476.017 531.152 477.039 532.391 477.811L532.496 477.875C540.953 470.114 550.077 459.056 554.68 450.716C553.803 449.839 552.741 449.091 551.542 448.448C544.791 457.753 537.38 466.592 529.382 474.867Z" fill="#B7A6B3"/>
<path d="M550.696 401.987C548.508 417.766 547.1 433.658 546.496 449.598C542.891 450.748 539.287 451.898 533.871 451.85C533.019 429.106 530.275 406.435 525.664 384.19C523.628 375.07 522.164 365.877 521.198 356.653C520.152 346.696 519.686 336.699 519.718 326.703C528.657 317.14 538.442 308.012 548.218 298.884C550.97 306.058 550.68 315.46 548.814 323.687C548.339 332.879 547.864 342.072 547.389 351.353C546.939 360.095 546.48 368.909 546.022 377.892C547.212 382.131 548.395 386.369 549.747 390.72C550.882 394.363 551.219 398.215 550.696 401.987Z" fill="#FBB097"/>
<path d="M548.814 323.687C548.339 332.879 547.864 342.072 547.389 351.353C538.9 354.119 530.09 355.897 521.198 356.653C520.152 346.696 519.686 336.699 519.718 326.703C528.657 317.14 538.442 308.012 548.218 298.884C550.97 306.058 550.68 315.46 548.814 323.687Z" fill="#524A57"/>
<path d="M549.353 467.452L617.063 461.999" stroke="#B8C7CF" stroke-miterlimit="10"/>
<path d="M546.126 432.395L617.892 431.31" stroke="#B8C7CF" stroke-miterlimit="10"/>
<path d="M564.376 440.969C559.516 432.251 548.484 429.106 539.754 433.98C531.015 438.845 527.893 449.872 532.761 458.589C537.629 467.323 548.653 470.452 557.383 465.578C566.114 460.705 569.244 449.695 564.376 440.969ZM536.712 456.386C533.059 449.839 535.409 441.572 541.958 437.929C548.508 434.277 556.78 436.626 560.425 443.172C564.078 449.719 561.728 457.986 555.179 461.629C548.629 465.281 540.357 462.932 536.712 456.386Z" fill="#47535E"/>
<path d="M548.565 454.013C550.907 454.013 552.805 452.116 552.805 449.775C552.805 447.434 550.907 445.537 548.565 445.537C546.223 445.537 544.324 447.434 544.324 449.775C544.324 452.116 546.223 454.013 548.565 454.013Z" fill="#47535E"/>
<path d="M559.508 441.376L545.635 449.107L547.606 452.64L561.479 444.91L559.508 441.376Z" fill="#47535E"/>
<path d="M535.566 442.388L534.11 446.163L548.929 451.875L550.386 448.101L535.566 442.388Z" fill="#47535E"/>
<path d="M550.774 451.159L546.728 451.266L547.149 467.136L551.195 467.029L550.774 451.159Z" fill="#47535E"/>
<path d="M617.112 440.406L607.826 450.266C606.627 451.536 606.603 453.523 607.77 454.826L614.094 461.887C615.148 463.061 616.991 463.053 618.029 461.871C618.914 460.857 618.898 459.345 617.989 458.356L615.092 455.204C613.893 453.901 613.909 451.89 615.124 450.603L620.202 445.247" fill="#47535E"/>
<path d="M617.892 428.986C612.107 428.986 607.408 433.674 607.408 439.465C607.408 445.255 612.107 449.944 617.892 449.944C623.678 449.944 628.377 445.247 628.377 439.465C628.377 433.682 623.686 428.986 617.892 428.986ZM617.892 446.703C613.893 446.703 610.65 443.462 610.65 439.465C610.65 435.468 613.893 432.227 617.892 432.227C621.891 432.227 625.134 435.468 625.134 439.465C625.134 443.462 621.891 446.703 617.892 446.703Z" fill="#B8C7CF"/>
<path d="M617.635 447.692C622.163 447.692 625.834 444.023 625.834 439.497C625.834 434.971 622.163 431.302 617.635 431.302C613.106 431.302 609.436 434.971 609.436 439.497C609.436 444.023 613.106 447.692 617.635 447.692Z" fill="#3A4352"/>
<path d="M619.59 385.026C590.478 385.026 566.886 408.614 566.886 437.703C566.886 466.793 590.478 490.381 619.59 490.381C648.701 490.381 672.293 466.801 672.293 437.703C672.293 408.606 648.693 385.026 619.59 385.026ZM619.59 481.534C595.37 481.534 575.737 461.911 575.737 437.703C575.737 413.496 595.37 393.873 619.59 393.873C643.809 393.873 663.442 413.496 663.442 437.703C663.442 461.911 643.809 481.534 619.59 481.534Z" fill="#A88F6C"/>
<path d="M619.59 388.243C592.256 388.243 570.104 410.392 570.104 437.703C570.104 465.015 592.256 487.164 619.59 487.164C646.923 487.164 669.075 465.023 669.075 437.703C669.075 410.383 646.923 388.243 619.59 388.243ZM619.59 481.534C595.37 481.534 575.737 461.911 575.737 437.703C575.737 413.496 595.37 393.873 619.59 393.873C643.809 393.873 663.443 413.496 663.443 437.703C663.443 461.911 643.809 481.534 619.59 481.534Z" fill="#3A4352"/>
<path d="M443.704 385.026C414.592 385.026 391 408.614 391 437.703C391 466.793 414.592 490.381 443.704 490.381C472.816 490.381 496.408 466.801 496.408 437.703C496.408 408.606 472.808 385.026 443.704 385.026ZM443.704 481.534C419.484 481.534 399.851 461.911 399.851 437.703C399.851 413.496 419.484 393.873 443.704 393.873C467.923 393.873 487.557 413.496 487.557 437.703C487.557 461.911 467.923 481.534 443.704 481.534Z" fill="#A88F6C"/>
<path d="M443.704 388.243C416.37 388.243 394.219 410.392 394.219 437.703C394.219 465.015 416.37 487.164 443.704 487.164C471.038 487.164 493.189 465.023 493.189 437.703C493.189 410.383 471.038 388.243 443.704 388.243ZM443.704 481.534C419.484 481.534 399.851 461.911 399.851 437.703C399.851 413.496 419.484 393.873 443.704 393.873C467.924 393.873 487.557 413.496 487.557 437.703C487.557 461.911 467.924 481.534 443.704 481.534Z" fill="#3A4352"/>
<path d="M563.868 368.105L468.116 359.845L466.95 363.352L563.128 372.239L563.868 368.105Z" fill="#39314A"/>
<path d="M464.069 370.896L547.285 453.957L549.353 442.625L468.02 362.652L464.069 370.896Z" fill="white"/>
<path d="M460.247 356.781C461.293 350.685 461.961 346.455 462.758 339.932C466.234 339.828 469.645 340.27 472.993 341.002C471.947 347.082 471.432 351.304 470.313 357.803C467.521 357.24 462.959 357.658 460.247 356.781Z" fill="#39314A"/>
<path d="M464.793 340.938C456.972 339.981 449.143 339.024 441.105 338.203C437.508 337.833 434.024 339.699 432.406 342.932C432.213 343.31 432.028 343.704 431.851 344.09C430.258 347.597 431.143 351.698 434 354.288C436.864 356.878 440.139 359.073 443.792 360.77C445.538 361.582 447.614 360.883 448.491 359.17C448.54 359.073 448.588 358.985 448.636 358.888C449.521 357.151 448.837 355.044 447.123 354.103C444.034 352.414 441.467 350.412 438.707 347.927C438.361 347.613 438.256 347.098 438.449 346.672C438.449 346.664 438.457 346.656 438.457 346.656C438.65 346.238 439.085 345.988 439.536 346.029C447.695 346.752 455.459 348.2 463.546 349.64C463.771 347.629 464.399 343.616 464.793 340.938Z" fill="#39314A"/>
<path d="M581.063 323.719L570.531 334.182C569.485 335.228 568.761 336.555 568.463 338.01L567.401 343.206L546.174 451.954C546.142 452.123 546.118 452.292 546.126 452.461C546.158 453.402 546.834 454.239 547.8 454.44C548.934 454.673 550.053 453.941 550.286 452.807L572.792 339.659C573.081 338.187 573.806 336.844 574.868 335.791L584.483 326.244C583.341 325.4 582.198 324.555 581.063 323.719Z" fill="#39314A"/>
<path d="M444.194 451.062C449.985 451.062 454.679 446.37 454.679 440.583C454.679 434.795 449.985 430.103 444.194 430.103C438.404 430.103 433.71 434.795 433.71 440.583C433.71 446.37 438.404 451.062 444.194 451.062Z" fill="#B8C7CF"/>
<path d="M438.908 438.435L460.488 354.32L470.611 356.652L448.966 441.001C448.29 443.647 445.554 445.247 442.802 444.612C439.962 443.96 438.208 441.17 438.908 438.435Z" fill="white"/>
<path d="M561.124 317.132C576.927 317.132 587.299 317.092 601.01 318.99C602.716 319.223 603.65 321.057 602.603 322.424C601.533 323.824 600.326 325.143 598.983 326.341C594.984 329.912 589.359 331.046 584.217 329.51C578.979 327.941 573.862 326.083 568.953 323.92C566.186 322.706 563.128 322.328 560.167 322.915C559.958 322.955 559.74 322.995 559.531 323.043C556.578 323.631 554.937 319.698 557.463 318.065C557.503 318.041 557.536 318.017 557.576 317.993C558.622 317.341 559.877 317.132 561.124 317.132Z" fill="#564C39"/>
<path d="M563.707 375.657L622.623 439.505C623.476 440.43 623.5 441.853 622.671 442.802C621.706 443.912 619.992 443.936 618.994 442.859L562.018 381.335L563.707 375.657Z" fill="#39314A"/>
<path d="M548.564 453.869L621.416 443.574L616.5 435.773L551.115 445.617L548.564 453.869Z" fill="#39314A"/>
<path d="M542.24 318.966C534.732 326.59 526.589 333.716 518.245 340.737C517.698 341.203 517.151 341.67 516.596 342.128L512.685 345.385C510.062 347.573 507.423 349.76 504.784 351.948C498.041 357.553 488.192 357.593 481.538 351.891C481.449 351.819 481.369 351.739 481.28 351.666C477.008 347.959 476.316 341.589 479.51 336.925C482.133 333.08 484.949 329.453 487.894 326.011C488.884 324.853 489.882 323.719 490.896 322.601C491.692 321.725 492.497 320.856 493.318 319.995C497.494 315.572 501.839 311.43 506.176 307.506C507.117 303.943 506.988 299.632 507.672 295.989C515.091 289.153 528.577 282.478 541.306 278.497C543.213 280.612 544.863 282.799 546.247 285.035C552.949 295.884 551.195 309.878 542.24 318.966Z" fill="#443B4A"/>
<path d="M516.596 342.128L512.685 345.385C510.062 347.573 507.423 349.76 504.784 351.948C498.041 357.553 488.192 357.593 481.538 351.891C481.449 351.819 481.369 351.739 481.28 351.666C477.008 347.959 476.316 341.589 479.51 336.925C482.133 333.08 484.949 329.453 487.894 326.011C488.884 324.853 489.882 323.719 490.896 322.601C501.605 325.271 511.116 332.541 516.596 342.128Z" fill="#FFBA98"/>
<path d="M507.994 307.297C513.433 303.83 520.378 302.817 526.573 304.594" stroke="#2B2633" stroke-linecap="round" stroke-linejoin="round"/>
<path d="M513.096 302.342C517.272 300.404 521.697 299.029 526.235 298.257" stroke="#2B2633" stroke-linecap="round" stroke-linejoin="round"/>
<path d="M463.498 271.854C458.557 268.275 452.466 266.297 446.367 266.28C442.36 268.476 438.24 270.639 433.935 272.232C432.326 272.827 430.5 272.352 429.405 271.042C426.975 268.13 425.092 265.042 423.58 261.785C421.777 261.64 420.289 261.383 418.808 261.133C419.09 259.629 419.371 258.037 419.557 256.412C419.798 254.33 419.339 252.214 418.229 250.437C416.829 248.185 415.807 245.74 415.244 243.183C413.723 236.331 416.877 229.326 422.856 225.634C424.851 224.404 426.975 223.342 429.212 222.466C436.752 219.522 445.458 222.257 449.714 229.141C449.771 229.237 449.827 229.326 449.883 229.422C451.171 231.554 451.766 233.998 451.919 236.475C452.128 239.861 454.1 242.555 456.063 245.652C459.684 247.156 463.168 247.807 467.61 248.555C466.209 256.123 464.021 265.291 463.498 271.854Z" fill="#FFBA98"/>
<path d="M426.597 241.027C432.704 247.019 441.394 250.26 449.714 249.721C451.066 249.633 452.386 249.223 453.536 248.507C454.76 247.743 455.991 246.778 457.238 245.732C456.119 241.212 452.273 237.432 450.374 234.481C441.354 233.612 433.903 234.706 426.597 241.027Z" fill="#3F2136"/>
<path d="M429.156 241.18C432.406 246.874 437.122 251.716 442.73 255.126C446.295 249.231 449.207 241.687 451.509 235.092C452.466 236.258 453.737 238.205 454.478 239.893C452.072 247.132 447.791 254.523 443.181 261.069C435.561 257.176 429.083 251.072 424.738 243.697C426.034 242.893 427.337 242.089 429.156 241.18Z" fill="#6C6175"/>
<path d="M455.089 231.256C454.108 233.612 452.667 235.776 451.058 237.513C446.319 238.084 441.491 237.955 436.792 237.111C435.126 238.502 433.598 239.725 432.085 240.818C430.081 242.266 427.844 243.352 425.463 244.027C420.675 245.378 415.855 245.998 411.237 245.636C410.971 243.641 410.899 241.534 411.027 239.411C411.534 231.103 416.555 223.728 423.942 219.884C426.991 218.3 430.226 217.045 433.63 216.128C435.191 215.71 436.792 215.501 438.385 215.501C441.169 215.509 443.929 216.177 446.399 217.552C446.568 217.648 446.737 217.745 446.898 217.841C449.618 219.434 451.718 221.879 452.965 224.774C453.005 224.862 453.038 224.943 453.07 225.031C453.923 227.058 454.607 229.149 455.089 231.256Z" fill="#52485C"/>
<path d="M453.07 225.031C452.241 227.283 451.332 229.527 450.197 231.634C445.522 231.513 440.904 230.669 436.422 229.35C436.535 224.886 437.21 220.149 438.385 215.501C441.169 215.509 443.929 216.177 446.399 217.552C446.568 217.648 446.737 217.745 446.898 217.841C449.618 219.434 451.718 221.879 452.965 224.774C453.005 224.862 453.038 224.943 453.07 225.031Z" fill="#6C6175"/>
<path d="M420.554 236.379C422.18 233.492 423.974 230.701 425.744 228.216C428.287 226.157 430.837 224.09 433.71 221.734C433.026 224.195 432.133 226.591 431.288 228.69C427.893 231.433 424.32 233.966 420.554 236.379Z" fill="#39314A"/>
<path d="M412.709 239.821C414.037 239.137 415.364 238.462 416.467 237.77C417.883 234.368 419.299 230.958 420.715 227.556C417.4 231.055 414.696 235.124 412.709 239.821Z" fill="#39314A"/>
<path d="M415.332 243.697C416.467 243.03 417.488 242.161 418.51 241.027C420.015 241.582 421.624 241.84 423.234 241.791C421.037 243.448 418.164 244.164 415.332 243.697Z" fill="#39314A"/>
<path d="M442.296 220.399C442.014 222.305 441.741 224.211 441.459 226.125C442.956 226.833 444.444 227.54 445.876 228.441C446.416 226.672 446.955 224.902 447.494 223.133C445.732 222.425 443.969 221.718 442.296 220.399Z" fill="#39314A"/>
<path d="M443.656 250.453C444.396 248.804 444.846 246.979 444.653 245.177C444.46 243.376 443.551 241.606 442.03 240.625C440.509 239.644 438.353 239.604 436.945 240.738C435.987 241.51 435.456 242.716 435.327 243.939C435.199 245.161 435.424 246.392 435.794 247.558" fill="#FFBA98"/>
<path d="M440.92 269.586C441.193 263.811 441.443 259.074 440.654 253.405C441.901 252.986 443.149 252.576 444.525 252.528C445.498 257.482 445.852 261.568 445.756 266.61C444.34 267.688 442.561 268.597 440.92 269.586Z" fill="#7D7285"/>
<path d="M543.954 281.119C528.69 286.62 515.896 295.78 506.176 307.506C505.074 304.996 504.06 301.603 503.207 299.391C499.642 298.45 495.531 296.632 491.266 294.196C486.994 291.767 482.576 288.719 478.392 285.317C477.129 284.295 475.889 283.25 474.683 282.164H474.674C469.348 277.395 464.657 272.167 461.527 267.101C460.835 265.983 460.223 264.881 459.692 263.787C458.171 260.635 457.206 258.117 458.348 255.383V255.367C458.55 254.868 458.823 254.354 459.185 253.839C459.209 253.799 459.233 253.767 459.258 253.734C460.022 252.641 460.835 251.579 461.688 250.55C461.961 250.212 462.251 249.89 462.557 249.576C467.135 244.743 474.007 242.757 480.508 244.518C483.413 245.306 486.342 246.142 489.295 247.011C493.27 248.177 497.293 249.4 501.372 250.614C501.944 250.791 502.507 250.96 503.078 251.129C508.043 252.6 512.774 254.732 517.151 257.466C519.734 259.075 522.188 260.9 524.482 262.919C524.82 263.216 525.158 263.514 525.495 263.82C531.748 269.345 537.951 275.119 543.938 281.119H543.954Z" fill="#31B15C"/>
<path d="M511.116 269.883C510.4 277.99 508.18 285.968 504.607 293.287" stroke="#31B15C" stroke-linecap="round" stroke-linejoin="round"/>
<path d="M506.458 295.37C512.323 292.137 517.497 287.657 521.528 282.317" stroke="#31B15C" stroke-linecap="round" stroke-linejoin="round"/>
<path d="M537.694 426.195C538.86 427.385 540.285 428.35 541.942 428.937L542.079 428.986C550.648 417.002 559.338 400.781 563.128 389.2C561.881 388.38 560.441 387.76 558.872 387.326C553.569 385.782 546.85 386.345 541.878 388.524C539.07 392.216 539.303 392.867 537.444 398.996C537.122 403.893 535.095 411.542 534.515 415.981C534.008 419.809 535.215 423.589 537.694 426.195Z" fill="#443B4A"/>
<path d="M537.694 426.195C538.861 427.385 540.285 428.35 541.942 428.937L542.079 428.986C550.649 417.002 559.339 400.781 563.128 389.2C561.881 388.38 560.441 387.76 558.872 387.326C552.684 400.709 545.603 413.713 537.694 426.195Z" fill="#9E8FA6"/>
<path d="M546.609 387.929C545.177 392.489 542.352 399.784 538.611 402.237C532.222 395.851 525.648 389.691 519.034 383.755C506.095 372.118 492.996 361.317 480.79 351.208C482.399 346.656 483.525 342.458 484.563 338.131C493.109 340.142 502.692 342.956 512.299 345.723C519.34 347.75 522.832 354.159 526.3 360.609C527.756 363.328 529.269 365.925 530.87 368.427C535.288 375.399 540.349 381.672 546.609 387.929Z" fill="#FFBA98"/>
<path d="M546.609 387.929C545.177 392.489 542.353 399.784 538.611 402.237C532.222 395.851 525.648 389.691 519.034 383.755C523.025 378.777 527.008 373.743 530.87 368.427C535.288 375.399 540.349 381.672 546.609 387.929Z" fill="white"/>
<path d="M465.349 280.491C466.58 283.499 467.811 286.515 469.026 289.563C469.75 291.373 470.474 293.206 471.19 295.048C473.315 293.616 475.93 292.997 478.673 293.045C481.401 292.346 484.362 292.322 487.323 292.989C488.884 293.343 490.309 294.099 491.532 295.12C491.443 294.815 491.355 294.501 491.274 294.196C490.292 290.721 489.351 287.287 488.426 283.885C488.313 283.467 488.2 283.041 488.088 282.623C486.792 277.837 485.537 273.108 484.29 268.388C484.153 267.849 484.008 267.326 483.871 266.795C483.783 266.715 483.686 266.634 483.598 266.562C479.784 263.289 475.954 260.715 471.939 258.479C468.986 256.718 465.815 255.085 462.565 253.228C462.025 252.922 461.478 252.608 460.939 252.287C460.32 252.914 459.724 253.574 459.185 254.273C458.895 254.635 458.622 254.997 458.372 255.367C458.364 255.367 458.364 255.375 458.364 255.383C457.479 256.654 456.731 258.053 456.16 259.605C456.667 265.621 459.129 271.46 463.007 276.462C463.957 277.693 464.761 279.044 465.357 280.491H465.349Z" fill="#31B15C"/>
<path d="M472.268 287.729C471.158 288.292 470.08 288.904 469.026 289.563C470.748 293.858 472.454 298.217 474.103 302.696C468.141 312.114 459.137 321.178 450.181 327.805C451.903 331.979 452.989 335.155 455.612 338.131C467.73 330.274 481.755 320.052 491.765 309.645C493.64 307.691 494.332 304.876 493.575 302.278C492.779 299.552 492.014 296.866 491.266 294.196C490.284 290.721 489.343 287.287 488.418 283.885C484.982 283.869 481.618 284.368 478.392 285.317C477.788 285.494 477.185 285.687 476.589 285.904" fill="#FFBA98"/>
<path d="M476.589 285.904C475.109 286.419 473.669 287.03 472.269 287.729C470.627 283.724 468.881 279.599 467.368 275.537C464.898 273.141 462.919 270.245 461.527 267.101C459.748 263.088 458.903 258.656 459.169 254.281C459.177 254.128 459.185 253.984 459.193 253.839V253.823L459.282 253.71L462.565 249.576C462.452 250.783 462.444 252.005 462.549 253.22C462.717 255.753 463.273 258.246 464.11 260.635C465.783 265.404 468.479 269.739 471.319 273.913C472.333 276.76 473.427 279.51 474.674 282.156H474.682C475.278 283.435 475.906 284.681 476.589 285.904Z" fill="white"/>
<path d="M501.381 250.614C498.613 251.265 495.998 252.536 493.801 254.33C491.315 252.858 488.667 251.394 486.02 249.93C486.945 248.716 488.064 247.751 489.303 247.011C493.278 248.177 497.301 249.4 501.381 250.614Z" fill="white"/>
<path d="M525.511 263.819C524.119 265.621 522.727 267.431 521.327 269.232C519.026 266.843 516.475 264.704 513.731 262.862C514.874 261.061 516.017 259.268 517.167 257.466C519.75 259.075 522.204 260.9 524.498 262.919C524.835 263.216 525.173 263.514 525.511 263.819Z" fill="white"/>
<path d="M432.029 353.693C432.053 353.797 432.085 353.902 432.109 354.007C432.351 354.891 434.274 355.712 435.151 355.712C437.75 355.712 437.798 350.918 440.566 347.725C447.341 346.937 453.649 342.787 457.045 336.868C455.371 332.96 453.802 329.686 452.032 326.518C445.152 328.504 438.409 330.587 431.868 332.606C431.184 332.815 430.54 333.137 429.953 333.547C427.756 335.091 425.543 336.635 423.17 338.195C421.359 339.386 420.386 341.509 420.691 343.648C420.941 345.337 421.206 347.074 421.536 348.924C421.81 350.436 423.105 351.554 424.65 351.61C425.125 351.626 425.648 351.642 426.243 351.666C426.308 351.972 426.372 352.277 426.453 352.615C426.654 353.476 427.378 354.135 428.263 354.183C429.502 354.24 430.757 354.087 432.029 353.693Z" fill="#FFBA98"/>
<path d="M432.174 353.138C432.029 352.454 431.924 351.763 431.86 351.055C431.562 347.725 433.099 344.428 435.955 342.699C435.971 342.691 435.988 342.675 436.004 342.667" stroke="#CB5144" stroke-linecap="round" stroke-linejoin="round"/>
<path d="M426.348 350.653C426.308 349.752 426.267 348.843 426.219 347.894C426.09 345.224 426.959 342.57 428.754 340.584C429.148 340.15 429.558 339.739 429.993 339.353" stroke="#CB5144" stroke-linecap="round" stroke-linejoin="round"/>
<path d="M482.383 263.643C485.086 269.883 487.034 276.446 488.168 283.153" stroke="#31B15C" stroke-linecap="round" stroke-linejoin="round"/>
<path d="M489.834 270.736C489.729 274.186 489.013 277.62 487.734 280.821" stroke="#31B15C" stroke-linecap="round" stroke-linejoin="round"/>
<path d="M547.027 426.693C544.927 425.479 544.211 422.793 545.434 420.694L556.337 401.899C557.552 399.8 560.24 399.084 562.34 400.306C564.44 401.521 565.156 404.207 563.933 406.306L553.03 425.101C551.807 427.2 549.119 427.908 547.027 426.693Z" fill="#2C3440"/>
<path d="M546.601 449.132L552.724 413.15C552.99 411.598 554.462 410.552 556.015 410.818C557.568 411.083 558.614 412.555 558.348 414.107L552.225 450.089C551.96 451.641 550.487 452.686 548.934 452.421C547.381 452.164 546.335 450.692 546.601 449.132Z" fill="#B8C7CF"/>
<path d="M458.171 224.476C465.783 224.291 473.395 224.219 481.007 224.082L503.843 223.857C519.066 223.728 534.282 223.736 549.506 223.672C564.73 223.736 579.945 223.728 595.169 223.857L618.005 224.082C625.617 224.219 633.229 224.291 640.84 224.476C633.229 224.661 625.617 224.734 618.005 224.87L595.169 225.096C579.945 225.224 564.73 225.216 549.506 225.281C534.282 225.216 519.066 225.224 503.843 225.096L481.007 224.87C473.387 224.734 465.783 224.661 458.171 224.476Z" fill="white"/>
<path d="M541.854 235.333C551.043 235.02 560.224 234.811 569.413 234.706C578.602 234.577 587.783 234.545 596.972 234.529C606.161 234.545 615.342 234.577 624.531 234.706C633.72 234.811 642.901 235.02 652.09 235.333C642.901 235.647 633.72 235.856 624.531 235.961C615.342 236.089 606.161 236.122 596.972 236.138C587.783 236.122 578.602 236.089 569.413 235.961C560.224 235.856 551.035 235.647 541.854 235.333Z" fill="white"/>
<path d="M462.565 210.804C471.754 210.491 480.935 210.281 490.124 210.177C499.313 210.048 508.494 210.016 517.683 210C526.872 210.016 536.053 210.048 545.242 210.177C554.431 210.281 563.611 210.491 572.8 210.804C563.611 211.118 554.431 211.327 545.242 211.432C536.053 211.56 526.872 211.592 517.683 211.608C508.494 211.592 499.313 211.56 490.124 211.432C480.935 211.327 471.746 211.118 462.565 210.804Z" fill="white"/>
<path d="M541.854 265.09C548.693 264.905 555.533 264.833 562.372 264.696L582.891 264.471C596.569 264.342 610.248 264.35 623.927 264.286C637.606 264.35 651.285 264.342 664.964 264.471L685.482 264.696C692.321 264.833 699.161 264.905 706 265.09C699.161 265.275 692.321 265.348 685.482 265.484L664.964 265.709C651.285 265.838 637.606 265.83 623.927 265.894C610.248 265.83 596.569 265.838 582.891 265.709L562.372 265.484C555.533 265.348 548.693 265.275 541.854 265.09Z" fill="white"/>
<path d="M564.384 273.133C569.646 272.948 574.908 272.875 580.171 272.738L595.958 272.513C606.482 272.385 617.015 272.393 627.54 272.328C638.065 272.393 648.597 272.385 659.122 272.513L674.909 272.738C680.171 272.875 685.434 272.948 690.696 273.133C685.434 273.318 680.171 273.39 674.909 273.527L659.122 273.752C648.597 273.88 638.065 273.872 627.54 273.937C617.015 273.872 606.482 273.88 595.958 273.752L580.171 273.527C574.908 273.39 569.646 273.318 564.384 273.133Z" fill="white"/>
<path d="M556.337 298.16C565.526 297.847 574.707 297.638 583.896 297.533C593.085 297.404 602.266 297.372 611.455 297.356C620.644 297.372 629.825 297.404 639.014 297.533C648.203 297.638 657.384 297.847 666.573 298.16C657.384 298.474 648.203 298.683 639.014 298.788C629.825 298.916 620.644 298.949 611.455 298.965C602.266 298.949 593.085 298.916 583.896 298.788C574.707 298.675 565.518 298.466 556.337 298.16Z" fill="white"/>
<path d="M592.562 340.873C602.017 340.56 611.471 340.351 620.917 340.246C630.372 340.117 639.827 340.085 649.273 340.069C658.727 340.085 668.182 340.117 677.628 340.246C687.083 340.351 696.537 340.56 705.984 340.873C696.529 341.187 687.075 341.396 677.628 341.501C668.174 341.629 658.719 341.662 649.273 341.678C639.818 341.662 630.364 341.629 620.917 341.501C611.471 341.396 602.017 341.187 592.562 340.873Z" fill="white"/>
<path d="M649.281 356.958C654.004 356.644 658.736 356.435 663.459 356.331C668.182 356.202 672.914 356.17 677.637 356.154C682.36 356.17 687.091 356.202 691.814 356.331C696.538 356.435 701.269 356.644 705.992 356.958C701.269 357.272 696.538 357.481 691.814 357.585C687.091 357.714 682.36 357.746 677.637 357.762C672.914 357.746 668.182 357.714 663.459 357.585C658.736 357.481 654.004 357.272 649.281 356.958Z" fill="white"/>
<path d="M585.707 377.064C595.081 376.75 604.463 376.541 613.837 376.437C623.211 376.308 632.593 376.276 641.967 376.26C651.341 376.276 660.723 376.308 670.097 376.437C679.471 376.541 688.853 376.75 698.227 377.064C688.853 377.378 679.471 377.587 670.097 377.691C660.723 377.82 651.341 377.852 641.967 377.868C632.593 377.852 623.211 377.82 613.837 377.691C604.455 377.587 595.081 377.378 585.707 377.064Z" fill="white"/>
</g>
</g>
<defs>
<clipPath id="clip0_366_6">
<rect width="855" height="575" fill="white"/>
</clipPath>
<clipPath id="clip1_366_6">
<rect width="315" height="284" fill="white" transform="translate(391 210)"/>
</clipPath>
</defs>
</svg>
